# Apple ModelIO OBJ File: playsticmushroom2
mtllib playsticmushroom2.mtl
g mushroom2
v 0.261803 1.83804 -0.546756
v 0.261803 1.85502 -0.589824
v 0.297725 1.83804 -0.531877
v 0.328178 1.85502 -0.56233
v 0.261803 1.87151 -0.6186
v 0.261803 1.89128 -0.628705
v 0.355672 1.89128 -0.589824
v 0.348526 1.87151 -0.582678
v 0.261803 1.90904 -0.6186
v 0.261803 1.92256 -0.589824
v 0.348526 1.90904 -0.582678
v 0.328178 1.92256 -0.56233
v 0.261803 1.93618 -0.546756
v 0.261803 1.94629 -0.495955
v 0.297725 1.93618 -0.531877
v 0.261803 1.82794 -0.495955
v 0.355672 1.92256 -0.495955
v 0.384448 1.90904 -0.495955
v 0.312604 1.93618 -0.495955
v 0.312604 1.83804 -0.495955
v 0.355672 1.85502 -0.495955
v 0.384448 1.87151 -0.495955
v 0.394553 1.89128 -0.495955
v 0.297725 1.83804 -0.460033
v 0.348526 1.87151 -0.409232
v 0.328178 1.85502 -0.42958
v 0.355672 1.89128 -0.402087
v 0.348526 1.90904 -0.409232
v 0.297725 1.93618 -0.460033
v 0.328178 1.92256 -0.42958
v 0.261803 1.92256 -0.402087
v 0.261803 1.93618 -0.445154
v 0.261803 1.85502 -0.402087
v 0.261803 1.83804 -0.445154
v 0.261803 1.89128 -0.363205
v 0.261803 1.87151 -0.37331
v 0.261803 1.90904 -0.37331
v 0.225881 1.83804 -0.460033
v 0.195428 1.85502 -0.42958
v 0.17508 1.87151 -0.409232
v 0.167935 1.89128 -0.402087
v 0.195428 1.92256 -0.42958
v 0.17508 1.90904 -0.409232
v 0.225881 1.93618 -0.460033
v 0.211002 1.93618 -0.495955
v 0.211002 1.83804 -0.495955
v 0.139158 1.87151 -0.495955
v 0.167935 1.85502 -0.495955
v 0.129053 1.89128 -0.495955
v 0.139158 1.90904 -0.495955
v 0.167935 1.92256 -0.495955
v 0.195428 1.85502 -0.56233
v 0.17508 1.87151 -0.582678
v 0.17508 1.90904 -0.582678
v 0.167935 1.89128 -0.589824
v 0.225881 1.93618 -0.531877
v 0.195428 1.92256 -0.56233
v 0.225881 1.83804 -0.531877
v 0.154509 1.8719 -0.570991
v 0.178633 1.8853 -0.614787
v 0.204499 1.8853 -0.571997
v 0.196292 1.8962 -0.646847
v 0.202756 1.90782 -0.658582
v 0.241094 1.8962 -0.572734
v 0.254489 1.90782 -0.573003
v 0.196292 1.91957 -0.646847
v 0.178633 1.93119 -0.614787
v 0.241094 1.91957 -0.572734
v 0.204499 1.93119 -0.571997
v 0.154509 1.94459 -0.570991
v 0.199311 1.8962 -0.496878
v 0.206241 1.90782 -0.485412
v 0.199311 1.91957 -0.496878
v 0.180375 1.93119 -0.528202
v 0.180375 1.8853 -0.528202
v 0.112726 1.91957 -0.495135
v 0.130385 1.93119 -0.527196
v 0.112726 1.8962 -0.495135
v 0.130385 1.8853 -0.527196
v 0.106262 1.90782 -0.4834
v 0.067924 1.8962 -0.569248
v 0.104519 1.8853 -0.569985
v 0.067924 1.91957 -0.569248
v 0.054529 1.90782 -0.568979
v 0.104519 1.93119 -0.569985
v 0.109707 1.8962 -0.645105
v 0.128643 1.8853 -0.613781
v 0.109707 1.91957 -0.645105
v 0.102776 1.90782 -0.65657
v 0.128643 1.93119 -0.613781
vn 0.1502 -0.9198 -0.3626
vn 0.346 -0.427 -0.8354
vn 0.1735 0.8914 -0.4188
vn 0.0805 0.9776 -0.1945
vn 0.0805 -0.9776 -0.1945
vn 0.2017 -0.8498 -0.487
vn 0.3387 0.4653 -0.8178
vn 0.1239 0.9461 -0.2991
vn 0.4188 0.8914 -0.1735
vn 0.1945 0.9776 -0.0805
vn 0.1945 -0.9776 -0.0805
vn 0.487 -0.8498 -0.2017
vn 0.8178 0.4653 -0.3387
vn 0.2991 0.9461 -0.1239
vn 0.3626 -0.9198 -0.1502
vn 0.8354 -0.427 -0.346
vn 0.1945 -0.9776 0.0805
vn 0.487 -0.8498 0.2017
vn 0.8178 0.4653 0.3387
vn 0.2991 0.9461 0.1239
vn 0.3626 -0.9198 0.1502
vn 0.8354 -0.427 0.346
vn 0.4188 0.8914 0.1735
vn 0.1945 0.9776 0.0805
vn 0.1239 0.9461 0.2991
vn 0.1502 -0.9198 0.3626
vn 0.346 -0.427 0.8354
vn 0.1735 0.8914 0.4188
vn 0.0805 0.9776 0.1945
vn 0.0805 -0.9776 0.1945
vn 0.2017 -0.8498 0.487
vn 0.3387 0.4653 0.8178
vn -0.1502 -0.9198 0.3626
vn -0.346 -0.427 0.8354
vn -0.1735 0.8914 0.4188
vn -0.0805 0.9776 0.1945
vn -0.0805 -0.9776 0.1945
vn -0.2017 -0.8498 0.487
vn -0.3387 0.4653 0.8178
vn -0.1239 0.9461 0.2991
vn -0.1945 0.9776 0.0805
vn -0.1945 -0.9776 0.0805
vn -0.487 -0.8498 0.2017
vn -0.8178 0.4653 0.3387
vn -0.2991 0.9461 0.1239
vn -0.3626 -0.9198 0.1502
vn -0.8354 -0.427 0.346
vn -0.4188 0.8914 0.1735
vn -0.487 -0.8498 -0.2017
vn -0.8178 0.4653 -0.3387
vn -0.2991 0.9461 -0.1239
vn -0.3626 -0.9198 -0.1502
vn -0.8354 -0.427 -0.346
vn -0.4188 0.8914 -0.1735
vn -0.1945 0.9776 -0.0805
vn -0.1945 -0.9776 -0.0805
vn -0.1502 -0.9198 -0.3626
vn -0.346 -0.427 -0.8354
vn -0.1735 0.8914 -0.4188
vn -0.0805 0.9776 -0.1945
vn -0.0805 -0.9776 -0.1945
vn -0.2017 -0.8498 -0.487
vn -0.3387 0.4653 -0.8178
vn -0.1239 0.9461 -0.2991
vn 0.253 -0.9553 -0.1529
vn 0.6058 -0.7063 -0.3662
vn 0.2946 0.9389 -0.1781
vn 0.2781 -0.9457 -0.1681
vn 0.6088 0.7028 -0.368
vn 0.253 0.9553 -0.1529
vn 0.6201 -0.7063 0.3415
vn 0.3015 0.9389 0.1661
vn 0.2847 -0.9457 0.1568
vn 0.6231 0.7028 0.3432
vn 0.2589 0.9553 0.1426
vn 0.2589 -0.9553 0.1426
vn 0.0069 0.9389 0.3442
vn 0.0065 -0.9457 0.3249
vn 0.0143 0.7028 0.7113
vn 0.0059 0.9553 0.2955
vn 0.0059 -0.9553 0.2955
vn 0.0142 -0.7063 0.7078
vn -0.2781 -0.9457 0.1681
vn -0.6088 0.7028 0.368
vn -0.253 0.9553 0.1529
vn -0.253 -0.9553 0.1529
vn -0.6058 -0.7063 0.3662
vn -0.2946 0.9389 0.1781
vn -0.2847 -0.9457 -0.1568
vn -0.6231 0.7028 -0.3432
vn -0.2589 0.9553 -0.1426
vn -0.2589 -0.9553 -0.1426
vn -0.6201 -0.7063 -0.3415
vn -0.3015 0.9389 -0.1661
vn -0.0065 -0.9457 -0.3249
vn -0.0143 0.7028 -0.7113
vn -0.0059 0.9553 -0.2955
vn -0.0059 -0.9553 -0.2955
vn -0.0142 -0.7063 -0.7078
vn -0.0069 0.9389 -0.3442
vt 0.470911 0.079111
vt 0.470911 0.157471
vt 0.392551 0.079111
vt 0.392551 0.157471
vt 0.470911 0.235831
vt 0.470911 0.314191
vt 0.392551 0.314191
vt 0.392551 0.235831
vt 0.470911 0.392551
vt 0.470911 0.470911
vt 0.392551 0.392551
vt 0.392551 0.470911
vt 0.470911 0.549271
vt 0.431731 0.627631
vt 0.392551 0.549271
vt 0.431731 0.000751
vt 0.314191 0.470911
vt 0.314191 0.392551
vt 0.353371 0.627631
vt 0.314191 0.549271
vt 0.353371 0.000751
vt 0.314191 0.079111
vt 0.314191 0.157471
vt 0.314191 0.235831
vt 0.314191 0.314191
vt 0.275011 0.000751
vt 0.235831 0.079111
vt 0.235831 0.235831
vt 0.235831 0.157471
vt 0.235831 0.314191
vt 0.235831 0.392551
vt 0.235831 0.549271
vt 0.235831 0.470911
vt 0.275011 0.627631
vt 0.157471 0.470911
vt 0.157471 0.549271
vt 0.157471 0.157471
vt 0.157471 0.079111
vt 0.157471 0.314191
vt 0.157471 0.235831
vt 0.157471 0.392551
vt 0.196651 0.627631
vt 0.196651 0.000751
vt 0.079111 0.079111
vt 0.079111 0.157471
vt 0.079111 0.235831
vt 0.079111 0.314191
vt 0.079111 0.470911
vt 0.079111 0.392551
vt 0.118291 0.627631
vt 0.079111 0.549271
vt 0.118291 0.000751
vt 0.039931 0.627631
vt 0.000751 0.549271
vt 0.039931 0.000751
vt 0.000751 0.079111
vt 0.000751 0.235831
vt 0.000751 0.157471
vt 0.000751 0.314191
vt 0.000751 0.392551
vt 0.000751 0.470911
vt 0.627631 0.157471
vt 0.627631 0.235831
vt 0.549271 0.157471
vt 0.549271 0.235831
vt 0.627631 0.314191
vt 0.627631 0.392551
vt 0.549271 0.392551
vt 0.549271 0.314191
vt 0.627631 0.470911
vt 0.627631 0.549271
vt 0.549271 0.549271
vt 0.549271 0.470911
vt 0.627631 0.079111
vt 0.549271 0.079111
vt 0.588451 0.627631
vt 0.588451 0.000751
vt 0.510091 0.627631
vt 0.510091 0.000751
vt 0.772649 0.558093
vt 0.809466 0.631727
vt 0.735832 0.631727
vt 0.809466 0.70536
vt 0.809466 0.778993
vt 0.735832 0.70536
vt 0.735832 0.778993
vt 0.809466 0.852626
vt 0.809466 0.92626
vt 0.735832 0.852626
vt 0.735832 0.92626
vt 0.772649 0.999893
vt 0.662199 0.70536
vt 0.662199 0.778993
vt 0.662199 0.852626
vt 0.662199 0.92626
vt 0.662199 0.631727
vt 0.699016 0.999893
vt 0.699016 0.558093
vt 0.588566 0.852626
vt 0.588566 0.92626
vt 0.588566 0.70536
vt 0.588566 0.631727
vt 0.588566 0.778993
vt 0.625382 0.999893
vt 0.625382 0.558093
vt 0.514932 0.70536
vt 0.514932 0.631727
vt 0.514932 0.852626
vt 0.514932 0.778993
vt 0.551749 0.999893
vt 0.514932 0.92626
vt 0.551749 0.558093
vt 0.956732 0.631727
vt 0.956732 0.70536
vt 0.883099 0.70536
vt 0.883099 0.631727
vt 0.956732 0.778993
vt 0.956732 0.852626
vt 0.883099 0.852626
vt 0.883099 0.778993
vt 0.956732 0.92626
vt 0.919916 0.999893
vt 0.883099 0.92626
vt 0.919916 0.558093
vt 0.846282 0.999893
vt 0.846282 0.558093
usemtl 
f 1/1/1 2/2/1 3/3/1
f 2/2/1 4/4/1 3/3/1
f 5/5/2 6/6/2 7/7/2
f 5/5/2 7/7/2 8/8/2
f 9/9/3 10/10/3 11/11/3
f 10/10/3 12/12/3 11/11/3
f 13/13/4 14/14/4 15/15/4
f 16/16/5 1/1/5 3/3/5
f 2/2/6 5/5/6 8/8/6
f 2/2/6 8/8/6 4/4/6
f 6/6/7 9/9/7 7/7/7
f 9/9/7 11/11/7 7/7/7
f 10/10/8 13/13/8 15/15/8
f 10/10/8 15/15/8 12/12/8
f 11/11/9 12/12/9 17/17/9
f 11/11/9 17/17/9 18/18/9
f 15/15/10 14/19/10 19/20/10
f 16/21/11 3/3/11 20/22/11
f 4/4/12 8/8/12 21/23/12
f 8/8/12 22/24/12 21/23/12
f 7/7/13 11/11/13 18/18/13
f 7/7/13 18/18/13 23/25/13
f 12/12/14 15/15/14 17/17/14
f 15/15/14 19/20/14 17/17/14
f 3/3/15 4/4/15 21/23/15
f 3/3/15 21/23/15 20/22/15
f 8/8/16 7/7/16 22/24/16
f 7/7/16 23/25/16 22/24/16
f 16/26/17 20/22/17 24/27/17
f 21/23/18 22/24/18 25/28/18
f 21/23/18 25/28/18 26/29/18
f 23/25/19 18/18/19 27/30/19
f 18/18/19 28/31/19 27/30/19
f 17/17/20 19/20/20 29/32/20
f 17/17/20 29/32/20 30/33/20
f 20/22/21 21/23/21 24/27/21
f 21/23/21 26/29/21 24/27/21
f 22/24/22 23/25/22 27/30/22
f 22/24/22 27/30/22 25/28/22
f 18/18/23 17/17/23 28/31/23
f 17/17/23 30/33/23 28/31/23
f 19/20/24 14/34/24 29/32/24
f 30/33/25 29/32/25 31/35/25
f 29/32/25 32/36/25 31/35/25
f 24/27/26 26/29/26 33/37/26
f 24/27/26 33/37/26 34/38/26
f 25/28/27 27/30/27 35/39/27
f 25/28/27 35/39/27 36/40/27
f 28/31/28 30/33/28 37/41/28
f 30/33/28 31/35/28 37/41/28
f 29/32/29 14/42/29 32/36/29
f 16/43/30 24/27/30 34/38/30
f 26/29/31 25/28/31 36/40/31
f 26/29/31 36/40/31 33/37/31
f 27/30/32 28/31/32 35/39/32
f 28/31/32 37/41/32 35/39/32
f 34/38/33 33/37/33 38/44/33
f 33/37/33 39/45/33 38/44/33
f 36/40/34 35/39/34 40/46/34
f 35/39/34 41/47/34 40/46/34
f 37/41/35 31/35/35 42/48/35
f 37/41/35 42/48/35 43/49/35
f 32/36/36 14/50/36 44/51/36
f 16/52/37 34/38/37 38/44/37
f 33/37/38 36/40/38 39/45/38
f 36/40/38 40/46/38 39/45/38
f 35/39/39 37/41/39 43/49/39
f 35/39/39 43/49/39 41/47/39
f 31/35/40 32/36/40 44/51/40
f 31/35/40 44/51/40 42/48/40
f 44/51/41 14/53/41 45/54/41
f 16/55/42 38/44/42 46/56/42
f 39/45/43 40/46/43 47/57/43
f 39/45/43 47/57/43 48/58/43
f 41/47/44 43/49/44 49/59/44
f 43/49/44 50/60/44 49/59/44
f 42/48/45 44/51/45 51/61/45
f 44/51/45 45/54/45 51/61/45
f 38/44/46 39/45/46 48/58/46
f 38/44/46 48/58/46 46/56/46
f 40/46/47 41/47/47 49/59/47
f 40/46/47 49/59/47 47/57/47
f 43/49/48 42/48/48 50/60/48
f 42/48/48 51/61/48 50/60/48
f 48/62/49 47/63/49 52/64/49
f 47/63/49 53/65/49 52/64/49
f 49/66/50 50/67/50 54/68/50
f 49/66/50 54/68/50 55/69/50
f 51/70/51 45/71/51 56/72/51
f 51/70/51 56/72/51 57/73/51
f 46/74/52 48/62/52 58/75/52
f 48/62/52 52/64/52 58/75/52
f 47/63/53 49/66/53 53/65/53
f 49/66/53 55/69/53 53/65/53
f 50/67/54 51/70/54 57/73/54
f 50/67/54 57/73/54 54/68/54
f 45/71/55 14/76/55 56/72/55
f 16/77/56 46/74/56 58/75/56
f 58/75/57 52/64/57 2/2/57
f 58/75/57 2/2/57 1/1/57
f 53/65/58 55/69/58 5/5/58
f 55/69/58 6/6/58 5/5/58
f 54/68/59 57/73/59 10/10/59
f 54/68/59 10/10/59 9/9/59
f 56/72/60 14/78/60 13/13/60
f 16/79/61 58/75/61 1/1/61
f 52/64/62 53/65/62 2/2/62
f 53/65/62 5/5/62 2/2/62
f 55/69/63 54/68/63 9/9/63
f 55/69/63 9/9/63 6/6/63
f 57/73/64 56/72/64 10/10/64
f 56/72/64 13/13/64 10/10/64
f 59/80/65 60/81/65 61/82/65
f 62/83/66 63/84/66 64/85/66
f 63/84/66 65/86/66 64/85/66
f 66/87/67 67/88/67 68/89/67
f 67/88/67 69/90/67 68/89/67
f 60/81/68 62/83/68 64/85/68
f 60/81/68 64/85/68 61/82/68
f 63/84/69 66/87/69 68/89/69
f 63/84/69 68/89/69 65/86/69
f 67/88/70 70/91/70 69/90/70
f 64/85/71 65/86/71 71/92/71
f 65/86/71 72/93/71 71/92/71
f 68/89/72 69/90/72 73/94/72
f 69/90/72 74/95/72 73/94/72
f 61/82/73 64/85/73 71/92/73
f 61/82/73 71/92/73 75/96/73
f 65/86/74 68/89/74 73/94/74
f 65/86/74 73/94/74 72/93/74
f 69/90/75 70/97/75 74/95/75
f 59/98/76 61/82/76 75/96/76
f 73/94/77 74/95/77 76/99/77
f 74/95/77 77/100/77 76/99/77
f 75/96/78 71/92/78 78/101/78
f 75/96/78 78/101/78 79/102/78
f 72/93/79 73/94/79 76/99/79
f 72/93/79 76/99/79 80/103/79
f 74/95/80 70/104/80 77/100/80
f 59/105/81 75/96/81 79/102/81
f 71/92/82 72/93/82 78/101/82
f 72/93/82 80/103/82 78/101/82
f 79/102/83 78/101/83 81/106/83
f 79/102/83 81/106/83 82/107/83
f 80/103/84 76/99/84 83/108/84
f 80/103/84 83/108/84 84/109/84
f 77/100/85 70/110/85 85/111/85
f 59/112/86 79/102/86 82/107/86
f 78/101/87 80/103/87 81/106/87
f 80/103/87 84/109/87 81/106/87
f 76/99/88 77/100/88 83/108/88
f 77/100/88 85/111/88 83/108/88
f 82/113/89 81/114/89 86/115/89
f 82/113/89 86/115/89 87/116/89
f 84/117/90 83/118/90 88/119/90
f 84/117/90 88/119/90 89/120/90
f 85/121/91 70/122/91 90/123/91
f 59/124/92 82/113/92 87/116/92
f 81/114/93 84/117/93 86/115/93
f 84/117/93 89/120/93 86/115/93
f 83/118/94 85/121/94 88/119/94
f 85/121/94 90/123/94 88/119/94
f 87/116/95 86/115/95 60/81/95
f 86/115/95 62/83/95 60/81/95
f 89/120/96 88/119/96 63/84/96
f 88/119/96 66/87/96 63/84/96
f 90/123/97 70/125/97 67/88/97
f 59/126/98 87/116/98 60/81/98
f 86/115/99 89/120/99 63/84/99
f 86/115/99 63/84/99 62/83/99
f 88/119/100 90/123/100 67/88/100
f 88/119/100 67/88/100 66/87/100
s off
