# Apple ModelIO OBJ File: pestecide_bottle2
mtllib pestecide_bottle2.mtl
g hose_and_spray
v 1.3152 0.36 -2.14
v 2.6268 0.342868 -2.14
v 1.3152 0.331716 -2.12828
v 2.64406 0.320461 -2.12828
v 1.3152 0.32 -2.1
v 2.65121 0.31118 -2.1
v 2.64406 0.320461 -2.07172
v 1.3152 0.331716 -2.07172
v 2.6268 0.342868 -2.06
v 1.3152 0.36 -2.06
v 2.60954 0.365275 -2.07172
v 1.3152 0.388284 -2.07172
v 2.60239 0.374557 -2.1
v 1.3152 0.4 -2.1
v 2.97602 0.576174 -2.07172
v 2.95876 0.598581 -2.06
v 1.3152 0.388284 -2.12828
v 2.60954 0.365275 -2.12828
v 2.95876 0.598581 -2.14
v 2.9415 0.620988 -2.12828
v 2.93435 0.63027 -2.1
v 2.9415 0.620988 -2.07172
v 2.98317 0.566893 -2.1
v 2.97602 0.576174 -2.12828
v 3.01513 0.618989 -2.1
v 3.01187 0.62322 -2.11289
v 3.00401 0.633434 -2.11823
v 3.01187 0.62322 -2.08711
v 3.00401 0.633434 -2.08177
v 2.99614 0.643648 -2.08711
v 2.99288 0.647878 -2.1
v 2.99614 0.643648 -2.11289
v 0.281856 0.25 -2.00676
v 0.281856 0.57 -2.00676
v 0.281856 0.57 -2.18
v 0.281856 0.25 -2.18
v 1.32248 0.57 -2.18
v 1.32248 0.25 -2.18
v 1.32248 0.57 -2.00676
v 1.32248 0.25 -2.00676
v -3.24854 0.856349 -0.725733
v -2.6362 0.856349 -0.678963
v -2.6362 0.828065 -0.667248
v -3.25337 0.828065 -0.715061
v -2.6362 0.816349 -0.638963
v -3.26504 0.816349 -0.689296
v -2.6362 0.828065 -0.610679
v -3.27671 0.828065 -0.663531
v -2.6362 0.856349 -0.598963
v -3.28154 0.856349 -0.652859
v -3.27671 0.884633 -0.663531
v -2.6362 0.884633 -0.610679
v -3.26504 0.896349 -0.689296
v -2.6362 0.896349 -0.638963
v -2.6362 0.884633 -0.667248
v -3.25337 0.884633 -0.715061
v -3.33804 0.766453 -0.999526
v -3.31293 0.754737 -1.01255
v -3.1609 0.595144 -1.60752
v -3.14852 0.586806 -1.58079
v -3.33804 0.686453 -0.999526
v -3.31293 0.698169 -1.01255
v -3.36314 0.754737 -0.986499
v -3.37354 0.726453 -0.981103
v -3.30253 0.726453 -1.01795
v -3.36314 0.698169 -0.986499
v -3.17467 0.58039 -1.63054
v -3.18178 0.551185 -1.63636
v -3.17805 0.524638 -1.62158
v -3.16567 0.516299 -1.59485
v -3.14479 0.560258 -1.56601
v -3.15189 0.531053 -1.57183
v -2.63089 0.396321 -1.84343
v -2.62716 0.369774 -1.82864
v -2.63427 0.340569 -1.83446
v -2.64327 0.40466 -1.87016
v -2.66415 0.360701 -1.899
v -2.66042 0.334154 -1.88421
v -2.65704 0.389906 -1.89317
v -2.64804 0.325815 -1.85748
v -2.09098 0.279246 -2.11012
v -2.10475 0.264492 -2.13313
v -2.11713 0.27283 -2.15986
v -2.12086 0.299378 -2.17465
v 0.291178 0.359401 -2.11564
v 0.294909 0.332854 -2.10086
v -2.09998 0.343337 -2.14581
v -2.11375 0.328582 -2.16883
v -2.0876 0.334998 -2.11908
v -2.08387 0.308451 -2.10429
v 0.328164 0.368474 -2.04529
v 0.321061 0.339269 -2.05111
v 0.307287 0.324515 -2.07413
v 0.324434 0.395021 -2.06007
v 0.312056 0.40336 -2.0868
v 0.298282 0.388606 -2.10982
v 1.2491 0.547178 -2.1
v 0.857178 0.774461 -2.1
v 1.16216 0.570472 -2.04804
v 0.880472 0.687528 -2.04804
v 0.880472 0.687528 -2.15196
v 1.16216 0.570472 -2.15196
v 0.713726 0.403726 -2.1
v 0.777365 0.467365 -2.04804
v 0.777365 0.467365 -2.15196
vn -0.0045 -0.4208 -0.9071
vn -0.0071 -0.9378 -0.3472
vn -0.0071 -0.9378 0.3472
vn -0.0045 -0.4208 0.9071
vn 0.0065 0.4214 0.9069
vn 0.0176 0.9381 0.346
vn 0.2335 -0.3032 0.9239
vn 0.0176 0.9381 -0.346
vn 0.0065 0.4214 -0.9069
vn -1 -0 -0
vn -0.2335 0.3032 -0.9239
vn -0.5638 0.7319 -0.3827
vn -0.2335 0.3032 0.9239
vn 0.5638 -0.7319 0.3827
vn -0.5638 0.7319 0.3827
vn 0.5638 -0.7319 -0.3827
vn 0.7922 0.6103 -0
vn 0.4834 -0.0833 -0.8714
vn 0.7949 -0.4877 -0.361
vn 0.7949 -0.4877 0.361
vn 0.4834 -0.0833 0.8714
vn 0.0428 0.4886 0.8714
vn -0.2687 0.893 0.361
vn -0.2687 0.893 -0.361
vn 0.0428 0.4886 -0.8714
vn 0.2335 -0.3032 -0.9239
vn -0 -0 -1
vn 1 -0 -0
vn -0 -0 1
vn -0 -1 -0
vn -0 1 -0
vn 0.0712 -0.3723 -0.9254
vn 0.0309 -0.9195 -0.3919
vn -0.0318 -0.9195 0.3918
vn -0.0768 -0.3726 0.9248
vn -0.0768 0.3726 0.9248
vn -0.0318 0.9195 0.3918
vn 0.0309 0.9195 -0.3919
vn 0.0712 0.3723 -0.9254
vn 0.1362 0.8998 -0.4144
vn 0.4984 0.8608 -0.1035
vn 0.6526 -0.7377 0.173
vn -0.9451 0.2947 0.1414
vn 0.8896 0.3294 -0.3164
vn 0.959 -0.2762 -0.063
vn -0.1456 -0.9019 0.4067
vn -0.6384 0.7551 -0.1491
vn -0.8644 -0.3384 0.3718
vn -0.8998 0.2764 -0.3377
vn -0.4968 -0.8625 0.0966
vn 0.8984 -0.276 0.3417
vn 0.9425 0.2753 0.1896
vn -0.4606 0.8119 -0.3587
vn -0.94 -0.2764 -0.1998
vn 0.4566 -0.8098 0.3684
vn 0.5307 0.4681 0.7066
vn 0.3568 -0.2653 0.8957
vn 0.3899 0.9149 0.1049
vn -0.5307 -0.4681 -0.7066
vn -0.3568 0.2653 -0.8957
vn -0.3899 -0.9149 -0.1049
vn 0.0274 0.8341 -0.551
vn -0.0274 -0.8341 0.551
vn 0.1417 -0.8697 0.4727
vn 0.0334 -0.4827 -0.8752
vn -0.4389 -0.4835 -0.7574
vn -0.1417 0.8697 -0.4727
vn 0.4389 0.4835 0.7574
vn 0.4105 -0.2733 0.8699
vn -0.2101 -0.9568 -0.2012
vn -0.4105 0.2733 -0.8699
vn 0.2101 0.9568 0.2012
vn 0.8847 -0.1257 -0.4489
vn -0.0193 -0.191 0.9814
vn 0.0193 0.191 -0.9814
vn 0.0079 -0.844 0.5363
vn -0.0334 0.4827 0.8752
vn 0.0312 -0.95 -0.3108
vn -0.0312 0.95 0.3108
vn -0.0079 0.844 -0.5363
vn 0.3513 0.6872 0.6359
vn -0.3837 -0.9234 -0
vn 0.3513 0.6872 -0.6359
vn -0.7003 0.2922 0.6513
vn 0.9056 -0.4241 -0
vn -0.7003 0.2922 -0.6513
vn 0.1956 -0.7302 0.6547
vn -0.2588 0.9659 -0
vn 0.1956 -0.7302 -0.6547
vt 0.699678 0.524431
vt 0.699678 0.699678
vt 0.655866 0.524431
vt 0.655866 0.699678
vt 0.612054 0.524431
vt 0.612054 0.699678
vt 0.568243 0.699678
vt 0.568243 0.524431
vt 0.524431 0.699678
vt 0.524431 0.524431
vt 0.480619 0.699678
vt 0.480619 0.524431
vt 0.436807 0.699678
vt 0.436807 0.524431
vt 0.392995 0.524431
vt 0.392995 0.699678
vt 0.349183 0.524431
vt 0.349183 0.699678
vt 0.049093 0.090111
vt 0.06656 0.097347
vt 0.084027 0.090111
vt 0.041858 0.072644
vt 0.049093 0.055177
vt 0.06656 0.047942
vt 0.084027 0.055177
vt 0.091262 0.072644
vt 0.044529 0.030865
vt 0.040527 0.040527
vt 0.030865 0.044529
vt 0.040527 0.021203
vt 0.030865 0.017201
vt 0.021203 0.021203
vt 0.017201 0.030865
vt 0.021203 0.040527
vt 0.052062 0.052062
vt 0.030865 0.060842
vt 0.060842 0.030865
vt 0.052062 0.009669
vt 0.030865 0.000889
vt 0.009669 0.009669
vt 0.000889 0.030865
vt 0.009669 0.052062
vt 0.173657 0.000517
vt 0.346926 0.000517
vt 0.346926 0.173786
vt 0.173657 0.173786
vt 0.346926 0.347055
vt 0.173657 0.347055
vt 0.346926 0.520325
vt 0.173657 0.520325
vt 0.346926 0.693594
vt 0.173657 0.693594
vt 0.000387 0.347055
vt 0.000387 0.520325
vt 0.520196 0.347055
vt 0.520196 0.520325
vt 0.99983 0.001385
vt 0.99983 0.326517
vt 0.918547 0.326517
vt 0.918547 0.001385
vt 0.837264 0.326517
vt 0.837264 0.001385
vt 0.755981 0.326517
vt 0.755981 0.001385
vt 0.674698 0.326517
vt 0.674698 0.001385
vt 0.593415 0.001385
vt 0.593415 0.326517
vt 0.512133 0.001385
vt 0.512133 0.326517
vt 0.111543 0.025999
vt 0.104308 0.043466
vt 0.086841 0.050701
vt 0.104308 0.008532
vt 0.086841 0.001297
vt 0.069374 0.008532
vt 0.062139 0.025999
vt 0.069374 0.043466
vt 0.43085 0.001385
vt 0.43085 0.326517
vt 0.349567 0.001385
vt 0.349567 0.326517
vt 0.156005 0.849599
vt 0.233226 0.849599
vt 0.156005 0.92682
vt 0.233226 0.92682
vt 0.156005 0.695156
vt 0.233226 0.695156
vt 0.233226 0.772377
vt 0.156005 0.772377
vt 0.001561 0.849599
vt 0.078783 0.849599
vt 0.078783 0.92682
vt 0.001561 0.92682
vt 0.001561 0.695156
vt 0.078783 0.695156
vt 0.078783 0.772377
vt 0.001561 0.772377
usemtl 
f 1/1/1 2/2/1 3/3/1
f 2/2/1 4/4/1 3/3/1
f 3/3/2 4/4/2 5/5/2
f 4/4/2 6/6/2 5/5/2
f 5/5/3 6/6/3 7/7/3
f 5/5/3 7/7/3 8/8/3
f 8/8/4 7/7/4 9/9/4
f 8/8/4 9/9/4 10/10/4
f 10/10/5 9/9/5 11/11/5
f 10/10/5 11/11/5 12/12/5
f 12/12/6 11/11/6 13/13/6
f 12/12/6 13/13/6 14/14/6
f 9/9/7 7/7/7 15/7/7
f 9/9/7 15/7/7 16/9/7
f 14/14/8 13/13/8 17/15/8
f 13/13/8 18/16/8 17/15/8
f 17/15/9 18/16/9 1/17/9
f 18/16/9 2/18/9 1/17/9
f 17/19/10 1/20/10 3/21/10
f 14/22/10 17/19/10 3/21/10
f 12/23/10 14/22/10 3/21/10
f 10/24/10 12/23/10 3/21/10
f 8/25/10 10/24/10 3/21/10
f 5/26/10 8/25/10 3/21/10
f 2/18/11 18/16/11 19/18/11
f 18/16/11 20/16/11 19/18/11
f 18/16/12 13/13/12 21/13/12
f 18/16/12 21/13/12 20/16/12
f 11/11/13 9/9/13 16/9/13
f 11/11/13 16/9/13 22/11/13
f 7/7/14 6/6/14 15/7/14
f 6/6/14 23/6/14 15/7/14
f 13/13/15 11/11/15 21/13/15
f 11/11/15 22/11/15 21/13/15
f 6/6/16 4/4/16 24/4/16
f 6/6/16 24/4/16 23/6/16
f 25/27/17 26/28/17 27/29/17
f 28/30/17 25/27/17 27/29/17
f 29/31/17 28/30/17 27/29/17
f 30/32/17 29/31/17 27/29/17
f 31/33/17 30/32/17 27/29/17
f 32/34/17 31/33/17 27/29/17
f 24/35/18 19/36/18 26/28/18
f 19/36/18 27/29/18 26/28/18
f 23/37/19 24/35/19 25/27/19
f 24/35/19 26/28/19 25/27/19
f 15/38/20 23/37/20 25/27/20
f 15/38/20 25/27/20 28/30/20
f 16/39/21 15/38/21 28/30/21
f 16/39/21 28/30/21 29/31/21
f 22/40/22 16/39/22 29/31/22
f 22/40/22 29/31/22 30/32/22
f 21/41/23 22/40/23 31/33/23
f 22/40/23 30/32/23 31/33/23
f 20/42/24 21/41/24 31/33/24
f 20/42/24 31/33/24 32/34/24
f 19/36/25 20/42/25 27/29/25
f 20/42/25 32/34/25 27/29/25
f 4/4/26 2/2/26 19/2/26
f 4/4/26 19/2/26 24/4/26
f 33/43/10 34/44/10 35/45/10
f 33/43/10 35/45/10 36/46/10
f 36/46/27 35/45/27 37/47/27
f 36/46/27 37/47/27 38/48/27
f 38/48/28 37/47/28 39/49/28
f 38/48/28 39/49/28 40/50/28
f 40/50/29 39/49/29 34/51/29
f 40/50/29 34/51/29 33/52/29
f 36/53/30 38/48/30 40/50/30
f 36/53/30 40/50/30 33/54/30
f 37/47/31 35/55/31 34/56/31
f 37/47/31 34/56/31 39/49/31
f 41/57/32 42/58/32 43/59/32
f 41/57/32 43/59/32 44/60/32
f 44/60/33 43/59/33 45/61/33
f 44/60/33 45/61/33 46/62/33
f 46/62/34 45/61/34 47/63/34
f 46/62/34 47/63/34 48/64/34
f 48/64/35 47/63/35 49/65/35
f 48/64/35 49/65/35 50/66/35
f 50/66/36 49/65/36 51/67/36
f 49/65/36 52/68/36 51/67/36
f 51/67/37 52/68/37 53/69/37
f 52/68/37 54/70/37 53/69/37
f 45/71/28 43/72/28 42/73/28
f 47/74/28 45/71/28 42/73/28
f 49/75/28 47/74/28 42/73/28
f 52/76/28 49/75/28 42/73/28
f 54/77/28 52/76/28 42/73/28
f 55/78/28 54/77/28 42/73/28
f 53/69/38 54/70/38 56/79/38
f 54/70/38 55/80/38 56/79/38
f 56/79/39 55/80/39 41/81/39
f 55/80/39 42/82/39 41/81/39
f 53/69/40 56/79/40 57/69/40
f 56/79/40 58/79/40 57/69/40
f 57/69/41 58/79/41 59/69/41
f 58/79/41 60/79/41 59/69/41
f 44/60/42 46/62/42 61/62/42
f 44/60/42 61/62/42 62/60/42
f 50/66/43 51/67/43 63/67/43
f 50/66/43 63/67/43 64/66/43
f 56/79/44 41/81/44 58/79/44
f 41/81/44 65/81/44 58/79/44
f 41/57/45 44/60/45 65/57/45
f 44/60/45 62/60/45 65/57/45
f 46/62/46 48/64/46 66/64/46
f 46/62/46 66/64/46 61/62/46
f 51/67/47 53/69/47 63/67/47
f 53/69/47 57/69/47 63/67/47
f 48/64/48 50/66/48 64/66/48
f 48/64/48 64/66/48 66/64/48
f 64/66/49 63/67/49 67/67/49
f 64/66/49 67/67/49 68/66/49
f 61/62/50 66/64/50 69/64/50
f 61/62/50 69/64/50 70/62/50
f 65/57/51 62/60/51 71/57/51
f 62/60/51 72/60/51 71/57/51
f 58/79/52 65/81/52 60/79/52
f 65/81/52 71/81/52 60/79/52
f 63/67/53 57/69/53 59/69/53
f 63/67/53 59/69/53 67/67/53
f 66/64/54 64/66/54 68/66/54
f 66/64/54 68/66/54 69/64/54
f 62/60/55 61/62/55 72/60/55
f 61/62/55 70/62/55 72/60/55
f 60/79/56 71/81/56 73/79/56
f 71/81/56 74/81/56 73/79/56
f 71/57/57 72/60/57 74/57/57
f 72/60/57 75/60/57 74/57/57
f 59/69/58 60/79/58 73/79/58
f 59/69/58 73/79/58 76/69/58
f 69/64/59 68/66/59 77/66/59
f 69/64/59 77/66/59 78/64/59
f 68/66/60 67/67/60 79/67/60
f 68/66/60 79/67/60 77/66/60
f 70/62/61 69/64/61 80/62/61
f 69/64/61 78/64/61 80/62/61
f 67/67/62 59/69/62 76/69/62
f 67/67/62 76/69/62 79/67/62
f 72/60/63 70/62/63 75/60/63
f 70/62/63 80/62/63 75/60/63
f 75/60/64 80/62/64 81/60/64
f 80/62/64 82/62/64 81/60/64
f 83/64/65 84/66/65 85/66/65
f 83/64/65 85/66/65 86/64/65
f 78/64/66 77/66/66 84/66/66
f 78/64/66 84/66/66 83/64/66
f 79/67/67 76/69/67 87/69/67
f 79/67/67 87/69/67 88/67/67
f 73/79/68 74/81/68 89/79/68
f 74/81/68 90/81/68 89/79/68
f 74/57/69 75/60/69 90/57/69
f 75/60/69 81/60/69 90/57/69
f 80/62/70 78/64/70 82/62/70
f 78/64/70 83/64/70 82/62/70
f 77/66/71 79/67/71 88/67/71
f 77/66/71 88/67/71 84/66/71
f 76/69/72 73/79/72 87/69/72
f 73/79/72 89/79/72 87/69/72
f 91/57/73 92/60/73 93/62/73
f 94/79/73 91/57/73 93/62/73
f 95/69/73 94/79/73 93/62/73
f 96/67/73 95/69/73 93/62/73
f 85/66/73 96/67/73 93/62/73
f 86/64/73 85/66/73 93/62/73
f 90/57/74 81/60/74 92/60/74
f 90/57/74 92/60/74 91/57/74
f 84/66/75 88/67/75 96/67/75
f 84/66/75 96/67/75 85/66/75
f 81/60/76 82/62/76 93/62/76
f 81/60/76 93/62/76 92/60/76
f 89/79/77 90/81/77 94/79/77
f 90/81/77 91/81/77 94/79/77
f 82/62/78 83/64/78 86/64/78
f 82/62/78 86/64/78 93/62/78
f 87/69/79 89/79/79 95/69/79
f 89/79/79 94/79/79 95/69/79
f 88/67/80 87/69/80 95/69/80
f 88/67/80 95/69/80 96/67/80
f 97/83/81 98/84/81 99/85/81
f 98/84/81 100/86/81 99/85/81
f 99/87/82 100/88/82 101/89/82
f 99/87/82 101/89/82 102/90/82
f 102/90/83 101/89/83 98/84/83
f 102/90/83 98/84/83 97/83/83
f 98/91/84 103/92/84 104/93/84
f 98/91/84 104/93/84 100/94/84
f 100/95/85 104/96/85 105/97/85
f 100/95/85 105/97/85 101/98/85
f 101/98/86 105/97/86 98/91/86
f 105/97/86 103/92/86 98/91/86
f 103/92/87 97/83/87 99/85/87
f 103/92/87 99/85/87 104/93/87
f 104/96/88 99/87/88 102/90/88
f 104/96/88 102/90/88 105/97/88
f 105/97/89 102/90/89 97/83/89
f 105/97/89 97/83/89 103/92/89
s off
