# Apple ModelIO OBJ File: logmushie3
mtllib logmushie3.mtl
g mushroom3
v -2.1196 1.02112 1.72727
v -2.1196 1.02998 1.72727
v -2.03923 1.02998 1.71129
v -2.03923 1.02112 1.71129
v -1.89074 1.02112 1.7728
v -1.89074 1.02998 1.7728
v -1.84522 1.02998 1.84092
v -1.84522 1.02112 1.84092
v -1.82923 1.02998 1.92129
v -1.82923 1.02112 1.92129
v -1.84522 1.02998 2.00165
v -1.84522 1.02112 2.00165
v -1.89074 1.02998 2.06978
v -1.89074 1.02112 2.06978
v -1.95887 1.02998 2.1153
v -1.95887 1.02112 2.1153
v -2.03923 1.02998 2.13129
v -2.03923 1.02112 2.13129
v -2.1196 1.02998 2.1153
v -2.1196 1.02112 2.1153
v -2.18773 1.02998 2.06978
v -2.18773 1.02112 2.06978
v -2.23325 1.02998 2.00165
v -2.23325 1.02112 2.00165
v -2.24923 1.02998 1.92129
v -2.24923 1.02112 1.92129
v -2.23325 1.02998 1.84092
v -2.23325 1.02112 1.84092
v -2.18773 1.02998 1.7728
v -2.18773 1.02112 1.7728
v -1.96239 1.15533 1.84445
v -1.99765 1.15533 1.82089
v -2.03923 1.15533 1.81262
v -1.93884 1.15533 1.8797
v -1.93057 1.15533 1.92129
v -1.93884 1.15533 1.96287
v -1.96239 1.15533 1.99813
v -1.99765 1.15533 2.02168
v -2.03923 1.15533 2.02995
v -2.08082 1.15533 2.02168
v -2.11607 1.15533 1.99813
v -2.13963 1.15533 1.96287
v -2.1479 1.15533 1.92129
v -2.13963 1.15533 1.8797
v -2.11607 1.15533 1.84445
v -2.08082 1.15533 1.82089
v -1.95887 1.02112 1.72727
v -1.95887 1.02998 1.72727
v -2.03923 1.1167 1.75749
v -1.97655 1.1167 1.76996
v -1.92341 1.1167 1.80546
v -1.8879 1.1167 1.85861
v -1.87543 1.1167 1.92129
v -1.8879 1.1167 1.98397
v -1.92341 1.1167 2.03711
v -1.97655 1.1167 2.07262
v -2.03923 1.1167 2.08509
v -2.10192 1.1167 2.07262
v -2.15506 1.1167 2.03711
v -2.19056 1.1167 1.98397
v -2.20303 1.1167 1.92129
v -2.19056 1.1167 1.85861
v -2.15506 1.1167 1.80546
v -2.10192 1.1167 1.76996
v -2.03923 0.999386 1.73345
v -1.96735 0.999386 1.74775
v -1.90641 0.999387 1.78847
v -1.86569 0.999386 1.84941
v -1.8514 0.999386 1.92129
v -1.86569 0.999386 1.99317
v -1.90641 0.999386 2.05411
v -1.96735 0.999386 2.09483
v -2.03923 0.999386 2.10912
v -2.11111 0.999386 2.09483
v -2.17205 0.999386 2.05411
v -2.21277 0.999386 1.99317
v -2.22707 0.999386 1.92129
v -2.21277 0.999386 1.84941
v -2.17205 0.999386 1.78847
v -2.11111 0.999386 1.74775
vn -0.1951 -0 -0.9808
vn 0.8315 -0 -0.5556
vn 0.9808 -0 -0.1951
vn 0.9808 -0 0.1951
vn 0.8315 -0 0.5556
vn 0.5556 -0 0.8315
vn 0.1951 -0 0.9808
vn -0.1951 -0 0.9808
vn -0.5556 -0 0.8315
vn -0.8315 -0 0.5556
vn -0.9808 -0 0.1951
vn -0.9808 -0 -0.1951
vn -0.8315 -0 -0.5556
vn -0.5556 -0 -0.8315
vn -0 1 -0
vn 0.5556 -0 -0.8315
vn 0.1951 -0 -0.9808
vn 0.1729 0.4631 -0.8693
vn 0.4924 0.4631 -0.7369
vn 0.7369 0.4631 -0.4924
vn 0.8693 0.4631 -0.1729
vn 0.8693 0.4631 0.1729
vn 0.7369 0.4631 0.4924
vn 0.4924 0.4631 0.7369
vn 0.1729 0.4631 0.8693
vn -0.1729 0.4631 0.8693
vn -0.4924 0.4631 0.7369
vn -0.7369 0.4631 0.4924
vn -0.8693 0.4631 0.1729
vn -0.8693 0.4631 -0.1729
vn -0.7369 0.4631 -0.4924
vn -0.4924 0.4631 -0.7369
vn -0.1729 0.4631 -0.8693
vn 0.1134 0.8137 -0.5701
vn 0.323 0.8137 -0.4833
vn 0.4833 0.8137 -0.323
vn 0.5701 0.8137 -0.1134
vn 0.5701 0.8137 0.1134
vn 0.4833 0.8137 0.323
vn 0.323 0.8137 0.4833
vn 0.1134 0.8137 0.5701
vn -0.1134 0.8137 0.5701
vn -0.323 0.8137 0.4833
vn -0.4833 0.8137 0.323
vn -0.5701 0.8137 0.1134
vn -0.5701 0.8137 -0.1134
vn -0.4833 0.8137 -0.323
vn -0.323 0.8137 -0.4833
vn -0.1134 0.8137 -0.5701
vn 0.138 -0.7071 -0.6935
vn 0.3928 -0.7071 -0.5879
vn 0.5879 -0.7071 -0.3928
vn 0.6935 -0.7071 -0.1379
vn 0.6935 -0.7071 0.1379
vn 0.5879 -0.7071 0.3928
vn 0.3928 -0.7071 0.5879
vn 0.138 -0.7071 0.6935
vn -0.138 -0.7071 0.6935
vn -0.3928 -0.7071 0.5879
vn -0.5879 -0.7071 0.3928
vn -0.6935 -0.7071 0.1379
vn -0.6935 -0.7071 -0.1379
vn -0.5879 -0.7071 -0.3928
vn -0.3928 -0.7071 -0.5879
vn -0.138 -0.7071 -0.6935
vn -0 -1 -0
vt 0.027129 0.829976
vt 0.027129 0.890705
vt 0.00091 0.890705
vt 0.00091 0.829975
vt 0.367984 0.829975
vt 0.367984 0.890705
vt 0.341765 0.890705
vt 0.341765 0.829976
vt 0.315545 0.890705
vt 0.315545 0.829976
vt 0.289326 0.890705
vt 0.289326 0.829976
vt 0.263106 0.890705
vt 0.263106 0.829976
vt 0.236886 0.890705
vt 0.236886 0.829976
vt 0.210667 0.890705
vt 0.210667 0.829975
vt 0.184447 0.890705
vt 0.184447 0.829976
vt 0.158227 0.890705
vt 0.158227 0.829976
vt 0.132008 0.890705
vt 0.132008 0.829976
vt 0.105788 0.890705
vt 0.105788 0.829976
vt 0.079568 0.890705
vt 0.079568 0.829975
vt 0.053349 0.890705
vt 0.053349 0.829975
vt 0.464181 0.464181
vt 0.407271 0.502208
vt 0.34014 0.51556
vt 0.502208 0.407271
vt 0.515561 0.34014
vt 0.502207 0.27301
vt 0.464181 0.216099
vt 0.407271 0.178073
vt 0.34014 0.16472
vt 0.27301 0.178073
vt 0.216099 0.216099
vt 0.178073 0.27301
vt 0.16472 0.34014
vt 0.178073 0.407271
vt 0.216099 0.464181
vt 0.27301 0.502207
vt 0.394204 0.829976
vt 0.394204 0.890705
vt 0.420424 0.829976
vt 0.420424 0.890705
vt 0.34014 0.604563
vt 0.441331 0.584435
vt 0.469872 0.653341
vt 0.34014 0.679146
vt 0.527116 0.527116
vt 0.579854 0.579853
vt 0.584435 0.441331
vt 0.653341 0.469872
vt 0.604563 0.34014
vt 0.679146 0.34014
vt 0.584435 0.23895
vt 0.653341 0.210408
vt 0.527116 0.153165
vt 0.579854 0.100427
vt 0.441331 0.095845
vt 0.469872 0.02694
vt 0.34014 0.075717
vt 0.34014 0.001134
vt 0.23895 0.095845
vt 0.210408 0.02694
vt 0.153165 0.153165
vt 0.100427 0.100427
vt 0.095845 0.23895
vt 0.02694 0.210408
vt 0.075717 0.34014
vt 0.001134 0.34014
vt 0.095845 0.441331
vt 0.02694 0.469872
vt 0.153165 0.527115
vt 0.100427 0.579853
vt 0.23895 0.584435
vt 0.210408 0.653341
vt 0.41904 0.680948
vt 0.395588 0.680948
vt 0.369368 0.680948
vt 0.39282 0.680948
vt 0.366601 0.680948
vt 0.343148 0.680948
vt 0.316929 0.680948
vt 0.340381 0.680948
vt 0.314162 0.680948
vt 0.290709 0.680948
vt 0.264489 0.680948
vt 0.287942 0.680948
vt 0.261722 0.680948
vt 0.23827 0.680948
vt 0.21205 0.680948
vt 0.235503 0.680948
vt 0.185831 0.680948
vt 0.209283 0.680948
vt 0.183063 0.680948
vt 0.159611 0.680948
vt 0.133391 0.680948
vt 0.156844 0.680948
vt 0.130624 0.680948
vt 0.107172 0.680948
vt 0.080952 0.680948
vt 0.104405 0.680948
vt 0.054732 0.680948
vt 0.078185 0.680948
vt 0.051965 0.680948
vt 0.028513 0.680948
vt 0.002293 0.680948
vt 0.025746 0.680948
vt 0.659765 0.981205
vt 0.753518 0.999854
vt 0.847271 0.981205
vt 0.580285 0.928098
vt 0.527178 0.848618
vt 0.50853 0.754865
vt 0.527178 0.661112
vt 0.580285 0.581632
vt 0.659765 0.528525
vt 0.753518 0.509877
vt 0.847271 0.528525
vt 0.926751 0.581632
vt 0.979857 0.661112
vt 0.998506 0.754865
vt 0.979857 0.848618
vt 0.926751 0.928098
usemtl 
f 1/1/1 2/2/1 3/3/1
f 1/1/1 3/3/1 4/4/1
f 5/5/2 6/6/2 7/7/2
f 5/5/2 7/7/2 8/8/2
f 8/8/3 7/7/3 9/9/3
f 8/8/3 9/9/3 10/10/3
f 10/10/4 9/9/4 11/11/4
f 10/10/4 11/11/4 12/12/4
f 12/12/5 11/11/5 13/13/5
f 12/12/5 13/13/5 14/14/5
f 14/14/6 13/13/6 15/15/6
f 14/14/6 15/15/6 16/16/6
f 16/16/7 15/15/7 17/17/7
f 16/16/7 17/17/7 18/18/7
f 18/18/8 17/17/8 19/19/8
f 18/18/8 19/19/8 20/20/8
f 20/20/9 19/19/9 21/21/9
f 20/20/9 21/21/9 22/22/9
f 22/22/10 21/21/10 23/23/10
f 22/22/10 23/23/10 24/24/10
f 24/24/11 23/23/11 25/25/11
f 24/24/11 25/25/11 26/26/11
f 26/26/12 25/25/12 27/27/12
f 26/26/12 27/27/12 28/28/12
f 28/28/13 27/27/13 29/29/13
f 28/28/13 29/29/13 30/30/13
f 30/30/14 29/29/14 2/2/14
f 30/30/14 2/2/14 1/1/14
f 31/31/15 32/32/15 33/33/15
f 34/34/15 31/31/15 33/33/15
f 35/35/15 34/34/15 33/33/15
f 36/36/15 35/35/15 33/33/15
f 37/37/15 36/36/15 33/33/15
f 38/38/15 37/37/15 33/33/15
f 39/39/15 38/38/15 33/33/15
f 40/40/15 39/39/15 33/33/15
f 41/41/15 40/40/15 33/33/15
f 42/42/15 41/41/15 33/33/15
f 43/43/15 42/42/15 33/33/15
f 44/44/15 43/43/15 33/33/15
f 45/45/15 44/44/15 33/33/15
f 46/46/15 45/45/15 33/33/15
f 47/47/16 48/48/16 6/6/16
f 47/47/16 6/6/16 5/5/16
f 4/49/17 3/50/17 48/48/17
f 4/49/17 48/48/17 47/47/17
f 49/51/18 50/52/18 48/53/18
f 49/51/18 48/53/18 3/54/18
f 50/52/19 51/55/19 48/53/19
f 51/55/19 6/56/19 48/53/19
f 51/55/20 52/57/20 6/56/20
f 52/57/20 7/58/20 6/56/20
f 52/57/21 53/59/21 7/58/21
f 53/59/21 9/60/21 7/58/21
f 53/59/22 54/61/22 11/62/22
f 53/59/22 11/62/22 9/60/22
f 54/61/23 55/63/23 11/62/23
f 55/63/23 13/64/23 11/62/23
f 55/63/24 56/65/24 13/64/24
f 56/65/24 15/66/24 13/64/24
f 56/65/25 57/67/25 17/68/25
f 56/65/25 17/68/25 15/66/25
f 57/67/26 58/69/26 17/68/26
f 58/69/26 19/70/26 17/68/26
f 58/69/27 59/71/27 21/72/27
f 58/69/27 21/72/27 19/70/27
f 59/71/28 60/73/28 21/72/28
f 60/73/28 23/74/28 21/72/28
f 60/73/29 61/75/29 25/76/29
f 60/73/29 25/76/29 23/74/29
f 61/75/30 62/77/30 25/76/30
f 62/77/30 27/78/30 25/76/30
f 62/77/31 63/79/31 27/78/31
f 63/79/31 29/80/31 27/78/31
f 63/79/32 64/81/32 2/82/32
f 63/79/32 2/82/32 29/80/32
f 64/81/33 49/51/33 3/54/33
f 64/81/33 3/54/33 2/82/33
f 33/33/34 32/32/34 49/51/34
f 32/32/34 50/52/34 49/51/34
f 32/32/35 31/31/35 51/55/35
f 32/32/35 51/55/35 50/52/35
f 31/31/36 34/34/36 52/57/36
f 31/31/36 52/57/36 51/55/36
f 34/34/37 35/35/37 53/59/37
f 34/34/37 53/59/37 52/57/37
f 35/35/38 36/36/38 53/59/38
f 36/36/38 54/61/38 53/59/38
f 36/36/39 37/37/39 54/61/39
f 37/37/39 55/63/39 54/61/39
f 37/37/40 38/38/40 56/65/40
f 37/37/40 56/65/40 55/63/40
f 38/38/41 39/39/41 56/65/41
f 39/39/41 57/67/41 56/65/41
f 39/39/42 40/40/42 58/69/42
f 39/39/42 58/69/42 57/67/42
f 40/40/43 41/41/43 58/69/43
f 41/41/43 59/71/43 58/69/43
f 41/41/44 42/42/44 59/71/44
f 42/42/44 60/73/44 59/71/44
f 42/42/45 43/43/45 61/75/45
f 42/42/45 61/75/45 60/73/45
f 43/43/46 44/44/46 61/75/46
f 44/44/46 62/77/46 61/75/46
f 44/44/47 45/45/47 63/79/47
f 44/44/47 63/79/47 62/77/47
f 45/45/48 46/46/48 63/79/48
f 46/46/48 64/81/48 63/79/48
f 46/46/49 33/33/49 49/51/49
f 46/46/49 49/51/49 64/81/49
f 4/49/50 47/47/50 65/83/50
f 47/47/50 66/84/50 65/83/50
f 47/47/51 5/5/51 67/85/51
f 47/47/51 67/85/51 66/86/51
f 5/5/52 8/8/52 67/87/52
f 8/8/52 68/88/52 67/87/52
f 8/8/53 10/10/53 69/89/53
f 8/8/53 69/89/53 68/90/53
f 10/10/54 12/12/54 69/91/54
f 12/12/54 70/92/54 69/91/54
f 12/12/55 14/14/55 71/93/55
f 12/12/55 71/93/55 70/94/55
f 14/14/56 16/16/56 71/95/56
f 16/16/56 72/96/56 71/95/56
f 16/16/57 18/18/57 73/97/57
f 16/16/57 73/97/57 72/98/57
f 18/18/58 20/20/58 74/99/58
f 18/18/58 74/99/58 73/100/58
f 20/20/59 22/22/59 74/101/59
f 22/22/59 75/102/59 74/101/59
f 22/22/60 24/24/60 76/103/60
f 22/22/60 76/103/60 75/104/60
f 24/24/61 26/26/61 76/105/61
f 26/26/61 77/106/61 76/105/61
f 26/26/62 28/28/62 78/107/62
f 26/26/62 78/107/62 77/108/62
f 28/28/63 30/30/63 79/109/63
f 28/28/63 79/109/63 78/110/63
f 30/30/64 1/1/64 79/111/64
f 1/1/64 80/112/64 79/111/64
f 1/1/65 4/4/65 65/113/65
f 1/1/65 65/113/65 80/114/65
f 80/115/66 65/116/66 66/117/66
f 79/118/66 80/115/66 66/117/66
f 78/119/66 79/118/66 66/117/66
f 77/120/66 78/119/66 66/117/66
f 76/121/66 77/120/66 66/117/66
f 75/122/66 76/121/66 66/117/66
f 74/123/66 75/122/66 66/117/66
f 73/124/66 74/123/66 66/117/66
f 72/125/66 73/124/66 66/117/66
f 71/126/66 72/125/66 66/117/66
f 70/127/66 71/126/66 66/117/66
f 69/128/66 70/127/66 66/117/66
f 68/129/66 69/128/66 66/117/66
f 67/130/66 68/129/66 66/117/66
s off
