# Apple ModelIO OBJ File: fields
mtllib fields.mtl
g fields
v 1.07153 0.265667 2.60375
v 1.6595 0.630505 2.65622
v 1.20332 0.630505 3.17916
v 0.564993 0.630505 2.9069
v 0.443168 0.598834 2.21504
v 0.626689 0.630505 2.21569
v 1.09097 0.079998 -2.45923
v 1.03965 0.630495 -2.8844
v 1.14943 1.13539 3.0655
v 0.789382 0.981521 3.23327
v 0.706893 1.20612 2.4965
v 0.757893 1.33217 1.5233
v 0.902953 1.02218 -2.8077
v 1.57806 1.22083 2.3006
v 1.48082 1.36967 0.785447
v 1.65749 1.30715 -1.9447
v 2.07246 0.630495 -2.44386
v 1.08636 1.45924 2.64855
v 1.99591 1.33278 -2.52881
v 1.71609 0.630495 -3.03932
v 1.47669 1.09669 -2.98662
v -2.51642 0.44787 2.50084
v -2.19155 0.630505 2.40247
v -2.37508 0.969718 2.90456
v -3.0312 0.611034 2.24069
v -3.22436 0.630505 1.96194
v -2.44568 0.444833 2.55751
v -2.36657 0.265657 -2.15503
v -2.90266 1.00484 -2.0198
v -2.32821 1.17623 2.71591
v -2.59183 1.07167 2.51572
v -2.70658 1.32004 1.92493
v -2.72387 1.17146 0.956356
v -2.75003 1.44643 -2.16399
v -2.28011 1.18819 2.01411
v -2.53443 1.22224 1.11787
v -2.36657 1.58566 -2.27727
v -1.77859 0.630495 -2.50388
v -2.5777 1.2897 2.15917
v -2.15695 0.954802 0.816095
v -1.81215 1.0123 -3.05314
v -2.13496 0.630495 -2.47264
v -2.39827 1.10882 -2.61959
v -1.44714 0.265667 2.35
v -0.859163 0.630505 2.40247
v -1.31535 0.630505 2.92541
v -1.95367 0.630505 2.65315
v -1.89198 0.630505 1.96194
v -1.03418 0.265657 -2.71768
v -1.47902 0.630495 -3.10574
v -1.26036 1.12323 2.7005
v -1.67875 1.22083 2.89298
v -1.60759 1.19463 1.44958
v -1.57813 1.24506 -0.064751
v -1.70831 1.17702 -2.77015
v -1.17526 1.01571 1.56208
v -1.39158 1.53298 -0.199285
v -1.03418 1.58566 -2.71768
v -0.546083 0.630495 -2.66521
v -1.44627 1.40696 1.63853
v -1.06657 1.23622 0.366021
v -0.627527 1.22082 -3.02083
v -0.902455 0.630495 -3.26066
v -1.16597 1.22082 -3.29309
v -0.258317 0.265667 2.90262
v 0.32966 0.630505 2.95509
v -0.126526 0.630505 3.47803
v -0.76485 0.630505 3.20577
v -0.703153 0.630505 2.51456
v -0.290195 0.630495 -3.2469
v 0.154641 0.265657 -2.85884
v -0.008368 1.11765 3.33826
v -0.350867 1.11896 3.32649
v -0.52985 1.20627 2.36191
v -0.572363 1.24278 1.48739
v -0.513325 1.06894 -2.99155
v 0.252035 1.10691 2.68672
v -0.008911 1.3782 -0.289542
v 0.188809 1.60679 -1.71697
v 0.742618 0.630495 -2.80636
v -0.038617 1.46057 2.1419
v 0.494729 1.04236 1.8802
v 0.587924 1.23638 -3.17557
v 0.386246 0.630495 -3.40182
v 0.022851 1.22082 -3.43425
v 2.33652 0.338631 1.90407
v 2.80473 0.833122 1.95548
v 2.33197 0.954155 2.43308
v 1.82998 0.703469 2.20723
v 1.89168 0.703469 1.51601
v 2.74947 0.338621 -1.54714
v 2.30464 0.70346 -1.9352
v 2.44442 1.18595 2.4244
v 2.02989 1.33897 2.43496
v 1.91127 1.23442 1.86146
v 2.06951 1.15807 0.89991
v 2.0271 1.08111 -1.28687
v 2.95615 1.24103 1.55395
v 2.33652 1.65863 1.90407
v 2.3816 1.41961 -1.16298
v 2.79435 0.800708 1.97452
v 3.1613 0.823813 -1.20939
v 2.95235 1.17651 0.520095
v 3.12189 1.1362 -1.27506
v 2.87242 0.751905 -1.87709
v 2.61768 1.29378 -2.12256
vn 0.4575 -0.7947 0.3991
vn -0.2382 -0.7947 0.5584
vn -0.5265 -0.84 0.1312
vn -0.8682 -0.4954 -0.0279
vn 0.7346 0.2227 0.6409
vn -0.3358 -0.5173 0.7872
vn -0.9304 0.3352 0.1485
vn -0.9976 -0.0376 -0.0578
vn 0.7806 0.398 0.4819
vn 0.3236 0.2406 0.9151
vn -0.9013 0.3758 0.2155
vn -0.2079 0.9762 -0.061
vn 0.5022 -0.8639 0.0372
vn 0.6193 0.6627 0.4211
vn -0.048 0.7853 0.6172
vn -0.609 0.7371 0.2929
vn 0.9852 0.1491 0.0841
vn 0.2242 0.9742 0.024
vn -0 1 -0
vn 0.1155 -0.6542 -0.7475
vn -0.9545 0.2273 -0.1933
vn 0.4678 0.882 0.0566
vn -0.2697 0.9625 -0.03
vn 0.4726 -0.8347 -0.2828
vn -0.1766 -0.6119 -0.771
vn 0.8576 0.0314 -0.5133
vn -0.2232 -0.0045 -0.9748
vn -0.3061 0.0789 -0.9487
vn 0.5219 0.3557 -0.7753
vn -0.1775 0.9702 -0.1652
vn -0.3075 0.9417 -0.1368
vn 0.5223 -0.6058 0.6002
vn -0.5121 -0.4345 0.7409
vn -0.3891 -0.8977 0.2069
vn -0.5643 -0.8244 -0.0445
vn 0.9503 0.0629 0.3049
vn -0.7504 0.4029 0.524
vn -0.6764 0.5351 0.5061
vn -0.823 0.5677 0.0177
vn 0.9764 0.2041 0.0704
vn -0.6207 0.6009 0.5036
vn -0.7727 0.5175 0.3676
vn -0.3201 0.9435 0.0855
vn 0.5651 -0.8239 0.0443
vn 0.3397 0.9397 0.0393
vn -0.5862 0.7013 0.4056
vn -0.5773 0.7066 0.4092
vn 0.9632 0.2552 0.0848
vn 0.7229 0.685 0.0907
vn -0.3282 0.8283 0.4541
vn 0.6225 0.1426 -0.7695
vn 0.9782 0.1984 0.0619
vn -0.7993 0.596 -0.0772
vn 0.432 0.8975 -0.0885
vn 0.0678 0.9921 -0.1058
vn -0.0678 -0.6303 -0.7734
vn -0.5866 -0.2869 -0.7573
vn -0.0498 -0.8215 -0.568
vn -0.6077 -0.5192 -0.601
vn -0.769 0.0579 -0.6366
vn -0.5642 -0.5101 -0.6492
vn -0.4138 0.5489 -0.7263
vn -0.4398 0.5429 -0.7155
vn -0.6047 -0.7947 -0.054
vn -0.6072 -0.793 -0.0495
vn 0.7366 0.2111 0.6426
vn -0.3854 -0.1876 0.9035
vn -0.9179 0.3883 -0.0819
vn -0.9991 0.0196 -0.0365
vn 0.7749 0.6321 -0.0018
vn 0.4569 0.3267 0.8274
vn -0.897 0.439 -0.0522
vn -0.6305 0.7756 -0.0297
vn 0.5581 -0.8288 0.04
vn 0.8227 0.5684 0.0078
vn 0.3071 0.9315 0.1951
vn -0.7735 0.6319 -0.0496
vn 0.9196 0.3843 0.0811
vn 0.6494 0.7548 0.0924
vn 0.4957 0.8449 0.2008
vn -0.8938 0.4484 -0.0025
vn 0.7077 0.6967 0.1177
vn -0.8214 0.5702 0.0094
vn 0.5847 -0.7319 -0.3499
vn -0.1549 -0.8022 -0.5766
vn 0.8428 -0.1876 -0.5044
vn -0.2559 -0.1665 -0.9523
vn -0.6929 0.1432 -0.7066
vn 0.4461 0.1507 -0.8822
vn -0.4516 0.7967 -0.4017
vn 0.2826 0.7795 -0.559
vn -0.6105 -0.7908 -0.0438
vn 0.7536 0.0058 0.6574
vn -0.3902 0.1046 0.9148
vn -0.9601 0.2663 -0.0857
vn -0.9919 -0.1193 -0.0437
vn 0.8762 0.3369 0.3446
vn -0.0319 0.2828 0.9587
vn -0.7714 0.6049 0.1979
vn -0.4735 0.8807 -0.0124
vn 0.5244 -0.8506 0.0376
vn 0.5673 0.7953 0.2136
vn -0.0058 0.9612 0.2757
vn -0.3982 0.904 0.1557
vn 0.9972 0.0575 0.0477
vn 0.575 0.8144 0.0789
vn 0.9217 0.2932 0.2539
vn -0.9515 0.302 0.0589
vn 0.6221 0.7828 0.0168
vn -0.3657 0.9307 -0.0115
vn 0.5209 -0.7947 -0.3118
vn -0.1355 -0.7947 -0.5917
vn 0.8543 -0.0934 -0.5113
vn -0.2193 -0.1876 -0.9575
vn -0.6508 0.1066 -0.7517
vn 0.4034 0.1992 -0.8931
vn -0.3928 0.9046 -0.1654
vn 0.0766 0.9712 -0.2257
vn 0.5159 -0.5562 0.6516
vn -0.0157 -0.6518 0.7582
vn -0.5947 -0.8008 -0.0712
vn 0.6439 -0.2858 0.7098
vn -0.2973 -0.2379 0.9247
vn -0.9916 0.0942 -0.0885
vn -0.9912 -0.1163 -0.0636
vn 0.8418 0.1863 0.5067
vn 0.0333 0.0213 0.9992
vn -0.9571 0.2462 0.1531
vn -0.7778 0.6274 -0.0381
vn 0.7164 -0.6929 0.0818
vn 0.6587 0.6198 0.4265
vn 0.2879 0.7378 0.6105
vn -0.707 0.707 0.0174
vn 0.9922 0.0647 0.1067
vn 0.4658 0.8843 -0.0302
vn -0.6263 0.534 0.5679
vn 0.944 -0.3294 0.0183
vn -0.9739 0.1479 -0.172
vn 0.5367 0.842 -0.0545
vn -0.6875 0.7062 -0.1692
vn 0.8202 -0.4855 -0.3026
vn 0.1321 -0.6421 -0.7551
vn 0.9161 0.0316 -0.3997
vn 0.1253 -0.3599 -0.9245
vn -0.8171 0.272 -0.5082
vn 0.859 0.1882 -0.4761
vn -0.6214 0.7424 -0.2502
vn 0.3526 0.9351 -0.0359
vt 0.106789 0.222259
vt 0.159749 0.313989
vt 0.053829 0.313989
vt 0.530469 0.222259
vt 0.583429 0.313989
vt 0.477509 0.313989
vt 0.424549 0.222259
vt 0.371589 0.313989
vt 0.318629 0.222259
vt 0.106789 0.40572
vt 0.530469 0.40572
vt 0.424549 0.40572
vt 0.212709 0.40572
vt 0.000868 0.40572
vt 0.371589 0.49745
vt 0.212709 0.222259
vt 0.159749 0.49745
vt 0.053829 0.49745
vt 0.477509 0.49745
vt 0.265669 0.49745
vt 0.265669 0.313989
vt 0.318629 0.40572
vt 0.432023 0.615894
vt 0.477778 0.695146
vt 0.386267 0.695146
vt 0.798068 0.615894
vt 0.843823 0.695146
vt 0.752312 0.695146
vt 0.706556 0.615894
vt 0.660801 0.695146
vt 0.615045 0.615894
vt 0.432023 0.774397
vt 0.798068 0.774397
vt 0.706556 0.774397
vt 0.523534 0.774397
vt 0.340511 0.774397
vt 0.660801 0.853649
vt 0.523534 0.615894
vt 0.477778 0.853649
vt 0.386267 0.853649
vt 0.752312 0.853649
vt 0.56929 0.853649
vt 0.56929 0.695146
vt 0.615045 0.774397
vt 0.219858 0.421051
vt 0.270491 0.50875
vt 0.169226 0.50875
vt 0.624918 0.421051
vt 0.67555 0.50875
vt 0.574285 0.50875
vt 0.523653 0.421051
vt 0.47302 0.50875
vt 0.422388 0.421051
vt 0.219858 0.596449
vt 0.624918 0.596449
vt 0.523653 0.596449
vt 0.321123 0.596449
vt 0.118593 0.596449
vt 0.47302 0.684148
vt 0.321123 0.421051
vt 0.270491 0.684148
vt 0.169226 0.684148
vt 0.574285 0.684148
vt 0.371755 0.684148
vt 0.371756 0.50875
vt 0.422388 0.596449
vt 0.110423 0.001229
vt 0.165026 0.095806
vt 0.05582 0.095806
vt 0.54725 0.001229
vt 0.601853 0.095806
vt 0.492647 0.095806
vt 0.438043 0.001229
vt 0.38344 0.095806
vt 0.328837 0.001229
vt 0.110423 0.190382
vt 0.54725 0.190382
vt 0.438043 0.190382
vt 0.21963 0.190382
vt 0.001216 0.190382
vt 0.38344 0.284959
vt 0.21963 0.001229
vt 0.165026 0.284959
vt 0.05582 0.284959
vt 0.492647 0.284959
vt 0.274233 0.284959
vt 0.274233 0.095806
vt 0.328837 0.190382
vt 0.618885 0.072397
vt 0.66121 0.145708
vt 0.57656 0.145708
vt 0.957488 0.072397
vt 0.999814 0.145708
vt 0.915163 0.145708
vt 0.872837 0.072397
vt 0.830512 0.145708
vt 0.788187 0.072397
vt 0.618885 0.219018
vt 0.957488 0.219018
vt 0.872837 0.219018
vt 0.703536 0.219018
vt 0.534234 0.219018
vt 0.830512 0.292329
vt 0.703536 0.072397
vt 0.66121 0.292329
vt 0.57656 0.292329
vt 0.915163 0.292329
vt 0.745861 0.292329
vt 0.745861 0.145708
vt 0.788187 0.219018
usemtl 
f 1/1/1 2/2/1 3/3/1
f 1/4/2 3/5/2 4/6/2
f 1/7/3 4/6/3 5/8/3
f 1/9/4 6/8/4 7/9/4
f 6/8/4 8/8/4 7/9/4
f 3/3/5 2/2/5 9/10/5
f 4/6/6 3/5/6 10/11/6
f 5/8/7 4/6/7 11/12/7
f 6/8/8 12/12/8 13/12/8
f 6/8/8 13/12/8 8/8/8
f 2/2/9 14/13/9 9/10/9
f 3/3/10 9/10/10 10/14/10
f 4/6/11 10/11/11 11/12/11
f 12/12/12 15/15/12 13/12/12
f 15/15/12 16/15/12 13/12/12
f 2/2/13 1/16/13 17/2/13
f 1/16/13 7/16/13 17/2/13
f 9/10/14 14/13/14 18/17/14
f 10/14/15 9/10/15 18/18/15
f 11/12/16 10/11/16 18/19/16
f 14/13/17 2/2/17 17/2/17
f 14/13/17 17/2/17 19/13/17
f 15/20/18 14/13/18 19/13/18
f 15/20/18 19/13/18 16/20/18
f 1/16/19 2/2/19 2/2/19
f 1/16/19 2/2/19 1/16/19
f 6/8/20 1/9/20 1/9/20
f 6/8/20 1/9/20 5/8/20
f 2/2/19 14/13/19 14/13/19
f 2/2/19 14/13/19 2/2/19
f 12/12/21 6/8/21 11/12/21
f 6/8/21 5/8/21 11/12/21
f 14/13/22 15/20/22 18/20/22
f 14/13/22 18/20/22 14/13/22
f 15/15/23 12/12/23 11/12/23
f 15/15/23 11/12/23 18/15/23
f 17/2/24 7/16/24 20/21/24
f 7/9/25 8/8/25 20/21/25
f 17/2/26 20/21/26 19/13/26
f 20/21/27 8/8/27 21/22/27
f 8/8/28 13/12/28 21/22/28
f 20/21/29 21/22/29 19/13/29
f 21/22/30 13/12/30 16/15/30
f 19/13/31 21/22/31 16/20/31
f 22/23/32 23/24/32 24/25/32
f 22/26/33 24/27/33 25/28/33
f 22/29/34 25/28/34 26/30/34
f 27/31/35 26/30/35 28/31/35
f 26/30/35 29/30/35 28/31/35
f 24/25/36 23/24/36 30/32/36
f 25/28/37 24/27/37 31/33/37
f 26/30/38 25/28/38 32/34/38
f 26/30/39 33/34/39 34/34/39
f 26/30/39 34/34/39 29/30/39
f 23/24/40 35/35/40 30/32/40
f 24/25/41 30/32/41 31/36/41
f 25/28/42 31/33/42 32/34/42
f 33/34/43 36/37/43 37/37/43
f 33/34/43 37/37/43 34/34/43
f 23/24/44 27/38/44 38/24/44
f 27/38/44 28/38/44 38/24/44
f 30/32/45 35/35/45 39/39/45
f 31/36/46 30/32/46 39/40/46
f 32/34/47 31/33/47 39/41/47
f 40/35/48 23/24/48 38/24/48
f 40/35/48 38/24/48 41/35/48
f 36/42/49 40/35/49 41/35/49
f 36/42/49 41/35/49 37/42/49
f 27/38/50 23/24/50 23/24/50
f 27/38/50 23/24/50 22/38/50
f 26/30/51 27/31/51 22/31/51
f 26/30/51 22/31/51 26/30/51
f 23/24/52 40/35/52 35/35/52
f 23/24/52 35/35/52 23/24/52
f 33/34/53 26/30/53 26/30/53
f 33/34/53 26/30/53 32/34/53
f 40/35/54 36/42/54 39/42/54
f 40/35/54 39/42/54 35/35/54
f 36/37/55 33/34/55 32/34/55
f 36/37/55 32/34/55 39/37/55
f 38/24/56 28/38/56 42/43/56
f 28/31/57 29/30/57 42/43/57
f 38/24/58 42/43/58 41/35/58
f 42/43/59 29/30/59 43/44/59
f 29/30/60 34/34/60 43/44/60
f 42/43/61 43/44/61 41/35/61
f 43/44/62 34/34/62 37/37/62
f 41/35/63 43/44/63 37/42/63
f 44/45/1 45/46/1 46/47/1
f 44/48/2 46/49/2 47/50/2
f 44/51/64 47/50/64 48/52/64
f 44/53/65 48/52/65 49/53/65
f 48/52/65 50/52/65 49/53/65
f 46/47/66 45/46/66 51/54/66
f 47/50/67 46/49/67 52/55/67
f 48/52/68 47/50/68 53/56/68
f 48/52/69 54/56/69 55/56/69
f 48/52/69 55/56/69 50/52/69
f 45/46/70 56/57/70 51/54/70
f 46/47/71 51/54/71 52/58/71
f 47/50/72 52/55/72 53/56/72
f 54/56/73 57/59/73 55/56/73
f 57/59/73 58/59/73 55/56/73
f 45/46/74 44/60/74 59/46/74
f 44/60/74 49/60/74 59/46/74
f 51/54/75 56/57/75 60/61/75
f 52/58/76 51/54/76 60/62/76
f 53/56/77 52/55/77 60/63/77
f 61/57/78 45/46/78 62/57/78
f 45/46/78 59/46/78 62/57/78
f 57/64/79 61/57/79 62/57/79
f 57/64/79 62/57/79 58/64/79
f 44/60/19 45/46/19 45/46/19
f 44/60/19 45/46/19 44/60/19
f 48/52/19 44/53/19 44/53/19
f 48/52/19 44/53/19 48/52/19
f 45/46/80 61/57/80 45/46/80
f 61/57/80 56/57/80 45/46/80
f 54/56/81 48/52/81 48/52/81
f 54/56/81 48/52/81 53/56/81
f 61/57/82 57/64/82 60/64/82
f 61/57/82 60/64/82 56/57/82
f 57/59/83 54/56/83 53/56/83
f 57/59/83 53/56/83 60/59/83
f 59/46/84 49/60/84 63/65/84
f 49/53/85 50/52/85 63/65/85
f 59/46/86 63/65/86 62/57/86
f 63/65/87 50/52/87 64/66/87
f 50/52/88 55/56/88 64/66/88
f 63/65/89 64/66/89 62/57/89
f 64/66/90 55/56/90 58/59/90
f 62/57/91 64/66/91 58/64/91
f 65/67/1 66/68/1 67/69/1
f 65/70/2 67/71/2 68/72/2
f 65/73/64 68/72/64 69/74/64
f 65/75/92 69/74/92 70/74/92
f 65/75/92 70/74/92 71/75/92
f 67/69/93 66/68/93 72/76/93
f 68/72/94 67/71/94 73/77/94
f 69/74/95 68/72/95 74/78/95
f 69/74/96 75/78/96 76/78/96
f 69/74/96 76/78/96 70/74/96
f 66/68/97 77/79/97 72/76/97
f 67/69/98 72/76/98 73/80/98
f 68/72/99 73/77/99 74/78/99
f 75/78/100 78/81/100 76/78/100
f 78/81/100 79/81/100 76/78/100
f 66/68/101 65/82/101 71/82/101
f 66/68/101 71/82/101 80/68/101
f 72/76/102 77/79/102 81/83/102
f 73/80/103 72/76/103 81/84/103
f 74/78/104 73/77/104 81/85/104
f 82/79/105 66/68/105 80/68/105
f 82/79/105 80/68/105 83/79/105
f 78/86/106 82/79/106 79/86/106
f 82/79/106 83/79/106 79/86/106
f 65/82/19 66/68/19 66/68/19
f 65/82/19 66/68/19 65/82/19
f 69/74/19 65/75/19 65/75/19
f 69/74/19 65/75/19 69/74/19
f 66/68/107 82/79/107 66/68/107
f 82/79/107 77/79/107 66/68/107
f 75/78/108 69/74/108 69/74/108
f 75/78/108 69/74/108 74/78/108
f 82/79/109 78/86/109 77/79/109
f 78/86/109 81/86/109 77/79/109
f 78/81/110 75/78/110 74/78/110
f 78/81/110 74/78/110 81/81/110
f 80/68/111 71/82/111 84/87/111
f 71/75/112 70/74/112 84/87/112
f 80/68/113 84/87/113 83/79/113
f 84/87/114 70/74/114 85/88/114
f 70/74/115 76/78/115 85/88/115
f 84/87/116 85/88/116 83/79/116
f 85/88/117 76/78/117 79/81/117
f 83/79/118 85/88/118 79/86/118
f 86/89/119 87/90/119 88/91/119
f 86/92/120 88/93/120 89/94/120
f 86/95/64 89/94/64 90/96/64
f 86/97/121 90/96/121 91/97/121
f 90/96/121 92/96/121 91/97/121
f 88/91/122 87/90/122 93/98/122
f 89/94/123 88/93/123 94/99/123
f 90/96/124 89/94/124 95/100/124
f 90/96/125 96/100/125 97/100/125
f 90/96/125 97/100/125 92/96/125
f 87/90/126 98/101/126 93/98/126
f 88/91/127 93/98/127 94/102/127
f 89/94/128 94/99/128 95/100/128
f 96/100/129 99/103/129 97/100/129
f 99/103/129 100/103/129 97/100/129
f 101/90/130 86/104/130 91/104/130
f 101/90/130 91/104/130 102/90/130
f 93/98/131 98/101/131 99/105/131
f 94/102/132 93/98/132 99/106/132
f 95/100/133 94/99/133 99/107/133
f 103/101/134 101/90/134 104/101/134
f 101/90/134 102/90/134 104/101/134
f 99/108/135 103/101/135 100/108/135
f 103/101/135 104/101/135 100/108/135
f 86/104/136 101/90/136 87/90/136
f 86/104/136 87/90/136 86/104/136
f 90/96/19 86/97/19 86/97/19
f 90/96/19 86/97/19 90/96/19
f 101/90/137 103/101/137 87/90/137
f 103/101/137 98/101/137 87/90/137
f 96/100/138 90/96/138 90/96/138
f 96/100/138 90/96/138 95/100/138
f 103/101/139 99/108/139 99/108/139
f 103/101/139 99/108/139 98/101/139
f 99/103/140 96/100/140 95/100/140
f 99/103/140 95/100/140 99/103/140
f 102/90/141 91/104/141 105/109/141
f 91/97/142 92/96/142 105/109/142
f 102/90/143 105/109/143 104/101/143
f 105/109/144 92/96/144 106/110/144
f 92/96/145 97/100/145 106/110/145
f 105/109/146 106/110/146 104/101/146
f 106/110/147 97/100/147 100/103/147
f 104/101/148 106/110/148 100/108/148
s off
