# Apple ModelIO OBJ File: moss3
mtllib moss3.mtl
g moss3
v -0.080382 0.68949 1.84051
v -0.219778 0.586763 1.75571
v -0.136826 0.731549 1.75777
v -0.405698 0.717231 1.76572
v -0.568195 0.568627 1.67226
v -0.422484 0.466381 1.65427
v -0.534159 0.414825 1.53151
v -0.375729 0.334189 1.3693
v -0.089196 0.304305 1.53116
v -0.205706 0.247059 1.23484
v 0.751538 0.426101 1.47467
v -0.021682 0.440584 1.60402
v 0.815703 0.524144 1.74339
v 0.980282 0.648471 1.80785
v 0.946974 0.967684 1.83378
v 0.762299 0.614616 1.81558
v 0.627627 0.681656 1.85431
v 0.750648 0.93911 1.82457
vn 0.2139 -0.1087 -0.9708
vn -0.0286 -0.4043 0.9142
vn -0.1904 -0.8312 0.5223
vn 0.2437 0.9347 -0.2588
vn -0.1577 0.9048 -0.3957
vn -0.1318 0.9409 -0.3118
vn -0.0685 0.2187 -0.9734
vn 0.0685 0.6483 -0.7583
vn -0.086 0.0245 -0.996
vn 0.0208 0.1362 -0.9905
vn 0.0134 -0.6937 0.7201
vt 0.708858 0.612971
vt 0.708858 0.96675
vt 0.63024 0.612971
vt 0.63024 0.96675
vt 0.551623 0.96675
vt 0.551623 0.612971
vt 0.473005 0.96675
vt 0.473005 0.612971
vt 0.394387 0.96675
vt 0.394387 0.612971
vt 0.31577 0.612971
vt 0.31577 0.96675
vt 0.237152 0.96675
vt 0.237152 0.612971
vt 0.158534 0.612971
vt 0.158534 0.96675
vt 0.999849 0.226707
vt 0.930432 0.346939
vt 0.799972 0.394423
vt 0.975741 0.089983
vt 0.869389 0.000743
vt 0.730556 0.000743
vt 0.624204 0.089983
vt 0.600095 0.226707
vt 0.669512 0.346939
vt 0.079916 0.96675
vt 0.079916 0.612971
vt 0.001299 0.612971
vt 0.001299 0.96675
vt 0.310687 0.610942
vt 0.512965 0.537319
vt 0.620596 0.350897
vt 0.108408 0.537319
vt 0.000777 0.350897
vt 0.038157 0.138907
vt 0.203056 0.00054
vt 0.418317 0.00054
vt 0.583216 0.138907
usemtl 
f 1/1/1 2/2/1 3/3/1
f 2/2/1 4/4/1 3/3/1
f 3/3/2 4/4/2 5/5/2
f 3/3/2 5/5/2 6/6/2
f 6/6/3 5/5/3 7/7/3
f 6/6/3 7/7/3 8/8/3
f 8/8/4 7/7/4 9/9/4
f 8/8/4 9/9/4 10/10/4
f 10/10/5 9/9/5 11/11/5
f 9/9/5 12/12/5 11/11/5
f 11/11/6 12/12/6 13/13/6
f 11/11/6 13/13/6 14/14/6
f 14/14/7 13/13/7 15/15/7
f 13/13/7 16/16/7 15/15/7
f 5/17/8 4/18/8 2/19/8
f 7/20/8 5/17/8 2/19/8
f 9/21/8 7/20/8 2/19/8
f 12/22/8 9/21/8 2/19/8
f 13/23/8 12/22/8 2/19/8
f 16/24/8 13/23/8 2/19/8
f 17/25/8 16/24/8 2/19/8
f 15/15/9 16/16/9 17/26/9
f 15/15/9 17/26/9 18/27/9
f 18/27/10 17/26/10 1/28/10
f 17/26/10 2/29/10 1/28/10
f 1/30/11 3/31/11 6/32/11
f 18/33/11 1/30/11 6/32/11
f 15/34/11 18/33/11 6/32/11
f 14/35/11 15/34/11 6/32/11
f 11/36/11 14/35/11 6/32/11
f 10/37/11 11/36/11 6/32/11
f 8/38/11 10/37/11 6/32/11
s off
