# Apple ModelIO OBJ File: pestecide_bottle1
mtllib pestecide_bottle1.mtl
g bottle
v -3.16335 1.34331 -0.382683
v -3.23947 1.34331 0
v -3.16335 1.61391 -0.270598
v -2.23947 1.34331 -1
v -2.62215 1.34331 -0.923879
v -2.23947 2.05042 -0.707107
v -2.62215 1.9966 -0.653281
v -2.94657 1.34331 -0.707107
v -2.94657 1.84331 -0.5
v -2.62215 2.26719 0
v -2.23947 2.34331 0
v -3.16335 1.726 0
v -2.94657 2.05042 0
v -2.62215 1.9966 0.653281
v -2.94657 1.84331 0.5
v -3.16335 1.61391 0.270598
v -2.23947 2.05042 0.707107
v -2.94657 1.34331 0.707107
v -2.62215 1.34331 0.923879
v -3.16335 1.34331 0.382683
v -2.23947 1.34331 1
v -2.23947 0.636208 0.707107
v -2.62215 0.690033 0.653281
v -3.16335 1.07272 0.270598
v -2.94657 0.843314 0.5
v -3.16335 0.960631 0
v -2.94657 0.636208 0
v -2.62215 0.419435 0
v -2.23947 0.343315 0
v -2.94657 0.843314 -0.5
v -2.62215 0.690033 -0.653281
v -3.16335 1.07272 -0.270598
v -2.23947 0.636208 -0.707107
v 3.12806 1.34331 -0.382683
v 3.20419 1.34331 0
v 3.12806 1.07272 -0.270598
v 2.20419 1.34331 -1
v 2.58687 1.34331 -0.923879
v 2.20419 0.636208 -0.707107
v 2.58687 0.690033 -0.653281
v 2.91129 1.34331 -0.707107
v 2.91129 0.843314 -0.5
v 2.20419 0.343314 0
v 2.58687 0.419435 0
v 3.12806 0.960631 0
v 2.91129 0.636208 0
v 2.91129 0.843314 0.5
v 2.58687 0.690033 0.653281
v 3.12806 1.07272 0.270598
v 2.20419 0.636208 0.707107
v 2.91129 1.34331 0.707107
v 2.58687 1.34331 0.923879
v 3.12806 1.34331 0.382683
v 2.20419 1.34331 1
v 2.20419 2.05042 0.707107
v 2.58687 1.9966 0.653281
v 3.12806 1.61391 0.270598
v 2.91129 1.84331 0.5
v 3.12806 1.726 0
v 2.91129 2.05042 0
v 2.58687 2.26719 0
v 2.20419 2.34331 0
v 2.91129 1.84331 -0.5
v 2.58687 1.9966 -0.653281
v 3.12806 1.61391 -0.270598
v 2.20419 2.05042 -0.707107
v -2.24051 2.05042 -0.707107
v -2.24051 2.34331 0
v -2.24051 1.34332 -1
v -2.24051 0.636208 -0.707107
v -2.24051 2.05042 0.707107
v -2.24051 1.34332 1
v -2.24051 0.636208 0.707107
v -2.24051 0.343315 0
v -3.73836 1.35 -0.690036
v -3.32807 1.35 -0.223795
v -3.32807 1.19175 -0.158247
v -3.73836 0.862071 -0.487929
v -3.32807 1.1262 0
v -3.73836 0.659964 0
v -3.73836 0.862071 0.487929
v -3.32807 1.19175 0.158247
v -3.73836 1.35 0.690036
v -3.32807 1.35 0.223795
v -3.32807 1.50825 0.158247
v -3.73836 1.83793 0.487929
v -3.73836 2.04004 0
v -3.32807 1.57379 0
v -3.15853 1.19175 0.158247
v -3.15853 1.35 0.223795
v -3.32807 1.50825 -0.158247
v -3.73836 1.83793 -0.487929
v -3.15853 1.1262 0
v -3.15853 1.19175 -0.158247
v -3.15853 1.35 -0.223795
v -3.15853 1.50825 0.158247
v -3.15853 1.57379 0
v -3.15853 1.50825 -0.158247
v -4.10715 0.917592 0
v -4.10715 1.81421 0
v -4.18895 1.73241 0.066786
v -4.18895 0.999389 0.066786
v -4.18895 1.73241 -0.066786
v -4.18895 0.999389 -0.066786
v -4.53914 1.81421 0
v -4.45734 1.73241 0.066786
v -4.45734 1.73241 -0.066786
v -4.53914 0.917592 0
v -4.45734 0.999389 0.066786
v -4.45734 0.999389 -0.066786
v -4.17164 1.35 -0.051412
v -3.6061 1.35 -0.051412
v -3.6061 1.31365 -0.036354
v -4.17164 1.31365 -0.036354
v -3.6061 1.29859 0
v -4.17164 1.29859 0
v -3.6061 1.31365 0.036354
v -4.17164 1.31365 0.036354
v -3.6061 1.35 0.051412
v -4.17164 1.35 0.051412
v -3.6061 1.38635 0.036354
v -4.17164 1.38635 0.036354
v -3.6061 1.40141 0
v -4.17164 1.40141 0
v -3.6061 1.38635 -0.036354
v -4.17164 1.38635 -0.036354
vn -0.9776 0.0805 -0.1945
vn -0.1807 0.3764 -0.9087
vn -0.8103 0.2243 -0.5414
vn -0.5253 0.3256 -0.7862
vn -0.1807 0.9087 -0.3764
vn -0.8103 0.5414 -0.2243
vn -0.5253 0.7862 -0.3256
vn -0.9776 0.1945 -0.0805
vn -0.5253 0.7862 0.3256
vn -0.9776 0.1945 0.0805
vn -0.1807 0.9087 0.3764
vn -0.8103 0.5414 0.2243
vn -0.5253 0.3256 0.7862
vn -0.9776 0.0805 0.1945
vn -0.1807 0.3764 0.9087
vn -0.8103 0.2243 0.5414
vn -0.1807 -0.3764 0.9087
vn -0.8103 -0.2243 0.5414
vn -0.5253 -0.3256 0.7862
vn -0.9776 -0.0805 0.1945
vn -0.8103 -0.5414 0.2243
vn -0.5253 -0.7862 0.3256
vn -0.9776 -0.1945 0.0805
vn -0.1807 -0.9087 0.3764
vn -0.5253 -0.7862 -0.3256
vn -0.9776 -0.1945 -0.0805
vn -0.1807 -0.9087 -0.3764
vn -0.8103 -0.5414 -0.2243
vn -0.9776 -0.0805 -0.1945
vn 1 -0 -0
vn -0.1807 -0.3764 -0.9087
vn -0.8103 -0.2243 -0.5414
vn -0.5253 -0.3256 -0.7862
vn 0.9776 -0.0805 -0.1945
vn 0.1807 -0.3764 -0.9087
vn 0.8103 -0.2243 -0.5414
vn 0.5253 -0.3256 -0.7862
vn 0.1807 -0.9087 -0.3764
vn 0.8103 -0.5414 -0.2243
vn 0.5253 -0.7862 -0.3256
vn 0.9776 -0.1945 -0.0805
vn 0.5253 -0.7862 0.3256
vn 0.9776 -0.1945 0.0805
vn 0.1807 -0.9087 0.3764
vn 0.8103 -0.5414 0.2243
vn 0.5253 -0.3256 0.7862
vn 0.9776 -0.0805 0.1945
vn 0.1807 -0.3764 0.9087
vn 0.8103 -0.2243 0.5414
vn 0.1807 0.3764 0.9087
vn 0.8103 0.2243 0.5414
vn 0.5253 0.3256 0.7862
vn 0.9776 0.0805 0.1945
vn 0.8103 0.5414 0.2243
vn 0.5253 0.7862 0.3256
vn 0.9776 0.1945 0.0805
vn 0.1807 0.9087 0.3764
vn 0.5253 0.7862 -0.3256
vn 0.9776 0.1945 -0.0805
vn 0.1807 0.9087 -0.3764
vn 0.8103 0.5414 -0.2243
vn 0.9776 0.0805 -0.1945
vn -0 0.9239 -0.3827
vn 0.1807 0.3764 -0.9087
vn 0.8103 0.2243 -0.5414
vn 0.5253 0.3256 -0.7862
vn -1 -0 -0
vn -0 0.3827 -0.9239
vn -0 -0.9239 -0.3827
vn -0 -0.9239 0.3827
vn -0 -0.3827 -0.9239
vn -0 0.3827 0.9239
vn -0 0.9239 0.3827
vn -0 -0.3827 0.9239
vn 0.7241 -0.2639 -0.6372
vn 0.7241 -0.6372 -0.2639
vn 0.7241 -0.6372 0.2639
vn 0.7241 -0.2639 0.6372
vn 0.7241 0.2639 0.6372
vn 0.7241 0.6372 0.2639
vn 0.7241 0.6372 -0.2639
vn 0.7241 0.2639 -0.6372
vn 0.6325 -0 0.7746
vn 0.6325 -0 -0.7746
vn -0 0.6325 0.7746
vn -0 -1 -0
vn -0 0.6325 -0.7746
vn -0.6325 -0 0.7746
vn -0.6325 -0 -0.7746
vn -0 -0.6325 0.7746
vn -0 1 -0
vn -0 -0.6325 -0.7746
vt 0.117457 0.000304
vt 0.098923 0.037373
vt 0.080388 0.000304
vt 0.413718 0.503093
vt 0.413718 0.571859
vt 0.344953 0.503093
vt 0.344953 0.571859
vt 0.409284 0.804368
vt 0.409284 0.855569
vt 0.358082 0.855569
vt 0.358082 0.804368
vt 0.409284 0.753166
vt 0.358082 0.753166
vt 0.276187 0.571859
vt 0.276187 0.503093
vt 0.306881 0.855569
vt 0.306881 0.804368
vt 0.306881 0.753166
vt 0.117457 0.039011
vt 0.098923 0.07608
vt 0.080388 0.039011
vt 0.255679 0.753166
vt 0.255679 0.804368
vt 0.276187 0.709389
vt 0.241805 0.778154
vt 0.207422 0.709389
vt 0.207422 0.503093
vt 0.207422 0.571859
vt 0.276187 0.640624
vt 0.207422 0.640624
vt 0.138657 0.640624
vt 0.138657 0.571859
vt 0.173039 0.778154
vt 0.138657 0.709389
vt 0.138657 0.503093
vt 0.069891 0.503093
vt 0.069891 0.571859
vt 0.069891 0.709389
vt 0.069891 0.640624
vt 0.104274 0.778154
vt 0.001126 0.709389
vt 0.001126 0.640624
vt 0.001126 0.571859
vt 0.035509 0.778154
vt 0.001126 0.503093
vt 0.551248 0.571859
vt 0.551248 0.640624
vt 0.482483 0.640624
vt 0.482483 0.571859
vt 0.551248 0.709389
vt 0.516866 0.778154
vt 0.482483 0.709389
vt 0.551248 0.503093
vt 0.482483 0.503093
vt 0.117457 0.077719
vt 0.098923 0.114788
vt 0.080388 0.077719
vt 0.460486 0.804368
vt 0.460486 0.855569
vt 0.460486 0.753166
vt 0.708125 0.8319
vt 0.646238 0.955675
vt 0.58435 0.8319
vt 0.708125 0.460576
vt 0.708125 0.584351
vt 0.58435 0.460576
vt 0.58435 0.584351
vt 0.708125 0.708125
vt 0.58435 0.708125
vt 0.62535 0.001366
vt 0.62535 0.126156
vt 0.500559 0.001366
vt 0.500559 0.126156
vt 0.62535 0.250947
vt 0.62535 0.375738
vt 0.500559 0.375738
vt 0.500559 0.250947
vt 0.562954 0.500528
vt 0.375769 0.250947
vt 0.375769 0.126156
vt 0.438164 0.500528
vt 0.375769 0.375738
vt 0.375769 0.001366
vt 0.250978 0.250947
vt 0.250978 0.126156
vt 0.313373 0.500528
vt 0.250978 0.375738
vt 0.250978 0.001366
vt 0.126187 0.001366
vt 0.126187 0.126156
vt 0.126187 0.375738
vt 0.126187 0.250947
vt 0.188583 0.500528
vt 0.001397 0.375738
vt 0.001397 0.250947
vt 0.001397 0.126156
vt 0.063792 0.500528
vt 0.846226 0.002831
vt 0.846226 0.221567
vt 0.62749 0.221567
vt 0.62749 0.002831
vt 0.955675 0.584351
vt 0.955675 0.708125
vt 0.8319 0.708125
vt 0.8319 0.584351
vt 0.955675 0.8319
vt 0.893788 0.955675
vt 0.8319 0.8319
vt 0.955675 0.460576
vt 0.8319 0.460576
vt 0.770013 0.955675
vt 0.874931 0.001366
vt 0.75014 0.001366
vt 0.999722 0.001366
vt 0.463155 0.574151
vt 0.463155 0.678049
vt 0.437181 0.678049
vt 0.437181 0.574151
vt 0.411206 0.678049
vt 0.411206 0.574151
vt 0.408975 0.628416
vt 0.408975 0.750125
vt 0.378547 0.628416
vt 0.378547 0.750125
vt 0.34812 0.628416
vt 0.34812 0.750125
vt 0.317693 0.750125
vt 0.317693 0.628416
vt 0.07875 0.001547
vt 0.07875 0.105445
vt 0.052775 0.001547
vt 0.052775 0.105445
vt 0.026801 0.105445
vt 0.026801 0.001547
vt 0.000826 0.001547
vt 0.000826 0.105445
vt 0.647993 0.436132
vt 0.703566 0.459151
vt 0.759139 0.436132
vt 0.624974 0.380559
vt 0.647993 0.324986
vt 0.703566 0.301966
vt 0.759139 0.324986
vt 0.782159 0.380559
vt 0.152161 0.433662
vt 0.144695 0.451685
vt 0.126671 0.459151
vt 0.144695 0.415638
vt 0.126671 0.408172
vt 0.108647 0.415638
vt 0.101182 0.433662
vt 0.108647 0.451685
vt 0.256838 0.750125
vt 0.287266 0.750125
vt 0.439402 0.750125
vt 0.226411 0.750125
vt 0.469829 0.750125
vt 0.677173 0.223652
vt 0.701636 0.223652
vt 0.701636 0.25627
vt 0.677173 0.25627
vt 0.259977 0.573296
vt 0.285486 0.573296
vt 0.285486 0.607307
vt 0.259977 0.607307
vt 0.677173 0.258356
vt 0.701636 0.258356
vt 0.701636 0.290974
vt 0.677173 0.290974
vt 0.7261 0.223652
vt 0.7261 0.25627
vt 0.310995 0.573296
vt 0.310995 0.607307
vt 0.7261 0.258356
vt 0.7261 0.290974
vt 0.628246 0.223652
vt 0.652709 0.223652
vt 0.652709 0.25627
vt 0.628246 0.25627
vt 0.20896 0.573296
vt 0.234468 0.573296
vt 0.234468 0.607307
vt 0.20896 0.607307
vt 0.628246 0.258356
vt 0.652709 0.258356
vt 0.652709 0.290974
vt 0.628246 0.290974
vt 0.2843 0.449196
vt 0.2843 0.483177
vt 0.275805 0.483177
vt 0.275805 0.449196
vt 0.26731 0.483177
vt 0.26731 0.449196
vt 0.258814 0.483177
vt 0.258814 0.449196
vt 0.250319 0.483177
vt 0.250319 0.449196
vt 0.241824 0.483177
vt 0.241824 0.449196
vt 0.233329 0.483177
vt 0.233329 0.449196
vt 0.093432 0.06889
vt 0.091717 0.07303
vt 0.087576 0.074746
vt 0.091717 0.064749
vt 0.087576 0.063034
vt 0.083436 0.064749
vt 0.081721 0.06889
vt 0.083436 0.07303
vt 0.224833 0.483177
vt 0.224833 0.449196
vt 0.216338 0.483177
vt 0.216338 0.449196
vt 0.083436 0.034323
vt 0.087576 0.036038
vt 0.091717 0.034323
vt 0.081721 0.030182
vt 0.083436 0.026042
vt 0.087576 0.024327
vt 0.091717 0.026042
vt 0.093432 0.030182
usemtl 
f 1/1/1 2/2/1 3/3/1
f 4/4/2 5/5/2 6/6/2
f 5/5/2 7/7/2 6/6/2
f 8/8/3 1/9/3 3/10/3
f 8/8/3 3/10/3 9/11/3
f 5/12/4 8/8/4 7/13/4
f 8/8/4 9/11/4 7/13/4
f 6/6/5 7/7/5 10/14/5
f 6/6/5 10/14/5 11/15/5
f 9/11/6 3/10/6 12/16/6
f 9/11/6 12/16/6 13/17/6
f 7/13/7 9/11/7 13/17/7
f 7/13/7 13/17/7 10/18/7
f 3/19/8 2/20/8 12/21/8
f 10/18/9 13/17/9 14/22/9
f 13/17/9 15/23/9 14/22/9
f 12/24/10 2/25/10 16/26/10
f 11/15/11 10/14/11 17/27/11
f 10/14/11 14/28/11 17/27/11
f 13/29/12 12/24/12 15/30/12
f 12/24/12 16/26/12 15/30/12
f 14/28/13 15/30/13 18/31/13
f 14/28/13 18/31/13 19/32/13
f 16/26/14 2/33/14 20/34/14
f 17/27/15 14/28/15 19/32/15
f 17/27/15 19/32/15 21/35/15
f 15/30/16 16/26/16 18/31/16
f 16/26/16 20/34/16 18/31/16
f 21/35/17 19/32/17 22/36/17
f 19/32/17 23/37/17 22/36/17
f 18/31/18 20/34/18 24/38/18
f 18/31/18 24/38/18 25/39/18
f 19/32/19 18/31/19 23/37/19
f 18/31/19 25/39/19 23/37/19
f 20/34/20 2/40/20 24/38/20
f 25/39/21 24/38/21 26/41/21
f 25/39/21 26/41/21 27/42/21
f 23/37/22 25/39/22 28/43/22
f 25/39/22 27/42/22 28/43/22
f 24/38/23 2/44/23 26/41/23
f 22/36/24 23/37/24 28/43/24
f 22/36/24 28/43/24 29/45/24
f 28/46/25 27/47/25 30/48/25
f 28/46/25 30/48/25 31/49/25
f 26/50/26 2/51/26 32/52/26
f 29/53/27 28/46/27 33/54/27
f 28/46/27 31/49/27 33/54/27
f 27/47/28 26/50/28 30/48/28
f 26/50/28 32/52/28 30/48/28
f 32/55/29 2/56/29 1/57/29
f 33/54/30 4/4/30 6/6/30
f 29/53/30 33/54/30 6/6/30
f 22/36/30 29/53/30 6/6/30
f 21/35/30 22/36/30 6/6/30
f 17/27/30 21/35/30 6/6/30
f 11/15/30 17/27/30 6/6/30
f 33/54/31 31/49/31 5/5/31
f 33/54/31 5/5/31 4/4/31
f 30/58/32 32/59/32 8/8/32
f 32/59/32 1/9/32 8/8/32
f 31/60/33 30/58/33 8/8/33
f 31/60/33 8/8/33 5/12/33
f 34/61/34 35/62/34 36/63/34
f 37/64/35 38/65/35 39/66/35
f 38/65/35 40/67/35 39/66/35
f 41/68/36 34/61/36 36/63/36
f 41/68/36 36/63/36 42/69/36
f 38/65/37 41/68/37 40/67/37
f 41/68/37 42/69/37 40/67/37
f 39/70/38 40/71/38 43/72/38
f 40/71/38 44/73/38 43/72/38
f 42/74/39 36/75/39 45/76/39
f 42/74/39 45/76/39 46/77/39
f 40/71/40 42/74/40 44/73/40
f 42/74/40 46/77/40 44/73/40
f 36/75/41 35/78/41 45/76/41
f 44/73/42 46/77/42 47/79/42
f 44/73/42 47/79/42 48/80/42
f 45/76/43 35/81/43 49/82/43
f 43/72/44 44/73/44 48/80/44
f 43/72/44 48/80/44 50/83/44
f 46/77/45 45/76/45 47/79/45
f 45/76/45 49/82/45 47/79/45
f 48/80/46 47/79/46 51/84/46
f 48/80/46 51/84/46 52/85/46
f 49/82/47 35/86/47 53/87/47
f 50/83/48 48/80/48 52/85/48
f 50/83/48 52/85/48 54/88/48
f 47/79/49 49/82/49 51/84/49
f 49/82/49 53/87/49 51/84/49
f 54/88/50 52/85/50 55/89/50
f 52/85/50 56/90/50 55/89/50
f 51/84/51 53/87/51 57/91/51
f 51/84/51 57/91/51 58/92/51
f 52/85/52 51/84/52 56/90/52
f 51/84/52 58/92/52 56/90/52
f 53/87/53 35/93/53 57/91/53
f 58/92/54 57/91/54 59/94/54
f 58/92/54 59/94/54 60/95/54
f 56/90/55 58/92/55 60/95/55
f 56/90/55 60/95/55 61/96/55
f 57/91/56 35/97/56 59/94/56
f 55/98/57 56/99/57 61/100/57
f 55/98/57 61/100/57 62/101/57
f 61/102/58 60/103/58 63/104/58
f 61/102/58 63/104/58 64/105/58
f 59/106/59 35/107/59 65/108/59
f 62/109/60 61/102/60 66/110/60
f 61/102/60 64/105/60 66/110/60
f 60/103/61 59/106/61 63/104/61
f 59/106/61 65/108/61 63/104/61
f 65/108/62 35/111/62 34/61/62
f 62/109/63 66/110/63 67/110/63
f 62/109/63 67/110/63 68/109/63
f 66/110/64 64/105/64 38/65/64
f 66/110/64 38/65/64 37/64/64
f 63/104/65 65/108/65 41/68/65
f 65/108/65 34/61/65 41/68/65
f 64/105/66 63/104/66 41/68/66
f 64/105/66 41/68/66 38/65/66
f 67/112/67 69/113/67 70/70/67
f 68/114/67 67/112/67 70/70/67
f 71/89/67 68/114/67 70/70/67
f 72/88/67 71/89/67 70/70/67
f 73/83/67 72/88/67 70/70/67
f 74/72/67 73/83/67 70/70/67
f 66/110/68 37/64/68 69/64/68
f 66/110/68 69/64/68 67/110/68
f 39/70/69 43/72/69 74/72/69
f 39/70/69 74/72/69 70/70/69
f 43/72/70 50/83/70 73/83/70
f 43/72/70 73/83/70 74/72/70
f 37/64/71 39/66/71 70/66/71
f 37/64/71 70/66/71 69/64/71
f 54/88/72 55/89/72 71/89/72
f 54/88/72 71/89/72 72/88/72
f 55/98/73 62/101/73 68/101/73
f 55/98/73 68/101/73 71/98/73
f 50/83/74 54/88/74 72/88/74
f 50/83/74 72/88/74 73/83/74
f 75/115/75 76/116/75 77/117/75
f 75/115/75 77/117/75 78/118/75
f 78/118/76 77/117/76 79/119/76
f 78/118/76 79/119/76 80/120/76
f 80/121/77 79/122/77 81/123/77
f 79/122/77 82/124/77 81/123/77
f 81/123/78 82/124/78 83/125/78
f 82/124/78 84/126/78 83/125/78
f 83/125/79 84/126/79 85/127/79
f 83/125/79 85/127/79 86/128/79
f 86/129/80 85/130/80 87/131/80
f 85/130/80 88/132/80 87/131/80
f 84/126/74 82/124/74 89/124/74
f 84/126/74 89/124/74 90/126/74
f 87/131/81 88/132/81 91/133/81
f 87/131/81 91/133/81 92/134/81
f 92/134/82 91/133/82 75/135/82
f 91/133/82 76/136/82 75/135/82
f 92/137/67 75/138/67 78/139/67
f 87/140/67 92/137/67 78/139/67
f 86/141/67 87/140/67 78/139/67
f 83/142/67 86/141/67 78/139/67
f 81/143/67 83/142/67 78/139/67
f 80/144/67 81/143/67 78/139/67
f 93/145/30 94/146/30 95/147/30
f 89/148/30 93/145/30 95/147/30
f 90/149/30 89/148/30 95/147/30
f 96/150/30 90/149/30 95/147/30
f 97/151/30 96/150/30 95/147/30
f 98/152/30 97/151/30 95/147/30
f 91/153/63 88/154/63 97/154/63
f 91/153/63 97/154/63 98/153/63
f 79/122/69 77/155/69 94/155/69
f 79/122/69 94/155/69 93/122/69
f 85/127/72 84/126/72 90/126/72
f 85/127/72 90/126/72 96/127/72
f 76/156/68 91/153/68 98/153/68
f 76/156/68 98/153/68 95/156/68
f 77/155/71 76/157/71 95/157/71
f 77/155/71 95/157/71 94/155/71
f 82/124/70 79/122/70 93/122/70
f 82/124/70 93/122/70 89/124/70
f 88/154/73 85/127/73 96/127/73
f 88/154/73 96/127/73 97/154/73
f 99/158/83 100/159/83 101/160/83
f 99/158/83 101/160/83 102/161/83
f 102/162/67 101/163/67 103/164/67
f 102/162/67 103/164/67 104/165/67
f 104/166/84 103/167/84 100/168/84
f 104/166/84 100/168/84 99/169/84
f 100/159/85 105/170/85 106/171/85
f 100/159/85 106/171/85 101/160/85
f 101/163/86 106/172/86 107/173/86
f 101/163/86 107/173/86 103/164/86
f 103/167/87 107/174/87 105/175/87
f 103/167/87 105/175/87 100/168/87
f 105/176/88 108/177/88 109/178/88
f 105/176/88 109/178/88 106/179/88
f 106/180/30 109/181/30 110/182/30
f 106/180/30 110/182/30 107/183/30
f 107/184/89 110/185/89 108/186/89
f 107/184/89 108/186/89 105/187/89
f 108/177/90 99/158/90 102/161/90
f 108/177/90 102/161/90 109/178/90
f 109/181/91 102/162/91 104/165/91
f 109/181/91 104/165/91 110/182/91
f 110/185/92 104/166/92 99/169/92
f 110/185/92 99/169/92 108/186/92
f 111/188/71 112/189/71 113/190/71
f 111/188/71 113/190/71 114/191/71
f 114/191/69 113/190/69 115/192/69
f 114/191/69 115/192/69 116/193/69
f 116/193/70 115/192/70 117/194/70
f 116/193/70 117/194/70 118/195/70
f 118/195/74 117/194/74 119/196/74
f 118/195/74 119/196/74 120/197/74
f 120/197/72 119/196/72 121/198/72
f 120/197/72 121/198/72 122/199/72
f 122/199/73 121/198/73 123/200/73
f 122/199/73 123/200/73 124/201/73
f 115/202/30 113/203/30 112/204/30
f 117/205/30 115/202/30 112/204/30
f 119/206/30 117/205/30 112/204/30
f 121/207/30 119/206/30 112/204/30
f 123/208/30 121/207/30 112/204/30
f 125/209/30 123/208/30 112/204/30
f 124/201/63 123/200/63 125/210/63
f 124/201/63 125/210/63 126/211/63
f 126/211/68 125/210/68 112/212/68
f 126/211/68 112/212/68 111/213/68
f 126/214/67 111/215/67 114/216/67
f 124/217/67 126/214/67 114/216/67
f 122/218/67 124/217/67 114/216/67
f 120/219/67 122/218/67 114/216/67
f 118/220/67 120/219/67 114/216/67
f 116/221/67 118/220/67 114/216/67
s off
