# Apple ModelIO OBJ File: moss1
mtllib moss1.mtl
g moss1
v -0.319784 2.15631 1.05752
v -0.27324 2.16622 1.17221
v 0.053033 2.11599 1.15939
v -0.015068 2.12728 1.34628
v 0.30105 2.02442 1.41436
v 0.09159 2.05381 1.4838
v 0.063154 1.89405 1.65788
v 0.182511 1.81963 1.609
v -0.141251 1.81248 1.70109
v -0.121412 1.72594 1.67788
v -0.518156 1.75067 1.64196
v -0.37285 1.89734 1.62573
v -0.881176 1.83616 1.57201
v -0.782781 1.9448 1.56887
v -0.990108 2.01583 1.42281
v -0.859129 2.08213 1.50701
v -0.801004 2.11568 1.42778
v -0.943196 2.06067 1.33075
vn 0.1496 0.987 -0.0587
vn 0.2768 0.9493 0.1491
vn 0.431 0.5498 0.7155
vn 0.2726 -0.187 0.9438
vn -0.1641 0.0588 0.9847
vn -0.1262 0.1943 0.9728
vn -0.4937 0.2633 0.8288
vn 0.0058 0.8002 0.5997
vn -0.4662 0.8771 0.1156
vn -0.185 0.9736 -0.1336
vn 0.004 -0.8028 -0.5963
vt 0.990587 0.572385
vt 0.990587 0.850433
vt 0.928799 0.572385
vt 0.928799 0.850433
vt 0.86701 0.572385
vt 0.86701 0.850433
vt 0.805222 0.850433
vt 0.805222 0.572385
vt 0.743433 0.850433
vt 0.743433 0.572385
vt 0.681644 0.572385
vt 0.681644 0.850433
vt 0.619856 0.572385
vt 0.619856 0.850433
vt 0.558067 0.572385
vt 0.558067 0.850433
vt 0.43421 0.817746
vt 0.358835 0.9483
vt 0.217175 0.99986
vt 0.408032 0.669285
vt 0.29255 0.572384
vt 0.1418 0.572384
vt 0.026318 0.669285
vt 0.00014 0.817746
vt 0.075515 0.9483
vt 0.496279 0.572385
vt 0.496279 0.850433
vt 0.43449 0.850433
vt 0.43449 0.572385
vt 0.100993 0.503117
vt 0.290534 0.572104
vt 0.480075 0.503117
vt 0.00014 0.328435
vt 0.035166 0.129794
vt 0.189681 0.00014
vt 0.391387 0.00014
vt 0.545902 0.129794
vt 0.580928 0.328435
usemtl 
f 1/1/1 2/2/1 3/3/1
f 2/2/1 4/4/1 3/3/1
f 3/3/2 4/4/2 5/5/2
f 4/4/2 6/6/2 5/5/2
f 5/5/3 6/6/3 7/7/3
f 5/5/3 7/7/3 8/8/3
f 8/8/4 7/7/4 9/9/4
f 8/8/4 9/9/4 10/10/4
f 10/10/5 9/9/5 11/11/5
f 9/9/5 12/12/5 11/11/5
f 11/11/6 12/12/6 13/13/6
f 12/12/6 14/14/6 13/13/6
f 13/13/7 14/14/7 15/15/7
f 14/14/7 16/16/7 15/15/7
f 6/17/8 4/18/8 2/19/8
f 7/20/8 6/17/8 2/19/8
f 9/21/8 7/20/8 2/19/8
f 12/22/8 9/21/8 2/19/8
f 14/23/8 12/22/8 2/19/8
f 16/24/8 14/23/8 2/19/8
f 17/25/8 16/24/8 2/19/8
f 15/15/9 16/16/9 18/26/9
f 16/16/9 17/27/9 18/26/9
f 18/26/10 17/27/10 2/28/10
f 18/26/10 2/28/10 1/29/10
f 18/30/11 1/31/11 3/32/11
f 15/33/11 18/30/11 3/32/11
f 13/34/11 15/33/11 3/32/11
f 11/35/11 13/34/11 3/32/11
f 10/36/11 11/35/11 3/32/11
f 8/37/11 10/36/11 3/32/11
f 5/38/11 8/37/11 3/32/11
s off
