# Apple ModelIO OBJ File: playsticmushroom3
mtllib playsticmushroom3.mtl
g mushroom3
v 0.910023 1.85739 0.029146
v 0.943896 1.8762 -0.032349
v 0.980215 1.8762 0.027733
v 0.968692 1.8915 -0.077366
v 0.977768 1.90782 -0.093844
v 1.05041 1.90782 0.02632
v 1.0316 1.8915 0.026699
v 0.968692 1.92432 -0.077366
v 0.943896 1.94063 -0.032349
v 1.0316 1.92432 0.026699
v 0.980215 1.94063 0.027733
v 0.910023 1.95945 0.029146
v 0.972931 1.8915 0.13321
v 0.982662 1.90782 0.149309
v 0.946343 1.94063 0.089227
v 0.972931 1.92432 0.13321
v 0.946343 1.8762 0.089227
v 0.87615 1.94063 0.09064
v 0.851354 1.92432 0.135657
v 0.87615 1.8762 0.09064
v 0.851354 1.8915 0.135657
v 0.842278 1.90782 0.152135
v 0.788447 1.8915 0.031592
v 0.839831 1.8762 0.030558
v 0.769639 1.90782 0.031971
v 0.788447 1.92432 0.031592
v 0.839831 1.94063 0.030558
v 0.847116 1.8915 -0.074919
v 0.873704 1.8762 -0.030936
v 0.837384 1.90782 -0.091018
v 0.847116 1.92432 -0.074919
v 0.873704 1.94063 -0.030936
v 0.806401 1.8719 -0.120584
v 0.830524 1.8853 -0.16438
v 0.85639 1.8853 -0.12159
v 0.848184 1.8962 -0.196441
v 0.854648 1.90782 -0.208176
v 0.892986 1.8962 -0.122327
v 0.90638 1.90782 -0.122597
v 0.848184 1.91957 -0.196441
v 0.830524 1.93119 -0.16438
v 0.892986 1.91957 -0.122327
v 0.85639 1.93119 -0.12159
v 0.806401 1.94459 -0.120584
v 0.858133 1.90782 -0.035005
v 0.851202 1.8962 -0.046471
v 0.832267 1.93119 -0.077795
v 0.851202 1.91957 -0.046471
v 0.832267 1.8853 -0.077795
v 0.764617 1.91957 -0.044728
v 0.782277 1.93119 -0.076789
v 0.764617 1.8962 -0.044728
v 0.782277 1.8853 -0.076789
v 0.758153 1.90782 -0.032993
v 0.756411 1.8853 -0.119578
v 0.719816 1.8962 -0.118842
v 0.706421 1.90782 -0.118572
v 0.719816 1.91957 -0.118842
v 0.756411 1.93119 -0.119578
v 0.780534 1.8853 -0.163374
v 0.761599 1.8962 -0.194698
v 0.761599 1.91957 -0.194698
v 0.754668 1.90782 -0.206163
v 0.780534 1.93119 -0.163374
v 0.734646 1.84641 -0.037039
v 0.734646 1.86072 -0.073339
v 0.790591 1.86072 -0.050165
v 0.764923 1.84641 -0.024497
v 0.734646 1.87462 -0.097593
v 0.734646 1.89128 -0.106111
v 0.807742 1.87462 -0.067316
v 0.813765 1.89128 -0.073339
v 0.734646 1.90625 -0.097593
v 0.734646 1.91765 -0.073339
v 0.807742 1.90625 -0.067316
v 0.790591 1.91765 -0.050165
v 0.734646 1.92912 -0.037039
v 0.734646 1.93764 0.00578
v 0.764923 1.92912 -0.024497
v 0.734646 1.83789 0.00578
v 0.813765 1.91765 0.00578
v 0.838019 1.90625 0.00578
v 0.777465 1.92912 0.00578
v 0.777465 1.84641 0.00578
v 0.813765 1.86072 0.00578
v 0.838019 1.87462 0.00578
v 0.846537 1.89128 0.00578
v 0.764923 1.84641 0.036057
v 0.807742 1.87462 0.078876
v 0.790591 1.86072 0.061725
v 0.807742 1.90625 0.078876
v 0.813765 1.89128 0.084898
v 0.790591 1.91765 0.061725
v 0.764923 1.92912 0.036057
v 0.734646 1.92912 0.048599
v 0.734646 1.91765 0.084898
v 0.734646 1.84641 0.048599
v 0.734646 1.86072 0.084898
v 0.734646 1.89128 0.11767
v 0.734646 1.87462 0.109153
v 0.734646 1.90625 0.109153
v 0.678701 1.86072 0.061725
v 0.704369 1.84641 0.036057
v 0.66155 1.87462 0.078876
v 0.655528 1.89128 0.084898
v 0.66155 1.90625 0.078876
v 0.678701 1.91765 0.061725
v 0.704369 1.92912 0.036057
v 0.691827 1.92912 0.00578
v 0.691827 1.84641 0.00578
v 0.655528 1.86072 0.00578
v 0.631273 1.87462 0.00578
v 0.622756 1.89128 0.00578
v 0.631273 1.90625 0.00578
v 0.655528 1.91765 0.00578
v 0.66155 1.87462 -0.067316
v 0.678701 1.86072 -0.050165
v 0.66155 1.90625 -0.067316
v 0.655528 1.89128 -0.073339
v 0.678701 1.91765 -0.050165
v 0.704369 1.92912 -0.024497
v 0.704369 1.84641 -0.024497
vn 0.253 -0.9553 -0.1529
vn 0.6058 -0.7063 -0.3662
vn 0.2946 0.9389 -0.1781
vn 0.2781 -0.9457 -0.1681
vn 0.6088 0.7028 -0.368
vn 0.253 0.9553 -0.1529
vn 0.6201 -0.7063 0.3415
vn 0.3015 0.9389 0.1661
vn 0.2847 -0.9457 0.1568
vn 0.6231 0.7028 0.3432
vn 0.2589 0.9553 0.1426
vn 0.2589 -0.9553 0.1426
vn 0.0069 0.9389 0.3442
vn 0.0065 -0.9457 0.3249
vn 0.0143 0.7028 0.7113
vn 0.0059 0.9553 0.2955
vn 0.0059 -0.9553 0.2955
vn 0.0142 -0.7063 0.7078
vn -0.2781 -0.9457 0.1681
vn -0.6088 0.7028 0.368
vn -0.253 0.9553 0.1529
vn -0.253 -0.9553 0.1529
vn -0.6058 -0.7063 0.3662
vn -0.2946 0.9389 0.1781
vn -0.2847 -0.9457 -0.1568
vn -0.6231 0.7028 -0.3432
vn -0.2589 0.9553 -0.1426
vn -0.2589 -0.9553 -0.1426
vn -0.6201 -0.7063 -0.3415
vn -0.3015 0.9389 -0.1661
vn -0.0065 -0.9457 -0.3249
vn -0.0143 0.7028 -0.7113
vn -0.0059 0.9553 -0.2955
vn -0.0059 -0.9553 -0.2955
vn -0.0142 -0.7063 -0.7078
vn -0.0069 0.9389 -0.3442
vn 0.1502 -0.9198 -0.3626
vn 0.346 -0.427 -0.8354
vn 0.1735 0.8914 -0.4188
vn 0.0805 0.9776 -0.1945
vn 0.0805 -0.9776 -0.1945
vn 0.2017 -0.8498 -0.487
vn 0.3387 0.4653 -0.8178
vn 0.1239 0.9461 -0.2991
vn 0.4188 0.8914 -0.1735
vn 0.1945 0.9776 -0.0805
vn 0.1945 -0.9776 -0.0805
vn 0.487 -0.8498 -0.2017
vn 0.8178 0.4653 -0.3387
vn 0.2991 0.9461 -0.1239
vn 0.3626 -0.9198 -0.1502
vn 0.8354 -0.427 -0.346
vn 0.1945 -0.9776 0.0805
vn 0.487 -0.8498 0.2017
vn 0.8178 0.4653 0.3387
vn 0.2991 0.9461 0.1239
vn 0.3626 -0.9198 0.1502
vn 0.8354 -0.427 0.346
vn 0.4188 0.8914 0.1735
vn 0.1945 0.9776 0.0805
vn 0.1239 0.9461 0.2991
vn 0.1502 -0.9198 0.3626
vn 0.346 -0.427 0.8354
vn 0.1735 0.8914 0.4188
vn 0.0805 0.9776 0.1945
vn 0.0805 -0.9776 0.1945
vn 0.2017 -0.8498 0.487
vn 0.3387 0.4653 0.8178
vn -0.1502 -0.9198 0.3626
vn -0.346 -0.427 0.8354
vn -0.1735 0.8914 0.4188
vn -0.0805 0.9776 0.1945
vn -0.0805 -0.9776 0.1945
vn -0.2017 -0.8498 0.487
vn -0.3387 0.4653 0.8178
vn -0.1239 0.9461 0.2991
vn -0.1945 0.9776 0.0805
vn -0.1945 -0.9776 0.0805
vn -0.487 -0.8498 0.2017
vn -0.8178 0.4653 0.3387
vn -0.2991 0.9461 0.1239
vn -0.3626 -0.9198 0.1502
vn -0.8354 -0.427 0.346
vn -0.4188 0.8914 0.1735
vn -0.487 -0.8498 -0.2017
vn -0.8178 0.4653 -0.3387
vn -0.2991 0.9461 -0.1239
vn -0.3626 -0.9198 -0.1502
vn -0.8354 -0.427 -0.346
vn -0.4188 0.8914 -0.1735
vn -0.1945 0.9776 -0.0805
vn -0.1945 -0.9776 -0.0805
vn -0.1502 -0.9198 -0.3626
vn -0.346 -0.427 -0.8354
vn -0.1735 0.8914 -0.4188
vn -0.0805 0.9776 -0.1945
vn -0.0805 -0.9776 -0.1945
vn -0.2017 -0.8498 -0.487
vn -0.3387 0.4653 -0.8178
vn -0.1239 0.9461 -0.2991
vt 0.332608 0.00057
vt 0.380042 0.095438
vt 0.285174 0.095438
vt 0.380042 0.190306
vt 0.380042 0.285174
vt 0.285174 0.285174
vt 0.285174 0.190306
vt 0.380042 0.380041
vt 0.380042 0.474909
vt 0.285174 0.380041
vt 0.285174 0.474909
vt 0.332608 0.569777
vt 0.190306 0.190306
vt 0.190306 0.285174
vt 0.190306 0.474909
vt 0.190306 0.380041
vt 0.190306 0.095438
vt 0.23774 0.569777
vt 0.23774 0.00057
vt 0.095438 0.474909
vt 0.095438 0.380041
vt 0.095438 0.095438
vt 0.095438 0.190306
vt 0.095438 0.285174
vt 0.142872 0.569777
vt 0.142872 0.00057
vt 0.00057 0.190306
vt 0.00057 0.095438
vt 0.00057 0.285174
vt 0.00057 0.380041
vt 0.048004 0.569777
vt 0.00057 0.474909
vt 0.048004 0.00057
vt 0.569777 0.095438
vt 0.569777 0.190306
vt 0.474909 0.190306
vt 0.474909 0.095438
vt 0.569777 0.285174
vt 0.569777 0.380041
vt 0.474909 0.285174
vt 0.474909 0.380041
vt 0.569777 0.474909
vt 0.522343 0.569777
vt 0.474909 0.474909
vt 0.522343 0.00057
vt 0.427476 0.569777
vt 0.427476 0.00057
vt 0.244205 0.560546
vt 0.277987 0.62811
vt 0.210423 0.62811
vt 0.277987 0.695673
vt 0.277986 0.763237
vt 0.210423 0.695673
vt 0.210423 0.763237
vt 0.277987 0.8308
vt 0.277987 0.898364
vt 0.210423 0.8308
vt 0.210423 0.898364
vt 0.244205 0.965927
vt 0.14286 0.763237
vt 0.14286 0.695673
vt 0.14286 0.898364
vt 0.14286 0.8308
vt 0.14286 0.62811
vt 0.176641 0.965927
vt 0.176641 0.560546
vt 0.075296 0.8308
vt 0.075296 0.898364
vt 0.075296 0.695673
vt 0.075296 0.62811
vt 0.075296 0.763237
vt 0.109078 0.965927
vt 0.109078 0.560546
vt 0.007733 0.62811
vt 0.007733 0.695673
vt 0.007733 0.763237
vt 0.007733 0.8308
vt 0.041514 0.965927
vt 0.007733 0.898364
vt 0.041514 0.560546
vt 0.413113 0.62811
vt 0.413113 0.695673
vt 0.34555 0.62811
vt 0.34555 0.695673
vt 0.413113 0.763237
vt 0.413113 0.8308
vt 0.34555 0.8308
vt 0.34555 0.763237
vt 0.413113 0.898364
vt 0.379332 0.965927
vt 0.34555 0.898364
vt 0.379332 0.560546
vt 0.311768 0.965927
vt 0.311768 0.560546
vt 0.824765 0.575636
vt 0.824765 0.636239
vt 0.764162 0.636239
vt 0.764162 0.575636
vt 0.824765 0.696841
vt 0.824765 0.757444
vt 0.764162 0.696841
vt 0.764162 0.757444
vt 0.824765 0.818047
vt 0.824765 0.878649
vt 0.764162 0.818047
vt 0.764162 0.878649
vt 0.824765 0.939252
vt 0.794463 0.999854
vt 0.764162 0.939252
vt 0.794463 0.515034
vt 0.70356 0.878649
vt 0.70356 0.818047
vt 0.733861 0.999854
vt 0.70356 0.939252
vt 0.733861 0.515034
vt 0.70356 0.575636
vt 0.70356 0.636239
vt 0.70356 0.696841
vt 0.70356 0.757444
vt 0.673258 0.515034
vt 0.642957 0.575636
vt 0.642957 0.696841
vt 0.642957 0.636239
vt 0.642957 0.818047
vt 0.642957 0.757444
vt 0.642957 0.878649
vt 0.642957 0.939252
vt 0.673258 0.999854
vt 0.582354 0.939252
vt 0.582354 0.878649
vt 0.582354 0.575636
vt 0.582354 0.636239
vt 0.582354 0.757444
vt 0.582354 0.696841
vt 0.582354 0.818047
vt 0.612656 0.999854
vt 0.612656 0.515034
vt 0.521752 0.636239
vt 0.521752 0.575636
vt 0.521752 0.696841
vt 0.521752 0.757444
vt 0.521752 0.818047
vt 0.521752 0.878649
vt 0.552053 0.999854
vt 0.521752 0.939252
vt 0.552053 0.515034
vt 0.491451 0.999854
vt 0.461149 0.939252
vt 0.491451 0.515034
vt 0.461149 0.575636
vt 0.461149 0.636239
vt 0.461149 0.696841
vt 0.461149 0.757444
vt 0.461149 0.818047
vt 0.461149 0.878649
vt 0.94597 0.636239
vt 0.94597 0.696841
vt 0.885367 0.696841
vt 0.885367 0.636239
vt 0.94597 0.757444
vt 0.94597 0.818047
vt 0.885367 0.818047
vt 0.885367 0.757444
vt 0.94597 0.878649
vt 0.94597 0.939252
vt 0.885367 0.878649
vt 0.885367 0.939252
vt 0.94597 0.575636
vt 0.885367 0.575636
vt 0.915668 0.999854
vt 0.915668 0.515034
vt 0.855066 0.999854
vt 0.855066 0.515034
usemtl 
f 1/1/1 2/2/1 3/3/1
f 4/4/2 5/5/2 6/6/2
f 4/4/2 6/6/2 7/7/2
f 8/8/3 9/9/3 10/10/3
f 9/9/3 11/11/3 10/10/3
f 2/2/4 4/4/4 7/7/4
f 2/2/4 7/7/4 3/3/4
f 5/5/5 8/8/5 6/6/5
f 8/8/5 10/10/5 6/6/5
f 9/9/6 12/12/6 11/11/6
f 7/7/7 6/6/7 13/13/7
f 6/6/7 14/14/7 13/13/7
f 10/10/8 11/11/8 15/15/8
f 10/10/8 15/15/8 16/16/8
f 3/3/9 7/7/9 17/17/9
f 7/7/9 13/13/9 17/17/9
f 6/6/10 10/10/10 16/16/10
f 6/6/10 16/16/10 14/14/10
f 11/11/11 12/18/11 15/15/11
f 1/19/12 3/3/12 17/17/12
f 16/16/13 15/15/13 18/20/13
f 16/16/13 18/20/13 19/21/13
f 17/17/14 13/13/14 20/22/14
f 13/13/14 21/23/14 20/22/14
f 14/14/15 16/16/15 22/24/15
f 16/16/15 19/21/15 22/24/15
f 15/15/16 12/25/16 18/20/16
f 1/26/17 17/17/17 20/22/17
f 13/13/18 14/14/18 22/24/18
f 13/13/18 22/24/18 21/23/18
f 20/22/19 21/23/19 23/27/19
f 20/22/19 23/27/19 24/28/19
f 22/24/20 19/21/20 25/29/20
f 19/21/20 26/30/20 25/29/20
f 18/20/21 12/31/21 27/32/21
f 1/33/22 20/22/22 24/28/22
f 21/23/23 22/24/23 25/29/23
f 21/23/23 25/29/23 23/27/23
f 19/21/24 18/20/24 26/30/24
f 18/20/24 27/32/24 26/30/24
f 24/34/25 23/35/25 28/36/25
f 24/34/25 28/36/25 29/37/25
f 25/38/26 26/39/26 30/40/26
f 26/39/26 31/41/26 30/40/26
f 27/42/27 12/43/27 32/44/27
f 1/45/28 24/34/28 29/37/28
f 23/35/29 25/38/29 30/40/29
f 23/35/29 30/40/29 28/36/29
f 26/39/30 27/42/30 31/41/30
f 27/42/30 32/44/30 31/41/30
f 29/37/31 28/36/31 2/2/31
f 28/36/31 4/4/31 2/2/31
f 30/40/32 31/41/32 5/5/32
f 31/41/32 8/8/32 5/5/32
f 32/44/33 12/46/33 9/9/33
f 1/47/34 29/37/34 2/2/34
f 28/36/35 30/40/35 5/5/35
f 28/36/35 5/5/35 4/4/35
f 31/41/36 32/44/36 9/9/36
f 31/41/36 9/9/36 8/8/36
f 33/48/1 34/49/1 35/50/1
f 36/51/2 37/52/2 38/53/2
f 37/52/2 39/54/2 38/53/2
f 40/55/3 41/56/3 42/57/3
f 41/56/3 43/58/3 42/57/3
f 34/49/4 36/51/4 38/53/4
f 34/49/4 38/53/4 35/50/4
f 37/52/5 40/55/5 42/57/5
f 37/52/5 42/57/5 39/54/5
f 41/56/6 44/59/6 43/58/6
f 38/53/7 39/54/7 45/60/7
f 38/53/7 45/60/7 46/61/7
f 42/57/8 43/58/8 47/62/8
f 42/57/8 47/62/8 48/63/8
f 35/50/9 38/53/9 49/64/9
f 38/53/9 46/61/9 49/64/9
f 39/54/10 42/57/10 45/60/10
f 42/57/10 48/63/10 45/60/10
f 43/58/11 44/65/11 47/62/11
f 33/66/12 35/50/12 49/64/12
f 48/63/13 47/62/13 50/67/13
f 47/62/13 51/68/13 50/67/13
f 49/64/14 46/61/14 52/69/14
f 49/64/14 52/69/14 53/70/14
f 45/60/15 48/63/15 50/67/15
f 45/60/15 50/67/15 54/71/15
f 47/62/16 44/72/16 51/68/16
f 33/73/17 49/64/17 53/70/17
f 46/61/18 45/60/18 52/69/18
f 45/60/18 54/71/18 52/69/18
f 53/70/19 52/69/19 55/74/19
f 52/69/19 56/75/19 55/74/19
f 54/71/20 50/67/20 57/76/20
f 50/67/20 58/77/20 57/76/20
f 51/68/21 44/78/21 59/79/21
f 33/80/22 53/70/22 55/74/22
f 52/69/23 54/71/23 57/76/23
f 52/69/23 57/76/23 56/75/23
f 50/67/24 51/68/24 59/79/24
f 50/67/24 59/79/24 58/77/24
f 55/81/25 56/82/25 60/83/25
f 56/82/25 61/84/25 60/83/25
f 57/85/26 58/86/26 62/87/26
f 57/85/26 62/87/26 63/88/26
f 59/89/27 44/90/27 64/91/27
f 33/92/28 55/81/28 60/83/28
f 56/82/29 57/85/29 61/84/29
f 57/85/29 63/88/29 61/84/29
f 58/86/30 59/89/30 64/91/30
f 58/86/30 64/91/30 62/87/30
f 60/83/31 61/84/31 36/51/31
f 60/83/31 36/51/31 34/49/31
f 63/88/32 62/87/32 37/52/32
f 62/87/32 40/55/32 37/52/32
f 64/91/33 44/93/33 41/56/33
f 33/94/34 60/83/34 34/49/34
f 61/84/35 63/88/35 37/52/35
f 61/84/35 37/52/35 36/51/35
f 62/87/36 64/91/36 40/55/36
f 64/91/36 41/56/36 40/55/36
f 65/95/37 66/96/37 67/97/37
f 65/95/37 67/97/37 68/98/37
f 69/99/38 70/100/38 71/101/38
f 70/100/38 72/102/38 71/101/38
f 73/103/39 74/104/39 75/105/39
f 74/104/39 76/106/39 75/105/39
f 77/107/40 78/108/40 79/109/40
f 80/110/41 65/95/41 68/98/41
f 66/96/42 69/99/42 71/101/42
f 66/96/42 71/101/42 67/97/42
f 70/100/43 73/103/43 75/105/43
f 70/100/43 75/105/43 72/102/43
f 74/104/44 77/107/44 76/106/44
f 77/107/44 79/109/44 76/106/44
f 75/105/45 76/106/45 81/111/45
f 75/105/45 81/111/45 82/112/45
f 79/109/46 78/113/46 83/114/46
f 80/115/47 68/98/47 84/116/47
f 67/97/48 71/101/48 85/117/48
f 71/101/48 86/118/48 85/117/48
f 72/102/49 75/105/49 87/119/49
f 75/105/49 82/112/49 87/119/49
f 76/106/50 79/109/50 83/114/50
f 76/106/50 83/114/50 81/111/50
f 68/98/51 67/97/51 84/116/51
f 67/97/51 85/117/51 84/116/51
f 71/101/52 72/102/52 87/119/52
f 71/101/52 87/119/52 86/118/52
f 80/120/53 84/116/53 88/121/53
f 85/117/54 86/118/54 89/122/54
f 85/117/54 89/122/54 90/123/54
f 87/119/55 82/112/55 91/124/55
f 87/119/55 91/124/55 92/125/55
f 81/111/56 83/114/56 93/126/56
f 83/114/56 94/127/56 93/126/56
f 84/116/57 85/117/57 90/123/57
f 84/116/57 90/123/57 88/121/57
f 86/118/58 87/119/58 89/122/58
f 87/119/58 92/125/58 89/122/58
f 82/112/59 81/111/59 91/124/59
f 81/111/59 93/126/59 91/124/59
f 83/114/60 78/128/60 94/127/60
f 93/126/61 94/127/61 95/129/61
f 93/126/61 95/129/61 96/130/61
f 88/121/62 90/123/62 97/131/62
f 90/123/62 98/132/62 97/131/62
f 89/122/63 92/125/63 99/133/63
f 89/122/63 99/133/63 100/134/63
f 91/124/64 93/126/64 96/130/64
f 91/124/64 96/130/64 101/135/64
f 94/127/65 78/136/65 95/129/65
f 80/137/66 88/121/66 97/131/66
f 90/123/67 89/122/67 98/132/67
f 89/122/67 100/134/67 98/132/67
f 92/125/68 91/124/68 99/133/68
f 91/124/68 101/135/68 99/133/68
f 97/131/69 98/132/69 102/138/69
f 97/131/69 102/138/69 103/139/69
f 100/134/70 99/133/70 104/140/70
f 99/133/70 105/141/70 104/140/70
f 101/135/71 96/130/71 106/142/71
f 96/130/71 107/143/71 106/142/71
f 95/129/72 78/144/72 108/145/72
f 80/146/73 97/131/73 103/139/73
f 98/132/74 100/134/74 104/140/74
f 98/132/74 104/140/74 102/138/74
f 99/133/75 101/135/75 106/142/75
f 99/133/75 106/142/75 105/141/75
f 96/130/76 95/129/76 107/143/76
f 95/129/76 108/145/76 107/143/76
f 108/145/77 78/147/77 109/148/77
f 80/149/78 103/139/78 110/150/78
f 102/138/79 104/140/79 111/151/79
f 104/140/79 112/152/79 111/151/79
f 105/141/80 106/142/80 113/153/80
f 106/142/80 114/154/80 113/153/80
f 107/143/81 108/145/81 109/148/81
f 107/143/81 109/148/81 115/155/81
f 103/139/82 102/138/82 110/150/82
f 102/138/82 111/151/82 110/150/82
f 104/140/83 105/141/83 113/153/83
f 104/140/83 113/153/83 112/152/83
f 106/142/84 107/143/84 115/155/84
f 106/142/84 115/155/84 114/154/84
f 111/156/85 112/157/85 116/158/85
f 111/156/85 116/158/85 117/159/85
f 113/160/86 114/161/86 118/162/86
f 113/160/86 118/162/86 119/163/86
f 115/164/87 109/165/87 120/166/87
f 109/165/87 121/167/87 120/166/87
f 110/168/88 111/156/88 117/159/88
f 110/168/88 117/159/88 122/169/88
f 112/157/89 113/160/89 116/158/89
f 113/160/89 119/163/89 116/158/89
f 114/161/90 115/164/90 118/162/90
f 115/164/90 120/166/90 118/162/90
f 109/165/91 78/170/91 121/167/91
f 80/171/92 110/168/92 122/169/92
f 122/169/93 117/159/93 65/95/93
f 117/159/93 66/96/93 65/95/93
f 116/158/94 119/163/94 70/100/94
f 116/158/94 70/100/94 69/99/94
f 118/162/95 120/166/95 74/104/95
f 118/162/95 74/104/95 73/103/95
f 121/167/96 78/172/96 77/107/96
f 80/173/97 122/169/97 65/95/97
f 117/159/98 116/158/98 66/96/98
f 116/158/98 69/99/98 66/96/98
f 119/163/99 118/162/99 70/100/99
f 118/162/99 73/103/99 70/100/99
f 120/166/100 121/167/100 77/107/100
f 120/166/100 77/107/100 74/104/100
s off
