# Apple ModelIO OBJ File: playsticmushroom1
mtllib playsticmushroom1.mtl
g mushroom1
v -0.062109 1.85408 0.14
v -0.062109 1.86748 0.09
v -0.018807 1.86748 0.115
v -0.062109 1.87837 0.053397
v -0.062109 1.89 0.04
v 0.024494 1.89 0.09
v 0.012891 1.87837 0.096699
v -0.062109 1.90174 0.053397
v -0.062109 1.91337 0.09
v -0.018807 1.91337 0.115
v 0.012891 1.90174 0.096699
v -0.062109 1.92676 0.14
v 0.012891 1.87837 0.183301
v 0.024494 1.89 0.19
v -0.018807 1.91337 0.165
v 0.012891 1.90174 0.183301
v -0.018807 1.86748 0.165
v -0.062109 1.90174 0.226603
v -0.062109 1.91337 0.19
v -0.062109 1.87837 0.226603
v -0.062109 1.86748 0.19
v -0.062109 1.89 0.24
v -0.10541 1.86748 0.165
v -0.137109 1.87837 0.183301
v -0.148711 1.89 0.19
v -0.137109 1.90174 0.183301
v -0.10541 1.91337 0.165
v -0.137109 1.87837 0.096699
v -0.10541 1.86748 0.115
v -0.137109 1.90174 0.096699
v -0.148711 1.89 0.09
v -0.10541 1.91337 0.115
v 0 1.84726 -0.042003
v 0 1.8613 -0.077611
v 0.054879 1.8613 -0.054879
v 0.0297 1.84726 -0.0297
v 0 1.87494 -0.101403
v 0 1.89128 -0.109758
v 0.071703 1.87494 -0.071703
v 0.07761 1.89128 -0.077611
v 0 1.90597 -0.101403
v 0 1.91715 -0.077611
v 0.071703 1.90597 -0.071703
v 0.054879 1.91715 -0.054879
v 0 1.9284 -0.042003
v 0 1.93676 0
v 0.0297 1.9284 -0.0297
v 0 1.83891 0
v 0.101403 1.90597 0
v 0.07761 1.91715 0
v 0.042003 1.9284 0
v 0.042003 1.84726 0
v 0.101403 1.87494 0
v 0.07761 1.8613 0
v 0.109758 1.89128 0
v 0.0297 1.84726 0.0297
v 0.054879 1.8613 0.054879
v 0.071703 1.87494 0.071703
v 0.071703 1.90597 0.071703
v 0.07761 1.89128 0.077611
v 0.054879 1.91715 0.054879
v 0.0297 1.9284 0.0297
v 0 1.9284 0.042003
v 0 1.91715 0.077611
v 0 1.84726 0.042003
v 0 1.8613 0.077611
v 0 1.89128 0.109758
v 0 1.87494 0.101403
v 0 1.90597 0.101403
v -0.054879 1.8613 0.054879
v -0.0297 1.84726 0.0297
v -0.077611 1.89128 0.077611
v -0.071703 1.87494 0.071703
v -0.071703 1.90597 0.071703
v -0.054879 1.91715 0.054879
v -0.0297 1.9284 0.0297
v -0.042003 1.9284 0
v -0.042003 1.84726 0
v -0.077611 1.8613 0
v -0.101403 1.87494 0
v -0.101403 1.90597 0
v -0.109758 1.89128 0
v -0.077611 1.91715 0
v -0.071703 1.87494 -0.071703
v -0.054879 1.8613 -0.054879
v -0.077611 1.89128 -0.077611
v -0.071703 1.90597 -0.071703
v -0.054879 1.91715 -0.054879
v -0.0297 1.9284 -0.0297
v -0.0297 1.84726 -0.0297
v -0.127063 1.8719 0.029146
v -0.102939 1.8853 -0.01465
v -0.077073 1.8853 0.028139
v -0.085279 1.8962 -0.046711
v -0.078816 1.90782 -0.058446
v -0.027083 1.90782 0.027133
v -0.040478 1.8962 0.027403
v -0.085279 1.91957 -0.046711
v -0.102939 1.93119 -0.01465
v -0.077073 1.93119 0.028139
v -0.040478 1.91957 0.027403
v -0.127063 1.94459 0.029146
v -0.082261 1.8962 0.103259
v -0.07533 1.90782 0.114724
v -0.101196 1.93119 0.071935
v -0.082261 1.91957 0.103259
v -0.101196 1.8853 0.071935
v -0.168846 1.91957 0.105002
v -0.151186 1.93119 0.072941
v -0.168846 1.8962 0.105002
v -0.151186 1.8853 0.072941
v -0.17531 1.90782 0.116737
v -0.177053 1.8853 0.030152
v -0.213648 1.8962 0.030888
v -0.227043 1.90782 0.031158
v -0.213648 1.91957 0.030888
v -0.177053 1.93119 0.030152
v -0.152929 1.8853 -0.013644
v -0.171864 1.8962 -0.044968
v -0.178795 1.90782 -0.056433
v -0.171864 1.91957 -0.044968
v -0.152929 1.93119 -0.013644
vn 0.1478 -0.9553 -0.256
vn 0.3539 -0.7063 -0.6131
vn 0.1721 0.9389 -0.2981
vn 0.1625 -0.9457 -0.2814
vn 0.3557 0.7028 -0.6161
vn 0.1478 0.9553 -0.256
vn 0.7079 -0.7063 -0
vn 0.3442 0.9389 -0
vn 0.325 -0.9457 -0
vn 0.7114 0.7028 -0
vn 0.2956 0.9553 -0
vn 0.2956 -0.9553 -0
vn 0.1721 0.9389 0.2981
vn 0.1625 -0.9457 0.2814
vn 0.3557 0.7028 0.6161
vn 0.1478 0.9553 0.256
vn 0.1478 -0.9553 0.256
vn 0.3539 -0.7063 0.6131
vn -0.1625 -0.9457 0.2814
vn -0.3557 0.7028 0.6161
vn -0.1478 0.9553 0.256
vn -0.1478 -0.9553 0.256
vn -0.354 -0.7063 0.6131
vn -0.1721 0.9389 0.2981
vn -0.325 -0.9457 -0
vn -0.7114 0.7028 -0
vn -0.2956 0.9553 -0
vn -0.2956 -0.9553 -0
vn -0.7079 -0.7063 -0
vn -0.3442 0.9389 -0
vn -0.1625 -0.9457 -0.2814
vn -0.3557 0.7028 -0.6161
vn -0.1478 0.9553 -0.256
vn -0.1478 -0.9553 -0.256
vn -0.3539 -0.7063 -0.6131
vn -0.1721 0.9389 -0.2981
vn 0.1502 -0.9198 -0.3626
vn 0.346 -0.427 -0.8354
vn 0.1735 0.8914 -0.4188
vn 0.0805 0.9776 -0.1945
vn 0.0805 -0.9776 -0.1945
vn 0.2017 -0.8498 -0.487
vn 0.3387 0.4653 -0.8178
vn 0.1239 0.9461 -0.2991
vn 0.4188 0.8914 -0.1735
vn 0.1945 0.9776 -0.0805
vn 0.1945 -0.9776 -0.0805
vn 0.487 -0.8498 -0.2017
vn 0.8178 0.4653 -0.3387
vn 0.2991 0.9461 -0.1239
vn 0.3626 -0.9198 -0.1502
vn 0.8354 -0.427 -0.346
vn 0.1945 -0.9776 0.0805
vn 0.487 -0.8498 0.2017
vn 0.8178 0.4653 0.3387
vn 0.2991 0.9461 0.1239
vn 0.3626 -0.9198 0.1502
vn 0.8354 -0.427 0.346
vn 0.4188 0.8914 0.1735
vn 0.1945 0.9776 0.0805
vn 0.1239 0.9461 0.2991
vn 0.1502 -0.9198 0.3626
vn 0.346 -0.427 0.8354
vn 0.1735 0.8914 0.4188
vn 0.0805 0.9776 0.1945
vn 0.0805 -0.9776 0.1945
vn 0.2017 -0.8498 0.487
vn 0.3387 0.4653 0.8178
vn -0.1502 -0.9198 0.3626
vn -0.346 -0.427 0.8354
vn -0.1735 0.8914 0.4188
vn -0.0805 0.9776 0.1945
vn -0.0805 -0.9776 0.1945
vn -0.2017 -0.8498 0.487
vn -0.3387 0.4653 0.8178
vn -0.1239 0.9461 0.2991
vn -0.1945 0.9776 0.0805
vn -0.1945 -0.9776 0.0805
vn -0.487 -0.8498 0.2017
vn -0.8178 0.4653 0.3387
vn -0.2991 0.9461 0.1239
vn -0.3626 -0.9198 0.1502
vn -0.8354 -0.427 0.346
vn -0.4188 0.8914 0.1735
vn -0.487 -0.8498 -0.2017
vn -0.8178 0.4653 -0.3387
vn -0.2991 0.9461 -0.1239
vn -0.3626 -0.9198 -0.1502
vn -0.8354 -0.427 -0.346
vn -0.4188 0.8914 -0.1735
vn -0.1945 0.9776 -0.0805
vn -0.1945 -0.9776 -0.0805
vn -0.1502 -0.9198 -0.3626
vn -0.346 -0.427 -0.8354
vn -0.1735 0.8914 -0.4188
vn -0.0805 0.9776 -0.1945
vn -0.0805 -0.9776 -0.1945
vn -0.2017 -0.8498 -0.487
vn -0.3387 0.4653 -0.8178
vn -0.1239 0.9461 -0.2991
vn 0.253 -0.9553 -0.1529
vn 0.6058 -0.7063 -0.3662
vn 0.2946 0.9389 -0.1781
vn 0.2781 -0.9457 -0.1681
vn 0.6088 0.7028 -0.368
vn 0.253 0.9553 -0.1529
vn 0.6201 -0.7063 0.3415
vn 0.3015 0.9389 0.1661
vn 0.2847 -0.9457 0.1568
vn 0.6231 0.7028 0.3432
vn 0.2589 0.9553 0.1426
vn 0.2589 -0.9553 0.1426
vn 0.0069 0.9389 0.3442
vn 0.0065 -0.9457 0.3249
vn 0.0143 0.7028 0.7113
vn 0.0059 0.9553 0.2955
vn 0.0059 -0.9553 0.2955
vn 0.0142 -0.7063 0.7078
vn -0.2781 -0.9457 0.1681
vn -0.6088 0.7028 0.368
vn -0.253 0.9553 0.1529
vn -0.253 -0.9553 0.1529
vn -0.6058 -0.7063 0.3662
vn -0.2946 0.9389 0.1781
vn -0.2847 -0.9457 -0.1568
vn -0.6231 0.7028 -0.3432
vn -0.2589 0.9553 -0.1426
vn -0.2589 -0.9553 -0.1426
vn -0.6201 -0.7063 -0.3415
vn -0.3015 0.9389 -0.1661
vn -0.0065 -0.9457 -0.3249
vn -0.0143 0.7028 -0.7113
vn -0.0059 0.9553 -0.2955
vn -0.0059 -0.9553 -0.2955
vn -0.0142 -0.7063 -0.7078
vn -0.0069 0.9389 -0.3442
vt 0.268415 0.539965
vt 0.306739 0.616613
vt 0.23009 0.616613
vt 0.306739 0.693261
vt 0.306739 0.76991
vt 0.23009 0.76991
vt 0.23009 0.693261
vt 0.306739 0.846558
vt 0.306739 0.923206
vt 0.23009 0.923206
vt 0.23009 0.846558
vt 0.268415 0.999854
vt 0.153442 0.693261
vt 0.153442 0.76991
vt 0.153442 0.923206
vt 0.153442 0.846558
vt 0.153442 0.616613
vt 0.191766 0.999854
vt 0.191766 0.539965
vt 0.076794 0.846558
vt 0.076794 0.923206
vt 0.076794 0.693261
vt 0.076794 0.616613
vt 0.076794 0.76991
vt 0.115118 0.999854
vt 0.115118 0.539965
vt 0.000146 0.616613
vt 0.000146 0.693261
vt 0.000146 0.76991
vt 0.000146 0.846558
vt 0.03847 0.999854
vt 0.000146 0.923206
vt 0.03847 0.539965
vt 0.460035 0.616613
vt 0.460035 0.693261
vt 0.383387 0.693261
vt 0.383387 0.616613
vt 0.460035 0.76991
vt 0.460035 0.846558
vt 0.383387 0.846558
vt 0.383387 0.76991
vt 0.460035 0.923206
vt 0.421711 0.999854
vt 0.383387 0.923206
vt 0.421711 0.539965
vt 0.345063 0.999854
vt 0.345063 0.539965
vt 0.404791 0.067587
vt 0.404791 0.135028
vt 0.33735 0.135028
vt 0.33735 0.067587
vt 0.404791 0.202469
vt 0.404791 0.26991
vt 0.33735 0.202469
vt 0.33735 0.26991
vt 0.404791 0.33735
vt 0.404791 0.404791
vt 0.33735 0.33735
vt 0.33735 0.404791
vt 0.404791 0.472232
vt 0.371071 0.539673
vt 0.33735 0.472232
vt 0.371071 0.000146
vt 0.26991 0.33735
vt 0.26991 0.404791
vt 0.30363 0.539673
vt 0.26991 0.472232
vt 0.30363 0.000146
vt 0.26991 0.067587
vt 0.26991 0.202469
vt 0.26991 0.135028
vt 0.26991 0.26991
vt 0.236189 0.000146
vt 0.202469 0.067587
vt 0.202469 0.135028
vt 0.202469 0.202469
vt 0.202469 0.33735
vt 0.202469 0.26991
vt 0.202469 0.404791
vt 0.202469 0.472232
vt 0.236189 0.539673
vt 0.135028 0.472232
vt 0.135028 0.404791
vt 0.135028 0.067587
vt 0.135028 0.135028
vt 0.135028 0.26991
vt 0.135028 0.202469
vt 0.135028 0.33735
vt 0.168748 0.539673
vt 0.168748 0.000146
vt 0.067587 0.135028
vt 0.067587 0.067587
vt 0.067587 0.26991
vt 0.067587 0.202469
vt 0.067587 0.33735
vt 0.067587 0.404791
vt 0.101307 0.539673
vt 0.067587 0.472232
vt 0.101307 0.000146
vt 0.033866 0.539673
vt 0.000146 0.472232
vt 0.033866 0.000146
vt 0.000146 0.067587
vt 0.000146 0.135028
vt 0.000146 0.202469
vt 0.000146 0.33735
vt 0.000146 0.26991
vt 0.000146 0.404791
vt 0.539673 0.135028
vt 0.539673 0.202469
vt 0.472232 0.202469
vt 0.472232 0.135028
vt 0.539673 0.26991
vt 0.539673 0.33735
vt 0.472232 0.26991
vt 0.472232 0.33735
vt 0.539673 0.404791
vt 0.539673 0.472232
vt 0.472232 0.404791
vt 0.472232 0.472232
vt 0.539673 0.067587
vt 0.472232 0.067587
vt 0.505953 0.539673
vt 0.505953 0.000146
vt 0.438512 0.539673
vt 0.438512 0.000146
vt 0.808234 0.000146
vt 0.846558 0.076794
vt 0.76991 0.076794
vt 0.846558 0.153442
vt 0.846558 0.23009
vt 0.76991 0.23009
vt 0.76991 0.153442
vt 0.846558 0.306739
vt 0.846558 0.383387
vt 0.76991 0.383387
vt 0.76991 0.306739
vt 0.808234 0.460035
vt 0.693261 0.153442
vt 0.693261 0.23009
vt 0.693261 0.383387
vt 0.693261 0.306739
vt 0.693261 0.076794
vt 0.731585 0.460035
vt 0.731585 0.000146
vt 0.616613 0.306739
vt 0.616613 0.383387
vt 0.616613 0.153442
vt 0.616613 0.076794
vt 0.616613 0.23009
vt 0.654937 0.460035
vt 0.654937 0.000146
vt 0.539965 0.076794
vt 0.539965 0.153442
vt 0.539965 0.23009
vt 0.539965 0.306739
vt 0.578289 0.460035
vt 0.539965 0.383387
vt 0.578289 0.000146
vt 0.999854 0.076794
vt 0.999854 0.153442
vt 0.923206 0.076794
vt 0.923206 0.153442
vt 0.999854 0.23009
vt 0.999854 0.306739
vt 0.923206 0.23009
vt 0.923206 0.306739
vt 0.999854 0.383387
vt 0.96153 0.460035
vt 0.923206 0.383387
vt 0.96153 0.000146
vt 0.884882 0.460035
vt 0.884882 0.000146
usemtl 
f 1/1/1 2/2/1 3/3/1
f 4/4/2 5/5/2 6/6/2
f 4/4/2 6/6/2 7/7/2
f 8/8/3 9/9/3 10/10/3
f 8/8/3 10/10/3 11/11/3
f 2/2/4 4/4/4 3/3/4
f 4/4/4 7/7/4 3/3/4
f 5/5/5 8/8/5 6/6/5
f 8/8/5 11/11/5 6/6/5
f 9/9/6 12/12/6 10/10/6
f 7/7/7 6/6/7 13/13/7
f 6/6/7 14/14/7 13/13/7
f 11/11/8 10/10/8 15/15/8
f 11/11/8 15/15/8 16/16/8
f 3/3/9 7/7/9 13/13/9
f 3/3/9 13/13/9 17/17/9
f 6/6/10 11/11/10 16/16/10
f 6/6/10 16/16/10 14/14/10
f 10/10/11 12/18/11 15/15/11
f 1/19/12 3/3/12 17/17/12
f 16/16/13 15/15/13 18/20/13
f 15/15/13 19/21/13 18/20/13
f 17/17/14 13/13/14 20/22/14
f 17/17/14 20/22/14 21/23/14
f 14/14/15 16/16/15 18/20/15
f 14/14/15 18/20/15 22/24/15
f 15/15/16 12/25/16 19/21/16
f 1/26/17 17/17/17 21/23/17
f 13/13/18 14/14/18 20/22/18
f 14/14/18 22/24/18 20/22/18
f 21/23/19 20/22/19 23/27/19
f 20/22/19 24/28/19 23/27/19
f 22/24/20 18/20/20 25/29/20
f 18/20/20 26/30/20 25/29/20
f 19/21/21 12/31/21 27/32/21
f 1/33/22 21/23/22 23/27/22
f 20/22/23 22/24/23 25/29/23
f 20/22/23 25/29/23 24/28/23
f 18/20/24 19/21/24 27/32/24
f 18/20/24 27/32/24 26/30/24
f 23/34/25 24/35/25 28/36/25
f 23/34/25 28/36/25 29/37/25
f 25/38/26 26/39/26 30/40/26
f 25/38/26 30/40/26 31/41/26
f 27/42/27 12/43/27 32/44/27
f 1/45/28 23/34/28 29/37/28
f 24/35/29 25/38/29 31/41/29
f 24/35/29 31/41/29 28/36/29
f 26/39/30 27/42/30 32/44/30
f 26/39/30 32/44/30 30/40/30
f 29/37/31 28/36/31 4/4/31
f 29/37/31 4/4/31 2/2/31
f 31/41/32 30/40/32 8/8/32
f 31/41/32 8/8/32 5/5/32
f 32/44/33 12/46/33 9/9/33
f 1/47/34 29/37/34 2/2/34
f 28/36/35 31/41/35 4/4/35
f 31/41/35 5/5/35 4/4/35
f 30/40/36 32/44/36 8/8/36
f 32/44/36 9/9/36 8/8/36
f 33/48/37 34/49/37 35/50/37
f 33/48/37 35/50/37 36/51/37
f 37/52/38 38/53/38 39/54/38
f 38/53/38 40/55/38 39/54/38
f 41/56/39 42/57/39 43/58/39
f 42/57/39 44/59/39 43/58/39
f 45/60/40 46/61/40 47/62/40
f 48/63/41 33/48/41 36/51/41
f 34/49/42 37/52/42 39/54/42
f 34/49/42 39/54/42 35/50/42
f 38/53/43 41/56/43 43/58/43
f 38/53/43 43/58/43 40/55/43
f 42/57/44 45/60/44 44/59/44
f 45/60/44 47/62/44 44/59/44
f 43/58/45 44/59/45 49/64/45
f 44/59/45 50/65/45 49/64/45
f 47/62/46 46/66/46 51/67/46
f 48/68/47 36/51/47 52/69/47
f 35/50/48 39/54/48 53/70/48
f 35/50/48 53/70/48 54/71/48
f 40/55/49 43/58/49 55/72/49
f 43/58/49 49/64/49 55/72/49
f 44/59/50 47/62/50 51/67/50
f 44/59/50 51/67/50 50/65/50
f 36/51/51 35/50/51 52/69/51
f 35/50/51 54/71/51 52/69/51
f 39/54/52 40/55/52 55/72/52
f 39/54/52 55/72/52 53/70/52
f 48/73/53 52/69/53 56/74/53
f 54/71/54 53/70/54 57/75/54
f 53/70/54 58/76/54 57/75/54
f 55/72/55 49/64/55 59/77/55
f 55/72/55 59/77/55 60/78/55
f 50/65/56 51/67/56 61/79/56
f 51/67/56 62/80/56 61/79/56
f 52/69/57 54/71/57 57/75/57
f 52/69/57 57/75/57 56/74/57
f 53/70/58 55/72/58 58/76/58
f 55/72/58 60/78/58 58/76/58
f 49/64/59 50/65/59 61/79/59
f 49/64/59 61/79/59 59/77/59
f 51/67/60 46/81/60 62/80/60
f 61/79/61 62/80/61 63/82/61
f 61/79/61 63/82/61 64/83/61
f 56/74/62 57/75/62 65/84/62
f 57/75/62 66/85/62 65/84/62
f 58/76/63 60/78/63 67/86/63
f 58/76/63 67/86/63 68/87/63
f 59/77/64 61/79/64 64/83/64
f 59/77/64 64/83/64 69/88/64
f 62/80/65 46/89/65 63/82/65
f 48/90/66 56/74/66 65/84/66
f 57/75/67 58/76/67 66/85/67
f 58/76/67 68/87/67 66/85/67
f 60/78/68 59/77/68 67/86/68
f 59/77/68 69/88/68 67/86/68
f 65/84/69 66/85/69 70/91/69
f 65/84/69 70/91/69 71/92/69
f 68/87/70 67/86/70 72/93/70
f 68/87/70 72/93/70 73/94/70
f 69/88/71 64/83/71 74/95/71
f 64/83/71 75/96/71 74/95/71
f 63/82/72 46/97/72 76/98/72
f 48/99/73 65/84/73 71/92/73
f 66/85/74 68/87/74 73/94/74
f 66/85/74 73/94/74 70/91/74
f 67/86/75 69/88/75 72/93/75
f 69/88/75 74/95/75 72/93/75
f 64/83/76 63/82/76 75/96/76
f 63/82/76 76/98/76 75/96/76
f 76/98/77 46/100/77 77/101/77
f 48/102/78 71/92/78 78/103/78
f 70/91/79 73/94/79 79/104/79
f 73/94/79 80/105/79 79/104/79
f 72/93/80 74/95/80 81/106/80
f 72/93/80 81/106/80 82/107/80
f 75/96/81 76/98/81 77/101/81
f 75/96/81 77/101/81 83/108/81
f 71/92/82 70/91/82 78/103/82
f 70/91/82 79/104/82 78/103/82
f 73/94/83 72/93/83 80/105/83
f 72/93/83 82/107/83 80/105/83
f 74/95/84 75/96/84 83/108/84
f 74/95/84 83/108/84 81/106/84
f 79/109/85 80/110/85 84/111/85
f 79/109/85 84/111/85 85/112/85
f 82/113/86 81/114/86 86/115/86
f 81/114/86 87/116/86 86/115/86
f 83/117/87 77/118/87 88/119/87
f 77/118/87 89/120/87 88/119/87
f 78/121/88 79/109/88 85/112/88
f 78/121/88 85/112/88 90/122/88
f 80/110/89 82/113/89 86/115/89
f 80/110/89 86/115/89 84/111/89
f 81/114/90 83/117/90 87/116/90
f 83/117/90 88/119/90 87/116/90
f 77/118/91 46/123/91 89/120/91
f 48/124/92 78/121/92 90/122/92
f 90/122/93 85/112/93 33/48/93
f 85/112/93 34/49/93 33/48/93
f 84/111/94 86/115/94 37/52/94
f 86/115/94 38/53/94 37/52/94
f 87/116/95 88/119/95 42/57/95
f 87/116/95 42/57/95 41/56/95
f 89/120/96 46/125/96 45/60/96
f 48/126/97 90/122/97 33/48/97
f 85/112/98 84/111/98 34/49/98
f 84/111/98 37/52/98 34/49/98
f 86/115/99 87/116/99 41/56/99
f 86/115/99 41/56/99 38/53/99
f 88/119/100 89/120/100 45/60/100
f 88/119/100 45/60/100 42/57/100
f 91/127/101 92/128/101 93/129/101
f 94/130/102 95/131/102 96/132/102
f 94/130/102 96/132/102 97/133/102
f 98/134/103 99/135/103 100/136/103
f 98/134/103 100/136/103 101/137/103
f 92/128/104 94/130/104 93/129/104
f 94/130/104 97/133/104 93/129/104
f 95/131/105 98/134/105 96/132/105
f 98/134/105 101/137/105 96/132/105
f 99/135/106 102/138/106 100/136/106
f 97/133/107 96/132/107 103/139/107
f 96/132/107 104/140/107 103/139/107
f 101/137/108 100/136/108 105/141/108
f 101/137/108 105/141/108 106/142/108
f 93/129/109 97/133/109 107/143/109
f 97/133/109 103/139/109 107/143/109
f 96/132/110 101/137/110 106/142/110
f 96/132/110 106/142/110 104/140/110
f 100/136/111 102/144/111 105/141/111
f 91/145/112 93/129/112 107/143/112
f 106/142/113 105/141/113 108/146/113
f 105/141/113 109/147/113 108/146/113
f 107/143/114 103/139/114 110/148/114
f 107/143/114 110/148/114 111/149/114
f 104/140/115 106/142/115 112/150/115
f 106/142/115 108/146/115 112/150/115
f 105/141/116 102/151/116 109/147/116
f 91/152/117 107/143/117 111/149/117
f 103/139/118 104/140/118 112/150/118
f 103/139/118 112/150/118 110/148/118
f 111/149/119 110/148/119 113/153/119
f 110/148/119 114/154/119 113/153/119
f 112/150/120 108/146/120 115/155/120
f 108/146/120 116/156/120 115/155/120
f 109/147/121 102/157/121 117/158/121
f 91/159/122 111/149/122 113/153/122
f 110/148/123 112/150/123 115/155/123
f 110/148/123 115/155/123 114/154/123
f 108/146/124 109/147/124 117/158/124
f 108/146/124 117/158/124 116/156/124
f 113/160/125 114/161/125 118/162/125
f 114/161/125 119/163/125 118/162/125
f 115/164/126 116/165/126 120/166/126
f 116/165/126 121/167/126 120/166/126
f 117/168/127 102/169/127 122/170/127
f 91/171/128 113/160/128 118/162/128
f 114/161/129 115/164/129 120/166/129
f 114/161/129 120/166/129 119/163/129
f 116/165/130 117/168/130 122/170/130
f 116/165/130 122/170/130 121/167/130
f 118/162/131 119/163/131 94/130/131
f 118/162/131 94/130/131 92/128/131
f 120/166/132 121/167/132 95/131/132
f 121/167/132 98/134/132 95/131/132
f 122/170/133 102/172/133 99/135/133
f 91/173/134 118/162/134 92/128/134
f 119/163/135 120/166/135 95/131/135
f 119/163/135 95/131/135 94/130/135
f 121/167/136 122/170/136 98/134/136
f 122/170/136 99/135/136 98/134/136
s off
