# Apple ModelIO OBJ File: mushie3
mtllib mushie3.mtl
g mushie3
v -0.825372 0.351306 -0.281192
v -0.812607 0.653653 -0.27692
v -0.803073 0.653653 -0.27345
v -0.813092 0.351306 -0.276723
v -0.798 0.653653 -0.264663
v -0.806558 0.351306 -0.265405
v -0.799762 0.653653 -0.254672
v -0.808827 0.351306 -0.252535
v -0.818838 0.351306 -0.244135
v -0.807534 0.653653 -0.24815
v -0.81768 0.653653 -0.24815
v -0.831906 0.351306 -0.244135
v -0.841917 0.351306 -0.252535
v -0.825452 0.653653 -0.254672
v -0.844187 0.351306 -0.265405
v -0.827214 0.653653 -0.264663
v -0.822141 0.653653 -0.27345
v -0.835148 0.836793 -0.274556
v -0.840349 0.834809 -0.264914
v -0.837653 0.351306 -0.276723
v -0.810396 0.846233 -0.264914
v -0.815597 0.844249 -0.274556
v -0.825372 0.840521 -0.278364
v -0.812202 0.845544 -0.25395
v -0.820171 0.842505 -0.246793
v -0.830574 0.838537 -0.246793
v -0.838542 0.835498 -0.25395
v -0.686599 0.843282 -0.464746
v -0.599243 0.86168 -0.341873
v -0.707365 0.82246 -0.43087
v -0.634894 0.837723 -0.328934
v -0.861615 0.97339 -0.37235
v -0.871552 1.02057 -0.344919
v -0.826122 1.03014 -0.329834
v -0.800407 0.986281 -0.352026
v -0.840319 0.872277 -0.442666
v -0.738669 0.893686 -0.408913
v -0.877829 1.05038 -0.307961
v -0.88213 1.0708 -0.265934
v -0.853657 1.05547 -0.299934
v -0.827943 0.813514 -0.511679
v -0.675845 0.906917 -0.320547
v -0.762579 0.994248 -0.298818
v -0.838717 1.05862 -0.278921
v -0.798045 1.03606 -0.290341
v -0.675845 0.906917 -0.21132
v -0.599243 0.86168 -0.189994
v -0.838717 1.05862 -0.252946
v -0.798045 1.03606 -0.241526
v -0.762579 0.994248 -0.233049
v -0.826122 1.03014 -0.202033
v -0.800407 0.986281 -0.179841
v -0.738669 0.893686 -0.122954
v -0.853657 1.05547 -0.231933
v -0.686599 0.843282 -0.067122
v -0.877829 1.05038 -0.223907
v -0.840319 0.872277 -0.089201
v -0.827943 0.813514 -0.020188
v -0.871552 1.02057 -0.186949
v -0.861615 0.97339 -0.159517
v -0.916982 1.01101 -0.202033
v -0.922822 0.9605 -0.179841
v -0.94197 0.850869 -0.122954
v -0.902002 1.04529 -0.231933
v -0.969288 0.783746 -0.067122
v -1.00479 0.837637 -0.21132
v -0.96065 0.952533 -0.233049
v -0.916941 1.04214 -0.252946
v -1.05664 0.765348 -0.189994
v -0.945059 1.00509 -0.241526
v -1.00479 0.837637 -0.320547
v -1.05664 0.765348 -0.341873
v -0.916941 1.04214 -0.278921
v -0.945059 1.00509 -0.290341
v -0.634894 0.837723 -0.202933
v -0.707365 0.82246 -0.100997
v -0.824626 0.797764 -0.062061
v -0.96065 0.952533 -0.298818
v -0.922822 0.9605 -0.352026
v -0.916982 1.01101 -0.329834
v -0.969288 0.783746 -0.464746
v -1.01436 0.757804 -0.328934
v -0.941887 0.773067 -0.43087
v -0.94197 0.850869 -0.408913
v -0.902002 1.04529 -0.299934
v -1.01436 0.757804 -0.202933
v -0.941887 0.773067 -0.100997
v -0.824626 0.797764 -0.469806
vn 0.342 -0.0012 -0.9397
vn 0.8658 -0.0233 -0.4999
vn 0.9844 -0.0283 0.1736
vn 0.6427 -0.0139 0.766
vn -0 0.0133 0.9999
vn -0.6423 0.0404 0.7654
vn -0.9833 0.0548 0.1734
vn -0.8687 -0.0642 -0.4912
vn -0.865 0.0498 -0.4994
vn -0.3419 0.0277 -0.9393
vn -0 -1 -0
vn -0.3563 0.9344 -0
vn -0.9829 -0.0712 0.1697
vn -0.6495 -0.0503 0.7587
vn 0.0014 -0.0072 1
vn 0.6511 0.0387 0.758
vn 0.3497 0.0171 -0.9367
vn 0.9835 0.0633 0.1695
vn 0.8696 0.0548 -0.4907
vn -0.3473 -0.0307 -0.9372
vn 0.4877 -0.8448 -0.2203
vn 0.1679 0.5217 -0.8365
vn 0.1419 0.5851 -0.7984
vn -0.0427 0.8969 -0.4402
vn 0.0521 0.7649 -0.642
vn 0.0423 0.7812 -0.6228
vn 0.5526 0.6716 -0.4935
vn 0.1837 0.9446 -0.2721
vn 0.3823 0.8345 -0.3968
vn 0.3627 0.8487 -0.3849
vn 0.5982 0.6123 -0.517
vn 0.5085 0.8611 -0
vn 0.4851 0.8745 -0
vn 0.7626 0.6469 -0
vn 0.7095 0.7047 -0
vn 0.2702 0.9628 -0
vn 0.5982 0.6123 0.517
vn 0.5526 0.6716 0.4935
vn 0.1837 0.9446 0.2721
vn 0.3823 0.8345 0.3968
vn 0.3627 0.8487 0.3849
vn -0.0427 0.8969 0.4402
vn 0.0521 0.7649 0.642
vn 0.0423 0.7812 0.6228
vn 0.1679 0.5217 0.8365
vn 0.1419 0.5851 0.7984
vn -0.364 0.4096 0.8365
vn -0.3658 0.4782 0.7984
vn -0.3226 0.8379 0.4402
vn -0.3562 0.679 0.642
vn -0.3538 0.6978 0.6228
vn -0.7766 0.3917 0.4935
vn -0.5491 0.7902 0.2721
vn -0.6864 0.6094 0.3968
vn -0.6742 0.6303 0.3849
vn -0.7943 0.319 0.517
vn -0.8126 0.5828 -0
vn -0.7966 0.6046 -0
vn 0.5578 -0.83 -0
vn 0.3044 -0.8834 0.3564
vn -0.9587 0.2844 -0
vn -0.9335 0.3586 -0
vn -0.6356 0.772 -0
vn -0.7943 0.319 -0.517
vn -0.1056 -0.9697 -0.2203
vn -0.7766 0.3917 -0.4935
vn -0.5491 0.7902 -0.2721
vn -0.1056 -0.9697 0.2203
vn -0.6864 0.6094 -0.3968
vn -0.6742 0.6303 -0.3849
vn 0.0778 -0.9311 -0.3564
vn -0.1756 -0.9845 -0
vn -0.3226 0.8379 -0.4402
vn 0.2061 -0.9785 -0
vn -0.3562 0.679 -0.642
vn -0.3538 0.6978 -0.6228
vn 0.0778 -0.9311 0.3564
vn 0.4877 -0.8448 0.2203
vn -0.364 0.4096 -0.8365
vn 0.3044 -0.8834 -0.3564
vn -0.3658 0.4782 -0.7984
vt 0.327372 0.555754
vt 0.327372 0.719387
vt 0.291009 0.719387
vt 0.291009 0.555754
vt 0.254646 0.719387
vt 0.254646 0.555754
vt 0.218283 0.719387
vt 0.218283 0.555754
vt 0.18192 0.555754
vt 0.18192 0.719387
vt 0.145557 0.719387
vt 0.145557 0.555754
vt 0.109194 0.555754
vt 0.109194 0.719387
vt 0.072831 0.555754
vt 0.072831 0.719387
vt 0.036468 0.719387
vt 0.036468 0.555754
vt 0.000105 0.719387
vt 0.000105 0.555754
vt 0.334391 0.589709
vt 0.347186 0.594367
vt 0.359982 0.589709
vt 0.327582 0.577917
vt 0.329947 0.564506
vt 0.340378 0.555754
vt 0.353995 0.555754
vt 0.364426 0.564506
vt 0.366791 0.577917
vt 0.400404 0.574635
vt 0.394603 0.584682
vt 0.383702 0.588649
vt 0.398389 0.56321
vt 0.389502 0.555754
vt 0.377902 0.555754
vt 0.369015 0.56321
vt 0.367 0.574635
vt 0.372801 0.584682
vt 0.599979 0.000105
vt 0.5 0.000105
vt 0.699958 0.222281
vt 0.699958 0.333368
vt 0.599979 0.333368
vt 0.599979 0.222281
vt 0.699958 0.111193
vt 0.599979 0.111193
vt 0.699958 0.444456
vt 0.649968 0.555544
vt 0.599979 0.444456
vt 0.699958 0.000105
vt 0.5 0.111193
vt 0.5 0.222281
vt 0.54999 0.555544
vt 0.5 0.444456
vt 0.5 0.333368
vt 0.400021 0.111193
vt 0.400021 0.000105
vt 0.400021 0.444456
vt 0.400021 0.333368
vt 0.400021 0.222281
vt 0.45001 0.555544
vt 0.300042 0.333368
vt 0.300042 0.222281
vt 0.300042 0.111193
vt 0.350031 0.555544
vt 0.300042 0.444456
vt 0.300042 0.000105
vt 0.250052 0.555544
vt 0.200063 0.444456
vt 0.200063 0.111193
vt 0.200063 0.000105
vt 0.200063 0.333368
vt 0.200063 0.222281
vt 0.100084 0.333368
vt 0.100084 0.222281
vt 0.100084 0.111193
vt 0.150073 0.555544
vt 0.100084 0.444456
vt 0.100084 0.000105
vt 0.000105 0.111193
vt 0.000105 0.222281
vt 0.050094 0.555544
vt 0.000105 0.444456
vt 0.000105 0.000105
vt 0.000105 0.333368
vt 0.999895 0.000105
vt 0.999895 0.111193
vt 0.899916 0.111193
vt 0.899916 0.000105
vt 0.999895 0.333368
vt 0.999895 0.444456
vt 0.899916 0.444456
vt 0.899916 0.333368
vt 0.999895 0.222281
vt 0.899916 0.222281
vt 0.949906 0.555544
vt 0.799937 0.222281
vt 0.799937 0.333368
vt 0.799937 0.000105
vt 0.799937 0.111193
vt 0.849927 0.555544
vt 0.799937 0.444456
vt 0.749948 0.555544
usemtl 
f 1/1/1 2/2/1 3/3/1
f 1/1/1 3/3/1 4/4/1
f 4/4/2 3/3/2 5/5/2
f 4/4/2 5/5/2 6/6/2
f 6/6/3 5/5/3 7/7/3
f 6/6/3 7/7/3 8/8/3
f 8/8/4 7/7/4 9/9/4
f 7/7/4 10/10/4 9/9/4
f 9/9/5 10/10/5 11/11/5
f 9/9/5 11/11/5 12/12/5
f 12/12/6 11/11/6 13/13/6
f 11/11/6 14/14/6 13/13/6
f 13/13/7 14/14/7 15/15/7
f 14/14/7 16/16/7 15/15/7
f 17/17/8 16/16/8 18/17/8
f 16/16/8 19/16/8 18/17/8
f 15/15/9 16/16/9 17/17/9
f 15/15/9 17/17/9 20/18/9
f 20/18/10 17/17/10 2/19/10
f 20/18/10 2/19/10 1/20/10
f 20/21/11 1/22/11 4/23/11
f 15/24/11 20/21/11 4/23/11
f 13/25/11 15/24/11 4/23/11
f 12/26/11 13/25/11 4/23/11
f 9/27/11 12/26/11 4/23/11
f 8/28/11 9/27/11 4/23/11
f 6/29/11 8/28/11 4/23/11
f 21/30/12 22/31/12 23/32/12
f 24/33/12 21/30/12 23/32/12
f 25/34/12 24/33/12 23/32/12
f 26/35/12 25/34/12 23/32/12
f 27/36/12 26/35/12 23/32/12
f 19/37/12 27/36/12 23/32/12
f 18/38/12 19/37/12 23/32/12
f 16/16/13 14/14/13 27/14/13
f 16/16/13 27/14/13 19/16/13
f 14/14/14 11/11/14 26/11/14
f 14/14/14 26/11/14 27/14/14
f 11/11/15 10/10/15 25/10/15
f 11/11/15 25/10/15 26/11/15
f 10/10/16 7/7/16 24/7/16
f 10/10/16 24/7/16 25/10/16
f 3/3/17 2/2/17 22/3/17
f 2/2/17 23/2/17 22/3/17
f 7/7/18 5/5/18 21/5/18
f 7/7/18 21/5/18 24/7/18
f 5/5/19 3/3/19 21/5/19
f 3/3/19 22/3/19 21/5/19
f 2/19/20 17/17/20 23/19/20
f 17/17/20 18/17/20 23/19/20
f 28/39/21 29/40/21 30/39/21
f 29/40/21 31/40/21 30/39/21
f 32/41/22 33/42/22 34/43/22
f 32/41/22 34/43/22 35/44/22
f 36/45/23 32/41/23 35/44/23
f 36/45/23 35/44/23 37/46/23
f 38/47/24 39/48/24 40/49/24
f 41/50/25 36/45/25 28/39/25
f 36/45/25 37/46/25 28/39/25
f 33/42/26 38/47/26 34/43/26
f 38/47/26 40/49/26 34/43/26
f 37/46/27 35/44/27 42/51/27
f 35/44/27 43/52/27 42/51/27
f 40/49/28 39/53/28 44/54/28
f 28/39/29 37/46/29 42/51/29
f 28/39/29 42/51/29 29/40/29
f 34/43/30 40/49/30 44/54/30
f 34/43/30 44/54/30 45/55/30
f 35/44/31 34/43/31 43/52/31
f 34/43/31 45/55/31 43/52/31
f 29/40/32 42/51/32 46/56/32
f 29/40/32 46/56/32 47/57/32
f 45/55/33 44/54/33 48/58/33
f 45/55/33 48/58/33 49/59/33
f 43/52/34 45/55/34 50/60/34
f 45/55/34 49/59/34 50/60/34
f 42/51/35 43/52/35 50/60/35
f 42/51/35 50/60/35 46/56/35
f 44/54/36 39/61/36 48/58/36
f 50/60/37 49/59/37 51/62/37
f 50/60/37 51/62/37 52/63/37
f 46/56/38 50/60/38 52/63/38
f 46/56/38 52/63/38 53/64/38
f 48/58/39 39/65/39 54/66/39
f 47/57/40 46/56/40 55/67/40
f 46/56/40 53/64/40 55/67/40
f 49/59/41 48/58/41 51/62/41
f 48/58/41 54/66/41 51/62/41
f 54/66/42 39/68/42 56/69/42
f 55/67/43 53/64/43 57/70/43
f 55/67/43 57/70/43 58/71/43
f 51/62/44 54/66/44 56/69/44
f 51/62/44 56/69/44 59/72/44
f 52/63/45 51/62/45 60/73/45
f 51/62/45 59/72/45 60/73/45
f 53/64/46 52/63/46 57/70/46
f 52/63/46 60/73/46 57/70/46
f 60/73/47 59/72/47 61/74/47
f 60/73/47 61/74/47 62/75/47
f 57/70/48 60/73/48 63/76/48
f 60/73/48 62/75/48 63/76/48
f 56/69/49 39/77/49 64/78/49
f 58/71/50 57/70/50 63/76/50
f 58/71/50 63/76/50 65/79/50
f 59/72/51 56/69/51 64/78/51
f 59/72/51 64/78/51 61/74/51
f 63/76/52 62/75/52 66/80/52
f 62/75/52 67/81/52 66/80/52
f 64/78/53 39/82/53 68/83/53
f 65/79/54 63/76/54 66/80/54
f 65/79/54 66/80/54 69/84/54
f 61/74/55 64/78/55 68/83/55
f 61/74/55 68/83/55 70/85/55
f 62/75/56 61/74/56 70/85/56
f 62/75/56 70/85/56 67/81/56
f 69/86/57 66/87/57 71/88/57
f 69/86/57 71/88/57 72/89/57
f 70/90/58 68/91/58 73/92/58
f 70/90/58 73/92/58 74/93/58
f 29/40/59 47/57/59 75/57/59
f 29/40/59 75/57/59 31/40/59
f 55/67/60 58/71/60 76/67/60
f 58/71/60 77/71/60 76/67/60
f 67/94/61 70/90/61 74/93/61
f 67/94/61 74/93/61 78/95/61
f 66/87/62 67/94/62 78/95/62
f 66/87/62 78/95/62 71/88/62
f 68/91/63 39/96/63 73/92/63
f 78/95/64 74/93/64 79/97/64
f 74/93/64 80/98/64 79/97/64
f 72/89/65 81/99/65 82/89/65
f 81/99/65 83/99/65 82/89/65
f 71/88/66 78/95/66 79/97/66
f 71/88/66 79/97/66 84/100/66
f 73/92/67 39/101/67 85/102/67
f 65/79/68 69/84/68 86/84/68
f 65/79/68 86/84/68 87/79/68
f 72/89/69 71/88/69 81/99/69
f 71/88/69 84/100/69 81/99/69
f 74/93/70 73/92/70 80/98/70
f 73/92/70 85/102/70 80/98/70
f 81/99/71 41/50/71 88/50/71
f 81/99/71 88/50/71 83/99/71
f 69/86/72 72/89/72 82/89/72
f 69/86/72 82/89/72 86/86/72
f 85/102/73 39/103/73 38/47/73
f 83/99/74 88/50/74 30/39/74
f 82/89/74 83/99/74 30/39/74
f 86/86/74 82/89/74 30/39/74
f 87/79/74 86/86/74 30/39/74
f 77/71/74 87/79/74 30/39/74
f 76/67/74 77/71/74 30/39/74
f 75/57/74 76/67/74 30/39/74
f 31/40/74 75/57/74 30/39/74
f 81/99/75 84/100/75 36/45/75
f 81/99/75 36/45/75 41/50/75
f 80/98/76 85/102/76 33/42/76
f 85/102/76 38/47/76 33/42/76
f 58/71/77 65/79/77 87/79/77
f 58/71/77 87/79/77 77/71/77
f 47/57/78 55/67/78 76/67/78
f 47/57/78 76/67/78 75/57/78
f 79/97/79 80/98/79 33/42/79
f 79/97/79 33/42/79 32/41/79
f 41/50/80 28/39/80 30/39/80
f 41/50/80 30/39/80 88/50/80
f 84/100/81 79/97/81 32/41/81
f 84/100/81 32/41/81 36/45/81
s off
