# Apple ModelIO OBJ File: bottle
mtllib bottle.mtl
g Cylinder.001
v 0 1.37 -1.57645
v 0 1.37 -1.01956
v 0.245 1.30435 -1.01956
v 0.245 1.30435 -1.57645
v 0.424352 1.125 -1.01956
v 0.424352 1.125 -1.57645
v 0.49 0.88 -1.01956
v 0.49 0.88 -1.57645
v 0.424352 0.635 -1.01956
v 0.424352 0.635 -1.57645
v 0.245 0.455648 -1.01956
v 0.245 0.455648 -1.57645
v 0 0.39 -1.01956
v 0 0.39 -1.57645
v -0.245 0.455648 -1.01956
v -0.245 0.455648 -1.57645
v -0.424352 0.635 -1.01956
v -0.424352 0.635 -1.57645
v -0.49 0.88 -1.01956
v -0.49 0.88 -1.57645
v -0.424352 1.125 -1.01956
v -0.424352 1.125 -1.57645
v -0.446188 0.88 -1.01956
v -0.38641 0.656906 -1.01956
v -0.38641 0.656906 -0.308425
v -0.446188 0.88 -0.308425
v -0.245 1.30435 -1.01956
v -0.245 1.30435 -1.57645
v 0.275216 0.88 -1.74489
v 0.238344 0.742392 -1.74489
v 0.238344 0.742392 -1.81742
v 0.275216 0.88 -1.81742
v 0.137608 1.11834 -1.74489
v 0 1.15522 -1.74489
v 0.238344 1.01761 -1.74489
v 0.137608 0.641656 -1.74489
v 0 0.604784 -1.74489
v -0.137608 0.641656 -1.74489
v -0.238344 0.742392 -1.74489
v -0.275216 0.88 -1.74489
v -0.238344 1.01761 -1.74489
v -0.137608 1.11834 -1.74489
v 0 1.32619 -1.01956
v 0.223094 1.26641 -1.01956
v 0.38641 1.10309 -1.01956
v 0.446188 0.88 -1.01956
v 0.38641 0.656906 -1.01956
v 0.223094 0.49359 -1.01956
v 0 0.433812 -1.01956
v -0.223094 0.49359 -1.01956
v -0.38641 1.10309 -1.01956
v -0.223094 1.26641 -1.01956
v 0.38641 1.10309 -0.308425
v 0.223094 1.26641 -0.308425
v 0 1.32619 -0.308425
v 0.446188 0.88 -0.308425
v 0.38641 0.656906 -0.308425
v 0.223094 0.49359 -0.308425
v 0 0.433812 -0.308425
v -0.223094 0.49359 -0.308425
v -0.38641 1.10309 -0.308425
v -0.223094 1.26641 -0.308425
v 0.238344 1.01761 -1.81742
v -0.137608 1.11834 -1.81742
v -0.238344 1.01761 -1.81742
v 0.137608 1.11834 -1.81742
v -0.275216 0.88 -1.81742
v 0 1.15522 -1.81742
v -0.238344 0.742392 -1.81742
v -0.137608 0.641656 -1.81742
v 0 0.604784 -1.81742
v 0.137608 0.641656 -1.81742
v 0.279539 0.718608 -1.80427
v 0.161392 0.600461 -1.80427
v -0.279539 0.718608 -1.80427
v -0.161392 0.600461 -1.80427
v 0 1.20278 -1.80427
v 0.161392 1.15954 -1.80427
v -0.161392 1.15954 -1.80427
v -0.279539 1.04139 -1.80427
v 0.322784 0.88 -1.80427
v 0 0.557216 -1.80427
v -0.322784 0.88 -1.80427
v 0.279539 1.04139 -1.80427
v 0 1.20278 -2.0983
v -0.161392 1.15954 -2.0983
v 0.161392 1.15954 -2.0983
v -0.279539 1.04139 -2.0983
v -0.322784 0.88 -2.0983
v -0.279539 0.718608 -2.0983
v -0.161392 0.600461 -2.0983
v 0 0.557216 -2.0983
v 0.161392 0.600461 -2.0983
v 0.279539 0.718608 -2.0983
v 0.322784 0.88 -2.0983
v 0.279539 1.04139 -2.0983
v 0 1.37 -0.39
v 0 1.37 0.39
v 0.245 1.30435 0.39
v 0.245 1.30435 -0.39
v 0.424352 1.125 0.39
v 0.424352 1.125 -0.39
v 0.49 0.88 0.39
v 0.49 0.88 -0.39
v 0.424352 0.635 0.39
v 0.424352 0.635 -0.39
v 0.245 0.455648 0.39
v 0.245 0.455648 -0.39
v 0 0.39 0.39
v 0 0.39 -0.39
v -0.245 0.455648 0.39
v -0.245 0.455648 -0.39
v -0.424352 0.635 0.39
v -0.424352 0.635 -0.39
v -0.49 0.88 0.39
v -0.49 0.88 -0.39
v -0.424352 1.125 0.39
v -0.424352 1.125 -0.39
v -0.245 1.30435 0.39
v -0.245 1.30435 -0.39
vn 0.2588 0.9659 -0
vn 0.7071 0.7071 -0
vn 0.9659 0.2588 -0
vn 0.9659 -0.2588 -0
vn 0.7071 -0.7071 -0
vn 0.2588 -0.9659 -0
vn -0.2588 -0.9659 -0
vn -0.7071 -0.7071 -0
vn -0.9659 -0.2588 -0
vn -0.9659 0.2588 -0
vn -0.7071 0.7071 -0
vn -0.2588 0.9659 -0
vn -0 -0 1
vn 0.1631 0.6088 -0.7763
vn 0.4457 0.4457 -0.7763
vn 0.6088 0.1631 -0.7763
vn 0.6088 -0.1631 -0.7763
vn 0.4457 -0.4457 -0.7763
vn 0.1631 -0.6088 -0.7763
vn -0.1631 -0.6088 -0.7763
vn -0.4457 -0.4457 -0.7763
vn -0.6088 -0.1631 -0.7763
vn -0.6088 0.1631 -0.7763
vn -0.4457 0.4457 -0.7763
vn -0.1631 0.6088 -0.7763
vn -0.1946 0.1946 0.9614
vn 0.1946 0.1946 0.9614
vn -0.0712 -0.2658 0.9614
vn 0.1946 -0.1946 0.9614
vn -0.2658 0.0712 0.9614
vn 0.0712 0.2658 0.9614
vn 0.2658 -0.0712 0.9614
vn -0.2658 -0.0712 0.9614
vn -0.0712 0.2658 0.9614
vn 0.2658 0.0712 0.9614
vn -0.1946 -0.1946 0.9614
vn 0.0712 -0.2658 0.9614
vn -0 -0 -1
vt 0.471185 0.764302
vt 0.471185 0.99979
vt 0.431938 0.99979
vt 0.431938 0.764302
vt 0.39269 0.99979
vt 0.39269 0.764302
vt 0.353442 0.99979
vt 0.353442 0.764302
vt 0.314194 0.99979
vt 0.314194 0.764302
vt 0.274946 0.99979
vt 0.274946 0.764302
vt 0.235698 0.99979
vt 0.235698 0.764302
vt 0.19645 0.99979
vt 0.19645 0.764302
vt 0.157202 0.99979
vt 0.157202 0.764302
vt 0.117954 0.99979
vt 0.117954 0.764302
vt 0.078706 0.99979
vt 0.078706 0.764302
vt 0.021873 0.242488
vt 0.05143 0.13218
vt 0.039458 0.99979
vt 0.039458 0.764302
vt 0.00021 0.99979
vt 0.00021 0.764302
vt 0.680553 0.390944
vt 0.582869 0.364769
vt 0.790283 0.195577
vt 0.775582 0.140712
vt 0.875919 0.195577
vt 0.849745 0.29326
vt 0.849745 0.097894
vt 0.778236 0.026385
vt 0.680553 0.00021
vt 0.582869 0.026385
vt 0.51136 0.097894
vt 0.485186 0.195577
vt 0.51136 0.29326
vt 0.778236 0.364769
vt 0.735418 0.290606
vt 0.680553 0.305308
vt 0.775582 0.250442
vt 0.735418 0.100547
vt 0.680553 0.085846
vt 0.625687 0.100547
vt 0.585523 0.140712
vt 0.570822 0.195577
vt 0.585523 0.250442
vt 0.625687 0.290606
vt 0.242488 0.463103
vt 0.352795 0.433546
vt 0.242488 0.484765
vt 0.363627 0.452306
vt 0.433546 0.352795
vt 0.452306 0.363627
vt 0.463103 0.242488
vt 0.484765 0.242488
vt 0.433546 0.13218
vt 0.452306 0.121349
vt 0.352795 0.05143
vt 0.363627 0.032669
vt 0.242488 0.021873
vt 0.242488 0.00021
vt 0.13218 0.05143
vt 0.121349 0.032669
vt 0.032669 0.121349
vt 0.00021 0.242488
vt 0.05143 0.352795
vt 0.032669 0.363627
vt 0.13218 0.433546
vt 0.121349 0.452306
vt 0.680552 0.085846
vt 0.557601 0.485186
vt 0.557601 0.763881
vt 0.511151 0.763881
vt 0.511151 0.485186
vt 0.464702 0.763881
vt 0.464702 0.485186
vt 0.418253 0.763881
vt 0.418253 0.485186
vt 0.371804 0.763881
vt 0.371804 0.485186
vt 0.325355 0.763881
vt 0.325355 0.485186
vt 0.278906 0.763881
vt 0.278906 0.485186
vt 0.232456 0.763881
vt 0.232456 0.485186
vt 0.186007 0.763881
vt 0.186007 0.485186
vt 0.139558 0.763881
vt 0.139558 0.485186
vt 0.093109 0.763881
vt 0.093109 0.485186
vt 0.79191 0.673197
vt 0.746032 0.719075
vt 0.683362 0.735867
vt 0.808703 0.610527
vt 0.79191 0.547856
vt 0.746032 0.501978
vt 0.683362 0.485186
vt 0.620692 0.501978
vt 0.574814 0.547856
vt 0.558021 0.610527
vt 0.574814 0.673197
vt 0.620692 0.719075
vt 0.04666 0.763881
vt 0.04666 0.485186
vt 0.00021 0.763881
vt 0.00021 0.485186
vt 0.620692 0.970177
vt 0.683362 0.986969
vt 0.746032 0.970177
vt 0.574814 0.924299
vt 0.558021 0.861628
vt 0.574814 0.798958
vt 0.620692 0.75308
vt 0.683362 0.736288
vt 0.746032 0.75308
vt 0.79191 0.798958
vt 0.808703 0.861628
vt 0.79191 0.924299
usemtl 
f 1/1/1 2/2/1 3/3/1
f 1/1/1 3/3/1 4/4/1
f 4/4/2 3/3/2 5/5/2
f 4/4/2 5/5/2 6/6/2
f 6/6/3 5/5/3 7/7/3
f 6/6/3 7/7/3 8/8/3
f 8/8/4 7/7/4 9/9/4
f 8/8/4 9/9/4 10/10/4
f 10/10/5 9/9/5 11/11/5
f 10/10/5 11/11/5 12/12/5
f 12/12/6 11/11/6 13/13/6
f 12/12/6 13/13/6 14/14/6
f 14/14/7 13/13/7 15/15/7
f 14/14/7 15/15/7 16/16/7
f 16/16/8 15/15/8 17/17/8
f 16/16/8 17/17/8 18/18/8
f 18/18/9 17/17/9 19/19/9
f 18/18/9 19/19/9 20/20/9
f 20/20/10 19/19/10 21/21/10
f 20/20/10 21/21/10 22/22/10
f 23/23/9 24/24/9 25/24/9
f 23/23/9 25/24/9 26/23/9
f 22/22/11 21/21/11 27/25/11
f 22/22/11 27/25/11 28/26/11
f 28/26/12 27/25/12 2/27/12
f 28/26/12 2/27/12 1/28/12
f 1/29/13 28/30/13 28/30/13
f 1/29/13 28/30/13 1/29/13
f 29/31/4 30/32/4 31/32/4
f 29/31/4 31/32/4 32/31/4
f 8/33/13 6/34/13 6/34/13
f 8/33/13 6/34/13 8/33/13
f 10/35/13 8/33/13 8/33/13
f 10/35/13 8/33/13 10/35/13
f 12/36/13 10/35/13 10/35/13
f 12/36/13 10/35/13 12/36/13
f 14/37/13 12/36/13 12/36/13
f 14/37/13 12/36/13 14/37/13
f 16/38/13 14/37/13 14/37/13
f 16/38/13 14/37/13 16/38/13
f 18/39/13 16/38/13 16/38/13
f 18/39/13 16/38/13 18/39/13
f 20/40/13 18/39/13 18/39/13
f 20/40/13 18/39/13 20/40/13
f 22/41/13 20/40/13 20/40/13
f 22/41/13 20/40/13 22/41/13
f 28/30/13 22/41/13 22/41/13
f 28/30/13 22/41/13 28/30/13
f 6/34/13 4/42/13 4/42/13
f 6/34/13 4/42/13 6/34/13
f 1/29/14 4/42/14 33/43/14
f 1/29/14 33/43/14 34/44/14
f 4/42/15 6/34/15 35/45/15
f 4/42/15 35/45/15 33/43/15
f 6/34/16 8/33/16 35/45/16
f 8/33/16 29/31/16 35/45/16
f 8/33/17 10/35/17 30/32/17
f 8/33/17 30/32/17 29/31/17
f 10/35/18 12/36/18 36/46/18
f 10/35/18 36/46/18 30/32/18
f 12/36/19 14/37/19 36/46/19
f 14/37/19 37/47/19 36/46/19
f 14/37/20 16/38/20 38/48/20
f 14/37/20 38/48/20 37/47/20
f 16/38/21 18/39/21 38/48/21
f 18/39/21 39/49/21 38/48/21
f 18/39/22 20/40/22 39/49/22
f 20/40/22 40/50/22 39/49/22
f 20/40/23 22/41/23 41/51/23
f 20/40/23 41/51/23 40/50/23
f 22/41/24 28/30/24 41/51/24
f 28/30/24 42/52/24 41/51/24
f 28/30/25 1/29/25 42/52/25
f 1/29/25 34/44/25 42/52/25
f 4/42/13 1/29/13 1/29/13
f 4/42/13 1/29/13 4/42/13
f 43/53/13 44/54/13 2/55/13
f 44/54/13 3/56/13 2/55/13
f 44/54/13 45/57/13 3/56/13
f 45/57/13 5/58/13 3/56/13
f 45/57/13 46/59/13 7/60/13
f 45/57/13 7/60/13 5/58/13
f 46/59/13 47/61/13 7/60/13
f 47/61/13 9/62/13 7/60/13
f 47/61/13 48/63/13 9/62/13
f 48/63/13 11/64/13 9/62/13
f 48/63/13 49/65/13 13/66/13
f 48/63/13 13/66/13 11/64/13
f 49/65/13 50/67/13 13/66/13
f 50/67/13 15/68/13 13/66/13
f 50/67/13 24/24/13 17/69/13
f 50/67/13 17/69/13 15/68/13
f 24/24/13 23/23/13 19/70/13
f 24/24/13 19/70/13 17/69/13
f 23/23/13 51/71/13 19/70/13
f 51/71/13 21/72/13 19/70/13
f 51/71/13 52/73/13 27/74/13
f 51/71/13 27/74/13 21/72/13
f 52/73/13 43/53/13 2/55/13
f 52/73/13 2/55/13 27/74/13
f 53/57/13 54/54/13 55/53/13
f 56/59/13 53/57/13 55/53/13
f 57/61/13 56/59/13 55/53/13
f 58/63/13 57/61/13 55/53/13
f 59/65/13 58/63/13 55/53/13
f 60/67/13 59/65/13 55/53/13
f 25/24/13 60/67/13 55/53/13
f 26/23/13 25/24/13 55/53/13
f 61/71/13 26/23/13 55/53/13
f 62/73/13 61/71/13 55/53/13
f 49/65/6 48/63/6 58/63/6
f 49/65/6 58/63/6 59/65/6
f 46/59/3 45/57/3 53/57/3
f 46/59/3 53/57/3 56/59/3
f 51/71/10 23/23/10 26/23/10
f 51/71/10 26/23/10 61/71/10
f 50/67/7 49/65/7 59/65/7
f 50/67/7 59/65/7 60/67/7
f 47/61/4 46/59/4 56/59/4
f 47/61/4 56/59/4 57/61/4
f 52/73/11 51/71/11 61/71/11
f 52/73/11 61/71/11 62/73/11
f 44/54/1 43/53/1 55/53/1
f 44/54/1 55/53/1 54/54/1
f 24/24/8 50/67/8 60/67/8
f 24/24/8 60/67/8 25/24/8
f 48/63/5 47/61/5 57/61/5
f 48/63/5 57/61/5 58/63/5
f 43/53/12 52/73/12 62/73/12
f 43/53/12 62/73/12 55/53/12
f 45/57/2 44/54/2 54/54/2
f 45/57/2 54/54/2 53/57/2
f 35/45/3 29/31/3 32/31/3
f 35/45/3 32/31/3 63/45/3
f 41/51/11 42/52/11 64/52/11
f 41/51/11 64/52/11 65/51/11
f 33/43/2 35/45/2 63/45/2
f 33/43/2 63/45/2 66/43/2
f 40/50/10 41/51/10 65/51/10
f 40/50/10 65/51/10 67/50/10
f 34/44/1 33/43/1 66/43/1
f 34/44/1 66/43/1 68/44/1
f 39/49/9 40/50/9 67/50/9
f 39/49/9 67/50/9 69/49/9
f 38/48/8 39/49/8 69/49/8
f 38/48/8 69/49/8 70/48/8
f 37/47/7 38/48/7 70/48/7
f 37/47/7 70/48/7 71/75/7
f 42/52/12 34/44/12 68/44/12
f 42/52/12 68/44/12 64/52/12
f 36/46/6 37/47/6 71/75/6
f 36/46/6 71/75/6 72/46/6
f 30/32/5 36/46/5 72/46/5
f 30/32/5 72/46/5 31/32/5
f 31/32/26 72/46/26 73/32/26
f 72/46/26 74/46/26 73/32/26
f 70/48/27 69/49/27 75/49/27
f 70/48/27 75/49/27 76/48/27
f 68/44/28 66/43/28 77/44/28
f 66/43/28 78/43/28 77/44/28
f 65/51/29 64/52/29 79/52/29
f 65/51/29 79/52/29 80/51/29
f 32/31/30 31/32/30 81/31/30
f 31/32/30 73/32/30 81/31/30
f 71/75/31 70/48/31 82/47/31
f 70/48/31 76/48/31 82/47/31
f 67/50/32 65/51/32 83/50/32
f 65/51/32 80/51/32 83/50/32
f 63/45/33 32/31/33 81/31/33
f 63/45/33 81/31/33 84/45/33
f 72/46/34 71/75/34 82/47/34
f 72/46/34 82/47/34 74/46/34
f 69/49/35 67/50/35 83/50/35
f 69/49/35 83/50/35 75/49/35
f 66/43/36 63/45/36 78/43/36
f 63/45/36 84/45/36 78/43/36
f 64/52/37 68/44/37 77/44/37
f 64/52/37 77/44/37 79/52/37
f 79/52/12 77/44/12 85/44/12
f 79/52/12 85/44/12 86/52/12
f 86/52/38 85/44/38 87/43/38
f 88/51/38 86/52/38 87/43/38
f 89/50/38 88/51/38 87/43/38
f 90/49/38 89/50/38 87/43/38
f 91/48/38 90/49/38 87/43/38
f 92/75/38 91/48/38 87/43/38
f 93/46/38 92/75/38 87/43/38
f 94/32/38 93/46/38 87/43/38
f 95/31/38 94/32/38 87/43/38
f 96/45/38 95/31/38 87/43/38
f 78/43/2 84/45/2 96/45/2
f 78/43/2 96/45/2 87/43/2
f 75/49/9 83/50/9 89/50/9
f 75/49/9 89/50/9 90/49/9
f 74/46/6 82/47/6 92/75/6
f 74/46/6 92/75/6 93/46/6
f 84/45/3 81/31/3 95/31/3
f 84/45/3 95/31/3 96/45/3
f 83/50/10 80/51/10 88/51/10
f 83/50/10 88/51/10 89/50/10
f 82/47/7 76/48/7 91/48/7
f 82/47/7 91/48/7 92/75/7
f 81/31/4 73/32/4 94/32/4
f 81/31/4 94/32/4 95/31/4
f 80/51/11 79/52/11 86/52/11
f 80/51/11 86/52/11 88/51/11
f 77/44/1 78/43/1 87/43/1
f 77/44/1 87/43/1 85/44/1
f 76/48/8 75/49/8 90/49/8
f 76/48/8 90/49/8 91/48/8
f 73/32/5 74/46/5 93/46/5
f 73/32/5 93/46/5 94/32/5
f 97/76/1 98/77/1 99/78/1
f 97/76/1 99/78/1 100/79/1
f 100/79/2 99/78/2 101/80/2
f 100/79/2 101/80/2 102/81/2
f 102/81/3 101/80/3 103/82/3
f 102/81/3 103/82/3 104/83/3
f 104/83/4 103/82/4 105/84/4
f 104/83/4 105/84/4 106/85/4
f 106/85/5 105/84/5 107/86/5
f 106/85/5 107/86/5 108/87/5
f 108/87/6 107/86/6 109/88/6
f 108/87/6 109/88/6 110/89/6
f 110/89/7 109/88/7 111/90/7
f 110/89/7 111/90/7 112/91/7
f 112/91/8 111/90/8 113/92/8
f 112/91/8 113/92/8 114/93/8
f 114/93/9 113/92/9 115/94/9
f 114/93/9 115/94/9 116/95/9
f 116/95/10 115/94/10 117/96/10
f 116/95/10 117/96/10 118/97/10
f 101/98/13 99/99/13 98/100/13
f 103/101/13 101/98/13 98/100/13
f 105/102/13 103/101/13 98/100/13
f 107/103/13 105/102/13 98/100/13
f 109/104/13 107/103/13 98/100/13
f 111/105/13 109/104/13 98/100/13
f 113/106/13 111/105/13 98/100/13
f 115/107/13 113/106/13 98/100/13
f 117/108/13 115/107/13 98/100/13
f 119/109/13 117/108/13 98/100/13
f 118/97/11 117/96/11 119/110/11
f 118/97/11 119/110/11 120/111/11
f 120/111/12 119/110/12 98/112/12
f 120/111/12 98/112/12 97/113/12
f 120/114/38 97/115/38 100/116/38
f 118/117/38 120/114/38 100/116/38
f 116/118/38 118/117/38 100/116/38
f 114/119/38 116/118/38 100/116/38
f 112/120/38 114/119/38 100/116/38
f 110/121/38 112/120/38 100/116/38
f 108/122/38 110/121/38 100/116/38
f 106/123/38 108/122/38 100/116/38
f 104/124/38 106/123/38 100/116/38
f 102/125/38 104/124/38 100/116/38
s off
